<?xml version="1.0" encoding="UTF-8" standalone="no"?>
<!-- Created with Inkscape (http://www.inkscape.org/) -->

<svg
   width="210mm"
   height="297mm"
   viewBox="0 0 210 297"
   version="1.1"
   id="svg1"
   xml:space="preserve"
   inkscape:version="1.4.4 (dcaf3e7, 2026-05-05)"
   sodipodi:docname="mclaren.svg"
   xmlns:inkscape="http://www.inkscape.org/namespaces/inkscape"
   xmlns:sodipodi="http://sodipodi.sourceforge.net/DTD/sodipodi-0.dtd"
   xmlns="http://www.w3.org/2000/svg"
   xmlns:svg="http://www.w3.org/2000/svg"><sodipodi:namedview
     id="namedview1"
     pagecolor="#ffffff"
     bordercolor="#000000"
     borderopacity="0.25"
     inkscape:showpageshadow="2"
     inkscape:pageopacity="0.0"
     inkscape:pagecheckerboard="0"
     inkscape:deskcolor="#d1d1d1"
     inkscape:document-units="mm"
     inkscape:zoom="0.68862935"
     inkscape:cx="397.16576"
     inkscape:cy="559.80768"
     inkscape:window-width="1920"
     inkscape:window-height="991"
     inkscape:window-x="-9"
     inkscape:window-y="-9"
     inkscape:window-maximized="1"
     inkscape:current-layer="layer1" /><defs
     id="defs1" /><g
     inkscape:label="Layer 1"
     inkscape:groupmode="layer"
     id="layer1"><path
       style="fill:#000000;stroke-width:0.978021"
       d="m 35.283826,175.29936 c -0.03992,-0.11284 -1.877492,-0.72298 -4.083488,-1.35587 -4.865194,-1.39582 -6.870963,-2.24235 -7.111952,-3.00165 -0.224264,-0.70659 0.114588,-1.10687 1.444774,-1.7067 l 1.063763,-0.4797 -2.420806,-0.46228 c -1.331443,-0.25427 -2.625133,-0.39771 -2.874867,-0.31877 -0.254531,0.0805 -0.753139,-0.0918 -1.134661,-0.39182 -0.374329,-0.29446 -0.926898,-0.52651 -1.22793,-0.51568 -0.400984,0.0144 -0.305166,0.11294 0.358357,0.36846 1.299557,0.50046 0.587408,0.46872 -0.906816,-0.0404 -1.712476,-0.5835 -3.251392,-2.16853 -3.821012,-3.93551 -0.522598,-1.62111 -0.608047,-2.72909 -0.162352,-2.10512 0.223008,0.31221 0.252445,0.27484 0.150452,-0.191 -0.07649,-0.34936 0.08141,-0.84384 0.397958,-1.24627 l 0.524758,-0.66712 -0.654066,-2.50586 c -0.359736,-1.37823 -0.664157,-2.68054 -0.676488,-2.89402 -0.01233,-0.21348 -0.09425,-1.03318 -0.182013,-1.82154 -0.126731,-1.13826 -0.074,-1.50442 0.256084,-1.77837 0.22862,-0.18974 0.415674,-0.55515 0.415674,-0.81204 0,-0.25689 0.287165,-0.69296 0.638144,-0.96903 0.35098,-0.27609 0.564464,-0.57566 0.474408,-0.66571 -0.09006,-0.0901 0.0012,-0.16533 0.202851,-0.16727 0.201623,-0.002 0.651436,-0.0797 0.999583,-0.17284 l 0.632995,-0.1693 -0.697687,0.75242 c -0.811938,0.87563 -0.874333,1.13388 -0.244843,1.01338 0.249065,-0.0477 0.452844,-0.10363 0.452844,-0.12432 0,-0.0208 0.291113,-0.0817 0.646919,-0.13566 2.674806,-0.4053 3.094529,-0.35063 2.535553,0.33038 -0.184815,0.22516 0.404568,-0.13455 1.30974,-0.79935 0.905171,-0.66479 1.901813,-1.20872 2.21476,-1.20872 0.312948,0 0.795031,-0.1833 1.071297,-0.40734 0.276266,-0.22403 0.338753,-0.32248 0.13886,-0.21879 -0.253701,0.13163 -0.301546,0.0885 -0.158454,-0.14311 0.155024,-0.25084 0.874337,-0.29757 2.951121,-0.19171 l 2.746131,0.13996 -2.703252,-0.35764 c -1.486792,-0.19671 -2.884138,-0.42707 -3.105215,-0.5119 -0.221079,-0.0847 -0.455636,-0.13811 -0.521241,-0.11839 -0.0656,0.0197 -0.183424,-0.14701 -0.26182,-0.3705 -0.119843,-0.34165 -0.471672,-0.24659 -2.20963,0.59696 -1.1369,0.55182 -2.380008,0.98189 -2.762463,0.95573 -0.382454,-0.0262 -0.637584,0.0459 -0.566956,0.1602 0.07063,0.11427 -0.02401,0.21668 -0.210316,0.22757 -0.186301,0.0108 -0.542128,0.0588 -0.790727,0.10636 -0.369089,0.0707 -0.421857,-0.0397 -0.287682,-0.60203 0.233975,-0.98053 0.31668,-1.07387 0.790414,-0.89207 0.282298,0.10833 0.360282,0.0617 0.23521,-0.14069 -0.167555,-0.27111 0.137569,-0.41974 0.684433,-0.33339 0.106742,0.0168 0.164965,-0.0995 0.129385,-0.25844 -0.03558,-0.159 0.154306,-0.3256 0.421972,-0.37022 0.728538,-0.12145 1.044889,-0.53759 0.55236,-0.7266 -0.274853,-0.10546 -0.3561,-0.059 -0.236178,0.13501 0.112606,0.1822 0.06808,0.22489 -0.115945,0.11114 -0.424532,-0.26237 -0.370054,-0.67162 0.0894,-0.67162 0.213484,0 0.388151,-0.1128 0.388151,-0.25065 0,-0.13785 -0.174667,-0.18362 -0.388151,-0.10167 -0.240361,0.0922 -0.388152,-9.8e-4 -0.388152,-0.24533 0,-0.21686 0.145557,-0.45301 0.32346,-0.52479 0.206894,-0.0835 0.172469,-0.13789 -0.09553,-0.15096 -0.276684,-0.0135 -0.471721,-0.34538 -0.574253,-0.97721 -0.0854,-0.52624 -0.108959,-1.0031 -0.05236,-1.0597 0.05659,-0.0567 0.489678,-0.0103 0.962404,0.10311 l 0.859499,0.20601 -0.905688,0.1727 c -0.852349,0.16254 -0.86161,0.17471 -0.157255,0.20677 0.411638,0.0187 1.718239,0.4506 2.903557,0.95971 1.185319,0.5091 2.26278,0.8591 2.394359,0.77778 0.131579,-0.0812 0.310743,0.0385 0.398145,0.26626 0.113593,0.29603 0.344879,0.36744 0.811043,0.25044 0.471944,-0.11844 1.14767,0.0999 2.445544,0.7903 0.986377,0.52468 1.731186,1.05465 1.655133,1.17771 -0.07605,0.12306 -0.04229,0.20237 0.07504,0.17624 0.389769,-0.0867 1.118286,0.34401 0.974688,0.57636 -0.18852,0.30504 0.469376,0.0772 2.35277,-0.81475 3.960344,-1.87559 8.041491,-2.28084 13.998063,-1.38995 1.035209,0.15483 1.064683,0.13931 0.943167,-0.49635 -0.185517,-0.97047 0.841795,-1.86561 2.543362,-2.21614 3.579532,-0.73741 10.69311,-1.00911 14.334922,-0.54755 5.609326,0.71094 6.487138,0.84514 6.670613,1.01977 0.110778,0.10545 -0.964,0.45191 -2.388398,0.76995 -2.483803,0.55457 -3.280617,0.9261 -2.551933,1.18987 0.311065,0.11262 22.031884,0.66787 22.104707,0.56508 0.01746,-0.0247 0.09337,-1.21644 0.168673,-2.64842 l 0.136908,-2.60356 -0.813883,0.13104 -0.813884,0.13105 0.776304,0.17769 c 0.547406,0.1253 0.229493,0.18673 -1.078199,0.20831 -1.216347,0.02 -1.899668,0.14192 -1.985751,0.35408 -0.09865,0.24311 -0.197412,0.22704 -0.397642,-0.0646 -0.146517,-0.21349 -0.94139,-0.52545 -1.766383,-0.69327 l -1.499989,-0.3051 1.811374,9.8e-4 c 5.06814,0.004 5.620521,-0.0337 5.491211,-0.37069 -0.07709,-0.20089 0.07194,-0.3327 0.376147,-0.3327 0.385324,0 0.467135,0.12388 0.347855,0.52678 -0.08578,0.28972 -0.225457,1.6484 -0.310397,3.01928 l -0.154437,2.49252 7.346141,0.18678 c 14.552019,0.36998 31.799699,0.10967 31.799699,-0.47995 0,-0.65547 1.08699,-0.92995 3.94281,-0.9956 l 2.93329,-0.0674 -0.50888,-0.58527 c -0.46522,-0.53504 -0.73255,-0.58549 -3.11459,-0.58783 -5.41749,-0.005 -24.49526,-1.50528 -24.96757,-1.96309 -0.18282,-0.1772 0.80799,-0.11887 4.53824,0.26718 9.27496,0.95988 23.2761,1.71225 21.92569,1.17821 -0.30566,-0.12088 -0.63277,-0.34438 -0.72689,-0.49669 -0.094,-0.1523 -0.45268,-0.2769 -0.79681,-0.2769 -0.73451,0 -1.41461,-0.90266 -1.49095,-1.97885 -0.0478,-0.67457 0.0368,-0.75177 0.98272,-0.89556 l 1.03507,-0.15736 -1.03507,-0.0407 c -0.78008,-0.0308 -0.93946,-0.10377 -0.64692,-0.29675 0.29509,-0.19467 0.20027,-0.24361 -0.39556,-0.20413 -0.43103,0.0286 -0.95504,-0.0537 -1.16445,-0.1828 -0.28815,-0.17766 -0.27131,-0.0674 0.0693,0.45335 0.32162,0.49184 0.36557,0.74027 0.15409,0.87098 -0.17049,0.10536 -0.2255,0.0689 -0.12979,-0.0859 0.22311,-0.361 -1.36776,-1.02223 -1.59793,-0.66416 -0.0993,0.15452 -0.38564,0.17928 -0.68772,0.0594 -0.28463,-0.1129 -0.40108,-0.21524 -0.25876,-0.22742 0.14233,-0.0122 0.11936,-0.11078 -0.0511,-0.21909 -0.72238,-0.45922 0.11148,-0.73063 1.79276,-0.58352 1.20297,0.10526 1.77717,0.0601 1.85631,-0.14621 0.13143,-0.34249 3.76691,-0.64032 4.165,-0.34121 0.14231,0.10693 0.68736,0.27453 1.21122,0.3724 0.94654,0.17688 1.40461,0.69793 1.07805,1.22629 -0.10962,0.17739 0.029,0.22398 0.38732,0.13026 0.3069,-0.0803 0.558,-0.0626 0.558,0.0391 0,0.10177 0.17535,0.41112 0.38967,0.68737 0.36268,0.46754 0.37134,0.4511 0.12509,-0.23742 l -0.26457,-0.73974 0.84528,0.56266 c 1.21367,0.80788 4.38315,2.33948 4.84889,2.34315 0.2175,0.002 0.91754,0.30153 1.55565,0.66625 0.84337,0.48204 1.47936,0.64874 2.32891,0.61041 0.64279,-0.029 3.09007,-0.0209 5.43839,0.0179 l 4.26966,0.0706 -3.10521,0.30205 c -2.47634,0.24089 -2.86939,0.329 -1.94075,0.4351 l 1.16445,0.13305 -1.22915,0.0452 c -0.75334,0.0277 -1.22915,-0.0658 -1.22915,-0.24125 0,-0.1725 -0.18013,-0.21105 -0.45284,-0.0969 -0.24906,0.10425 -1.59596,0.17516 -2.99311,0.1576 -2.30503,-0.029 -2.52781,0.0103 -2.40589,0.42037 0.0739,0.24878 0.20625,0.75463 0.2941,1.12412 l 0.15974,0.67181 4.05754,-0.0141 c 2.7066,-0.009 4.47975,0.10479 5.32568,0.34312 1.1064,0.31174 1.19511,0.38433 0.6954,0.56919 -0.31502,0.11653 -1.06036,0.0993 -1.65632,-0.0382 -0.59595,-0.13756 -2.71378,-0.23533 -4.70629,-0.21727 l -3.62275,0.0328 3.88152,0.25737 c 4.6757,0.31003 5.84779,0.31736 9.7038,0.0606 2.00615,-0.13354 3.48174,-0.099 4.52844,0.10612 0.85392,0.16734 1.87256,0.35005 2.26363,0.40605 0.39106,0.056 1.2644,0.35107 1.94076,0.65573 0.67635,0.30466 1.49658,0.55766 1.82273,0.56225 0.32616,0.005 0.53045,0.0709 0.45399,0.14733 -0.0765,0.0765 0.35214,0.35893 0.95243,0.62768 0.60028,0.26876 1.15289,0.58178 1.228,0.69559 0.28115,0.42603 1.19846,0.75088 1.56647,0.55474 0.2098,-0.11185 1.16747,-0.34805 2.12814,-0.5249 0.96068,-0.17687 1.74761,-0.39572 1.74874,-0.48635 9.8e-4,-0.0906 0.73563,-0.1778 1.63222,-0.19373 0.89662,-0.0159 1.91459,-0.18534 2.26218,-0.37649 0.71112,-0.39103 1.36501,-0.34877 2.31398,0.14952 0.3558,0.18683 1.57849,0.65105 2.71706,1.03157 3.56138,1.19028 8.755,4.1479 9.63073,5.48443 0.41169,0.6283 0.40719,0.81109 -0.079,3.21099 l -0.51548,2.54477 0.70923,0.52434 c 0.53397,0.39479 0.9042,1.133 1.4982,2.98737 0.43394,1.35466 0.78898,2.86918 0.78898,3.3656 0,0.7958 -0.0783,0.9026 -0.6622,0.9026 -0.36421,0 -0.59299,0.11198 -0.50839,0.24884 0.19477,0.31514 -1.52599,1.20366 -2.79052,1.44089 -0.52866,0.0992 -1.02418,0.28222 -1.10116,0.40678 -0.077,0.12456 0.0599,0.1498 0.30407,0.056 0.28714,-0.1102 0.3822,-0.0703 0.26902,0.11278 -0.26566,0.42985 1.86907,-0.44317 3.19534,-1.30676 1.08223,-0.70471 1.12259,-0.71311 0.57173,-0.11898 -0.66905,0.72162 -2.87132,1.85829 -4.11468,2.12374 -0.69269,0.14789 -0.83876,0.30866 -0.90569,0.99684 -0.0638,0.65593 -0.29134,0.93684 -1.13453,1.40052 -1.38821,0.76341 -3.37458,1.02198 -11.54429,1.50277 -3.74472,0.22038 -8.50043,0.62936 -10.56826,0.90887 -4.62676,0.6254 -13.63708,0.68991 -19.33298,0.13841 -6.22913,-0.60311 -32.98663,-1.05508 -61.006878,-1.03048 -26.370213,0.0232 -32.797105,0.19374 -39.073947,1.03719 -3.031465,0.40736 -15.056198,0.46741 -15.194718,0.0759 z m 7.382172,-5.21164 -0.890666,-3.42868 0.432921,-1.4435 c 0.482307,-1.60817 0.435345,-2.41811 -0.142636,-2.45995 -0.22509,-0.0163 -0.250742,0.0172 -0.06172,0.0807 0.462848,0.15538 0.390094,1.06326 -0.187106,2.33486 -0.397463,0.87562 -0.633625,1.09976 -1.158773,1.09976 -0.885037,0 -0.880974,-0.84789 0.01034,-2.15958 0.368457,-0.54224 0.615419,-1.04039 0.5488,-1.107 -0.06661,-0.0666 -0.455415,0.41498 -0.863998,1.07022 -0.749427,1.20186 -2.845147,2.66764 -6.267425,4.38354 -0.761344,0.38174 -1.329726,0.74859 -1.263071,0.81526 0.06666,0.0666 1.434587,-0.52341 3.039849,-1.31125 3.053556,-1.49863 3.9175,-1.68601 4.829264,-1.04738 0.615703,0.43126 1.430945,2.53675 1.207592,3.11879 -0.0797,0.20772 -0.02206,0.37769 0.128135,0.37769 0.150185,0 0.469101,0.69868 0.708705,1.5526 0.239601,0.85394 0.52222,1.55261 0.628041,1.55261 0.105821,0 -0.208397,-1.54291 -0.698263,-3.42868 z m 117.547742,0.56512 c 1.18357,-2.72908 1.87634,-3.60563 2.84965,-3.60563 0.68938,0 2.62366,0.98025 4.68362,2.37357 1.1293,0.76384 1.3781,0.86116 1.37434,0.53756 -9.8e-4,-0.10674 -0.70737,-0.64839 -1.56915,-1.20365 -1.16509,-0.75069 -1.4797,-1.07215 -1.22689,-1.25356 0.24355,-0.17476 0.20227,-0.1991 -0.1455,-0.0858 -0.52963,0.1726 -2.67513,-1.39718 -2.9383,-2.1498 -0.29888,-0.85482 -1.40552,-2.09987 -1.86642,-2.09987 -0.69403,0 -0.83663,0.64787 -0.50517,2.29516 0.31366,1.5589 0.33869,1.45894 -1.54684,6.17949 -0.92361,2.31233 -0.18553,1.494 0.89066,-0.98749 z m 1.46257,-4.18786 c -0.4687,-0.57178 -0.89577,-2.56401 -0.61074,-2.84903 0.42771,-0.42772 1.02969,-0.0158 1.45128,0.9933 0.55402,1.32597 0.51897,2.17918 -0.0895,2.17918 -0.26721,0 -0.60517,-0.14555 -0.751,-0.32345 z m -115.181813,3.304 c -0.425621,-3.6089 -0.39238,-3.94867 0.470775,-4.81182 0.756205,-0.75621 0.757235,-0.75641 4.026174,-0.75641 2.113956,0 3.213243,-0.0915 3.109848,-0.25876 -0.09309,-0.15061 -1.538408,-0.25877 -3.457976,-0.25877 -3.240111,0 -3.320531,-0.0141 -4.577859,-0.80194 l -1.279808,-0.80195 0.991385,0.92077 c 1.069316,0.99317 1.183113,1.79471 0.273331,1.92526 -0.357521,0.0512 -0.817985,-0.23737 -1.355889,-0.85 -1.018091,-1.15955 -1.07559,-0.79182 -0.07338,0.46929 0.633761,0.79748 0.821207,1.43481 1.29384,4.39914 0.303988,1.90659 0.561899,3.56984 0.573135,3.69612 0.01124,0.12626 0.08155,0.0769 0.156238,-0.10976 0.0747,-0.18664 0.0072,-1.42916 -0.149812,-2.76117 z m 111.010083,2.3101 c -0.48407,-0.2101 -0.93766,-0.32449 -1.00795,-0.25421 -0.15451,0.15453 0.95658,0.62115 1.49996,0.62993 0.21348,0.004 -0.008,-0.16563 -0.49201,-0.37572 z m -0.63284,-3.39625 c 0.5304,-1.90222 1.05951,-3.24702 1.44638,-3.6761 1.10677,-1.22752 1.35385,-1.72641 0.43119,-0.87066 -0.9012,0.83584 -1.86366,1.08752 -2.18298,0.57084 -0.26083,-0.42204 0.49576,-1.37454 1.5374,-1.93549 0.82662,-0.44518 0.97877,-0.46083 1.19253,-0.12269 0.17096,0.27042 0.2462,0.28736 0.24897,0.0559 0.008,-0.63554 -0.72933,-0.60463 -2.09603,0.0879 -1.36656,0.69249 -1.39763,0.69563 -4.48995,0.45376 -1.71262,-0.13397 -3.16237,-0.20693 -3.22167,-0.16215 -0.25706,0.19411 0.27584,0.31698 3.03508,0.69977 1.60999,0.22337 3.04795,0.48069 3.19547,0.57187 0.14749,0.0911 0.41619,0.51776 0.59709,0.94798 0.27763,0.66029 0.25174,1.12946 -0.1661,3.00947 -0.763,3.43298 -0.82224,3.79511 -0.58475,3.57439 0.12156,-0.11299 0.59739,-1.55519 1.05737,-3.20492 z m -1.72161,2.42394 c 0,-0.0444 -0.37844,-0.34401 -0.84098,-0.66579 l -0.841,-0.58508 0.72604,0.66579 c 0.66971,0.61415 0.95594,0.78933 0.95594,0.58508 z m -95.910203,-0.62193 c -0.656911,-0.0827 -0.787759,-0.1989 -0.681431,-0.6055 0.09027,-0.34521 2.33e-4,-0.50322 -0.286736,-0.50322 -0.412589,0 -0.584223,0.78292 -0.245821,1.12133 0.09488,0.0948 0.589775,0.15387 1.099765,0.13109 0.915292,-0.0409 0.916766,-0.0427 0.114223,-0.1437 z m 100.050503,-0.0736 c 0,-0.14231 -0.12332,-0.25876 -0.27404,-0.25876 -0.15073,0 -0.20208,0.11645 -0.11411,0.25876 0.0879,0.14232 0.21128,0.25877 0.27403,0.25877 0.0628,0 0.11412,-0.11645 0.11412,-0.25877 z m -11.77394,-1.62104 c 0.17251,-0.17251 -0.0324,-0.20424 -0.61457,-0.0952 -0.48034,0.09 -1.04034,0.16361 -1.24443,0.16361 -0.20409,0 -0.30147,0.11263 -0.21639,0.2503 0.18062,0.29223 1.69735,0.0592 2.07539,-0.31874 z m -1.49331,-0.34667 c -0.086,-0.086 -0.30916,-0.0952 -0.49597,-0.0204 -0.20644,0.0827 -0.14511,0.14391 0.15634,0.15634 0.27279,0.0112 0.42562,-0.05 0.33963,-0.13592 z m 1.03507,-0.25877 c -0.086,-0.086 -0.30918,-0.0952 -0.49598,-0.0204 -0.20642,0.0827 -0.1451,0.14393 0.15636,0.15635 0.27277,0.0112 0.42561,-0.05 0.33962,-0.13592 z m -84.099548,-0.7763 c -0.08599,-0.086 -0.309174,-0.0952 -0.495972,-0.0204 -0.206427,0.0827 -0.145111,0.14392 0.15634,0.15635 0.272784,0.0113 0.425619,-0.05 0.339632,-0.13592 z m 105.957488,-2.3235 c -2.21338,-2.06536 -2.38027,-2.29173 -2.38027,-3.22868 0,-0.9496 0.13407,-1.12164 2.32891,-2.98836 1.28091,-1.08942 2.32891,-2.09613 2.32891,-2.23713 0,-0.28421 0.0872,-0.3433 -2.16449,1.46598 -2.47383,1.98774 -3.42999,2.52404 -4.87559,2.73468 l -1.36987,0.1996 1.45623,0.0323 c 1.66877,0.0369 2.34694,0.51165 1.75319,1.22707 -0.27179,0.3275 -0.65845,0.38912 -1.77836,0.28338 -0.88152,-0.0832 -1.23232,-0.0521 -0.91353,0.0809 0.28465,0.11878 0.8178,0.22416 1.18479,0.23416 0.80514,0.0219 2.38075,1.0374 4.61823,2.97635 2.59476,2.2486 2.46034,1.69117 -0.18815,-0.7802 z m -150.654245,1.71881 c 0,-0.13391 -0.118345,-0.31662 -0.262989,-0.40603 -0.144644,-0.0894 -0.208268,-0.25107 -0.141385,-0.35929 0.06687,-0.10822 -0.134999,-0.17388 -0.448623,-0.14592 -0.313625,0.028 -0.781602,-0.13326 -1.039952,-0.35828 -0.453789,-0.39523 -0.453789,-0.41544 0,-0.59555 0.356304,-0.14141 0.302776,-0.17729 -0.221679,-0.14861 -0.577012,0.0316 -0.650867,0.11356 -0.446383,0.49564 0.24631,0.46024 1.991427,1.76155 2.362312,1.76155 0.109284,0 0.198699,-0.10958 0.198699,-0.24351 z m 0.645483,-0.53439 c -0.514853,-0.56891 -0.79714,-0.5081 -0.556189,0.11982 0.08428,0.21962 0.349602,0.3993 0.58961,0.3993 0.398221,0 0.395299,-0.0454 -0.03342,-0.51912 z m 14.522054,-1.25264 c 2.658038,-1.93547 4.61223,-2.88606 5.933049,-2.88606 0.617599,0 1.176887,-0.0873 1.242863,-0.19407 0.06598,-0.10674 -0.395651,-0.15303 -1.025839,-0.1028 -1.722348,0.13712 -2.477963,-0.1207 -2.379663,-0.812 0.06963,-0.48967 0.288621,-0.59519 1.504714,-0.72497 0.782772,-0.0835 1.099258,-0.17088 0.7033,-0.19409 -1.330347,-0.0779 -2.372276,-0.73404 -4.788584,-3.01535 -1.321812,-1.24798 -2.47989,-2.19245 -2.573506,-2.09884 -0.09362,0.0936 0.78893,1.05539 1.961214,2.13725 4.009717,3.70046 3.918315,4.2508 -1.318777,7.9407 -1.655316,1.16627 -2.176539,1.68359 -1.393607,1.38315 0.194192,-0.0745 1.154867,-0.71932 2.134836,-1.43288 z m 163.287608,1.0733 c -0.18409,-0.18409 -2.53336,-0.12006 -2.73021,0.0744 -0.0593,0.0586 0.57144,0.10652 1.40166,0.10652 0.83022,0 1.42806,-0.0813 1.32855,-0.18093 z m 1.19444,0.009 c -0.17791,-0.0717 -0.46902,-0.0717 -0.64692,0 -0.1779,0.0718 -0.0324,0.13051 0.32346,0.13051 0.35581,0 0.50136,-0.0588 0.32346,-0.13051 z m -85.45809,-0.76216 c -0.78277,-0.19717 -1.71433,-0.32512 -2.07014,-0.28431 -0.42388,0.0486 -0.15623,0.17149 0.77631,0.3564 2.04121,0.4047 2.97915,0.35245 1.29383,-0.072 z m 75.56022,0.30164 c 0,-0.0628 -0.11645,-0.18608 -0.25878,-0.27404 -0.14231,-0.0879 -0.25876,-0.0365 -0.25876,0.1141 0,0.15073 0.11645,0.27405 0.25876,0.27405 0.14233,0 0.25878,-0.0514 0.25878,-0.11411 z m -44.70215,-0.31604 c -0.17791,-0.0717 -0.46901,-0.0717 -0.64691,0 -0.17791,0.0717 -0.0324,0.13052 0.32345,0.13052 0.35581,0 0.50136,-0.0586 0.32346,-0.13052 z m -14.05972,-0.18915 c -0.18307,-0.1728 -5.48969,-1.20121 -5.60471,-1.08618 -0.0596,0.0596 0.74531,0.28847 1.78861,0.50869 1.04329,0.22021 2.12979,0.44962 2.41444,0.5098 0.71525,0.15122 1.53195,0.19066 1.40166,0.0677 z m 61.86708,-0.14173 c 0,-0.13393 -0.11645,-0.31547 -0.25877,-0.40342 -0.14232,-0.0879 -0.25876,0.0216 -0.25876,0.24349 0,0.22188 0.11644,0.40342 0.25876,0.40342 0.14232,0 0.25877,-0.10957 0.25877,-0.24349 z M 90.005334,164.54647 c -0.177903,-0.0717 -0.469016,-0.0717 -0.646919,0 -0.177903,0.0718 -0.03235,0.13052 0.323459,0.13052 0.355807,0 0.501363,-0.0586 0.32346,-0.13052 z m 19.084126,-0.22781 c -0.78278,-0.19536 -1.65611,-0.34628 -1.94076,-0.33541 -0.69869,0.0267 1.89873,0.68416 2.71706,0.68775 0.3558,0.002 0.007,-0.157 -0.7763,-0.35234 z m -89.411679,-0.19177 c -0.745182,-0.44616 -1.674603,-1.29879 -1.674603,-1.53625 0,-0.11069 0.174667,-0.20125 0.388151,-0.20125 0.497473,0 0.496785,-0.53737 -0.0014,-1.1797 -0.370485,-0.47758 -0.378981,-0.47047 -0.172648,0.14462 0.164387,0.49005 0.100667,0.75807 -0.262747,1.10525 -0.461668,0.44104 -0.500036,0.42397 -1.017368,-0.45285 -0.635811,-1.07761 -0.919375,-1.22217 -0.390241,-0.19894 0.379646,0.73415 1.456361,1.84639 1.456361,1.50441 0,-0.10588 0.35827,0.10896 0.796157,0.47742 0.437886,0.36845 0.932781,0.66581 1.099764,0.66076 0.166983,-0.005 0.06739,-0.15061 -0.221317,-0.32347 z m 78.316775,-0.51267 c -0.255563,-0.25366 -0.285285,-0.22394 -0.144857,0.14485 0.09718,0.2552 0.241869,0.39882 0.32154,0.31915 0.07967,-0.0797 1.64e-4,-0.28848 -0.176683,-0.464 z m 45.769804,0.069 c 0,-0.14233 -0.66957,-0.27834 -1.48793,-0.30227 l -1.48791,-0.0436 1.55261,-0.17176 c 1.49075,-0.16493 1.45469,-0.17454 -0.90568,-0.24134 -3.40627,-0.0963 -3.61802,-0.0981 -4.78721,-0.0379 -0.95758,0.0493 -0.98727,0.0724 -0.39656,0.30812 1.42133,0.56729 7.51268,0.96349 7.51268,0.48865 z m 36.55095,-0.18262 c -0.32023,-0.0617 -0.84422,-0.0617 -1.16445,0 -0.32023,0.0617 -0.0582,0.11214 0.58223,0.11214 0.64044,0 0.90245,-0.0505 0.58222,-0.11214 z m 2.4529,-0.23249 c -0.086,-0.086 -0.30917,-0.0952 -0.49597,-0.0204 -0.20642,0.0827 -0.14511,0.14392 0.15634,0.15633 0.27279,0.0112 0.42562,-0.0499 0.33963,-0.13591 z m 6.8455,-0.93479 c -0.18569,-0.18569 -0.30621,-0.20097 -0.30621,-0.0388 0,0.34539 0.30602,0.65142 0.47871,0.47871 0.0736,-0.0736 -0.004,-0.27148 -0.1725,-0.43989 z M 19.767857,161.55103 c -0.09676,-0.67828 -0.988376,-0.97579 -0.988376,-0.3298 0,0.23232 0.115111,0.35126 0.255803,0.2643 0.146686,-0.0906 0.190068,0.0132 0.101698,0.24349 -0.101513,0.26453 -0.0061,0.40158 0.27973,0.40158 0.301416,0 0.408595,-0.1769 0.351145,-0.57957 z m 112.093163,0.31161 c -0.92508,-0.10399 -2.38065,-0.1837 -3.23458,-0.17713 l -1.55262,0.012 1.42322,0.1744 c 0.78277,0.096 2.23835,0.17564 3.2346,0.17713 l 1.81138,0.003 z m 29.32664,-0.009 c 0.16625,-0.0103 0.0695,-0.11033 -0.21525,-0.22295 -0.6127,-0.24242 -1.2263,-0.0682 -1.0074,0.28589 0.0847,0.13712 0.32648,0.18313 0.5372,0.10228 0.21074,-0.0809 0.51919,-0.15521 0.68545,-0.16521 z m -36.27228,-0.53233 c 1.23919,-0.26576 1.55644,-0.5569 0.9293,-0.85284 -0.17791,-0.0839 0.16688,-0.10534 0.76618,-0.0475 0.72636,0.07 1.18985,-0.0157 1.39021,-0.25708 0.16532,-0.1992 0.4901,-0.37929 0.72174,-0.40022 0.23164,-0.0209 -0.27752,-0.1261 -1.13144,-0.23374 -2.35883,-0.29734 -29.647659,-0.53259 -28.723236,-0.24761 0.579948,0.17877 0.285413,0.21235 -1.164456,0.13272 -1.406953,-0.0772 -1.727236,-0.043 -1.164455,0.12434 0.666554,0.1983 8.534427,1.02392 16.949297,1.77862 3.52532,0.31616 9.95946,0.31805 11.42686,0.003 z m -10.00365,-0.22578 -1.29383,-0.17747 1.29383,-0.009 c 0.71162,-0.005 2.10896,0.0751 3.10522,0.17738 l 1.81138,0.18592 -1.81138,7e-5 c -0.99626,3e-5 -2.3936,-0.0798 -3.10522,-0.17741 z m 8.34527,0.0874 c 0.17791,-0.0717 0.46902,-0.0717 0.64693,0 0.17789,0.0718 0.0324,0.13052 -0.32347,0.13052 -0.35581,0 -0.50136,-0.0588 -0.32346,-0.13052 z m 1.31001,-0.26417 c 0.18681,-0.0747 0.40999,-0.0655 0.49597,0.0204 0.086,0.086 -0.0669,0.14714 -0.33963,0.1359 -0.30144,-0.0124 -0.36277,-0.0737 -0.15634,-0.15634 z m -15.73631,-0.34077 c -1.40553,-0.17223 -1.40874,-0.17459 -0.25878,-0.1885 0.64046,-0.008 1.86313,0.0726 2.71707,0.17854 l 1.55261,0.19264 -1.29385,-0.004 c -0.71161,-0.002 -1.93428,-0.0827 -2.71705,-0.17855 z m -3.29573,-0.44445 c 0.39333,-0.0594 0.97556,-0.0579 1.29383,0.004 0.31826,0.0614 -0.004,0.11008 -0.71517,0.10815 -0.7116,-0.002 -0.97201,-0.0522 -0.57866,-0.11168 z m -4.46731,-0.33186 -1.164455,-0.18103 1.035065,-0.0162 c 0.5693,-0.009 1.61731,0.0745 2.32891,0.18532 l 1.29384,0.20153 -1.16445,-0.004 c -0.64045,-0.002 -1.68846,-0.0858 -2.32891,-0.18533 z m 31.80951,1.05226 c 0.24181,-0.15303 -0.38328,-0.26519 -1.81138,-0.32502 -2.42295,-0.10146 -3.52311,0.0903 -1.92182,0.33498 1.63226,0.24946 3.33046,0.24493 3.7332,-0.0103 z m 26.52773,0.007 c 0.0797,-0.12905 -0.0881,-0.17368 -0.37288,-0.0992 -0.60423,0.15802 -0.6806,0.33385 -0.14501,0.33385 0.20508,0 0.43813,-0.10559 0.51789,-0.23465 z M 40.904132,160.578 c -0.08796,-0.14232 -0.298611,-0.25699 -0.468114,-0.2548 -0.185179,0.002 -0.153262,0.10408 0.07996,0.2548 0.497125,0.32127 0.586706,0.32127 0.388152,0 z m 4.787207,0 c 0.213482,-0.13796 0.271705,-0.25084 0.129383,-0.25084 -0.142322,0 -0.433436,0.11288 -0.64692,0.25084 -0.213483,0.13797 -0.271705,0.25085 -0.129384,0.25085 0.142323,0 0.433437,-0.11288 0.646921,-0.25085 z m 8.668723,0 c -0.08796,-0.14232 -0.445402,-0.25876 -0.794316,-0.25876 -0.348912,0 -1.710275,-0.23542 -3.02525,-0.52313 -2.579989,-0.56451 -3.555318,-1.23725 -3.555318,-2.45231 0,-0.3397 0.390361,-1.90523 0.867468,-3.47893 0.477109,-1.5737 0.797037,-2.86127 0.710953,-2.86127 -0.08608,0 -0.668078,1.51823 -1.29332,3.37383 -1.014497,3.01086 -1.251067,3.47261 -2.198867,4.29192 l -1.062065,0.9181 1.030448,-0.66918 c 0.566747,-0.36805 1.223851,-0.66918 1.46023,-0.66918 0.690004,0 0.817938,0.79354 0.229002,1.42044 l -0.52955,0.56368 1.36323,-0.0912 c 0.749777,-0.0502 2.411239,0.0709 3.692139,0.26906 2.993217,0.46303 3.298355,0.47944 3.105216,0.16693 z m 34.545509,0 c -0.213483,-0.13796 -0.621043,-0.24101 -0.905688,-0.229 -0.426356,0.018 -0.403561,0.0583 0.129384,0.229 0.91492,0.29302 1.229703,0.29302 0.776304,0 z m 68.427439,-0.61307 c -0.88008,-0.76077 -0.96396,-0.92561 -0.65836,-1.29384 0.53588,-0.64567 0.96884,-0.51633 2.11782,0.63266 0.58008,0.58006 0.9401,0.84207 0.80007,0.58223 -0.14002,-0.25984 -0.55863,-0.75684 -0.93025,-1.10444 -0.68688,-0.64251 -1.23418,-2.13252 -2.09621,-5.70676 -0.68038,-2.82109 -0.77106,-1.78376 -0.12364,1.41455 0.30385,1.50114 0.47985,2.95814 0.39109,3.2378 -0.35822,1.12865 -1.27492,1.49069 -4.26991,1.68635 -1.63966,0.10711 -2.84761,0.29788 -2.84761,0.44972 0,0.17432 1.11822,0.20515 3.2993,0.091 3.01366,-0.15775 3.36649,-0.12865 4.07559,0.33603 1.22146,0.80042 1.34787,0.63056 0.24211,-0.3253 z m -70.169197,0.18457 c -0.175194,-0.0709 -0.524531,-0.0752 -0.776304,-0.009 -0.251772,0.0657 -0.108432,0.1236 0.318536,0.12887 0.426967,0.005 0.632963,-0.0484 0.457768,-0.11929 z m 75.847277,-1.4819 c 0.49241,-0.84024 1.25156,-1.46934 3.31101,-2.74387 3.19577,-1.97774 2.92239,-1.78028 2.73042,-1.97226 -0.0866,-0.0866 -0.83372,0.25178 -1.66042,0.75179 -0.82671,0.50003 -2.03226,1.16464 -2.67903,1.4769 -1.09268,0.52756 -1.24093,0.54058 -2.09422,0.18405 -0.83194,-0.3476 -1.02441,-0.64205 -2.04653,-3.13091 -0.62053,-1.51099 -1.23349,-2.74725 -1.36214,-2.74725 -0.12864,0 -0.14995,0.20379 -0.0474,0.45285 0.1026,0.24907 0.60718,1.63007 1.12131,3.06889 0.88189,2.46809 0.9184,2.69493 0.64559,4.0109 -0.3717,1.79303 -0.25409,1.90303 0.2884,0.26976 0.45838,-1.38008 1.04815,-1.83223 1.63041,-1.24998 0.30881,0.30882 0.30075,0.50518 -0.0558,1.35857 -0.22924,0.54866 -0.61614,1.23272 -0.85978,1.52011 -0.41424,0.48867 -0.41437,0.50043 -0.002,0.18159 0.24262,-0.18752 0.72863,-0.83154 1.08002,-1.43114 z m -77.728269,1.13409 c -0.355806,-0.11394 -0.938033,-0.20499 -1.293838,-0.20234 -0.58109,0.004 -0.567923,0.025 0.129383,0.20234 0.426966,0.10866 1.009194,0.19972 1.293839,0.20237 0.40554,0.004 0.377541,-0.04 -0.129384,-0.20237 z m -42.489683,-0.31051 c 0.170786,-0.17078 0.30314,-0.49101 0.294119,-0.71161 -0.01011,-0.24604 -0.106872,-0.17602 -0.250428,0.18114 -0.492466,1.22518 -1.67544,0.27687 -1.977637,-1.58534 -0.274785,-1.69331 1.182777,-1.52874 1.724228,0.19465 l 0.253996,0.80846 -0.09878,-0.9057 c -0.106295,-0.97457 0.804169,-3.55877 2.162624,-6.13822 0.42545,-0.80786 0.719042,-1.52332 0.652427,-1.58994 -0.177845,-0.17784 -0.211934,-0.12183 -1.531544,2.51697 -2.219861,4.439 -2.909797,4.62076 -7.028776,1.8516 -1.478298,-0.99386 -2.687814,-1.70467 -2.687814,-1.57959 0,0.12508 1.275632,1.14201 2.834739,2.25984 2.00252,1.43576 3.001402,2.33631 3.402427,3.06751 1.031853,1.88138 1.592861,2.28779 2.250419,1.63023 z m 39.754642,-0.2643 c -0.417079,-0.11786 -1.719,-0.28691 -2.89316,-0.3757 -1.733277,-0.13105 -2.134797,-0.0933 -2.134633,0.20048 1.61e-4,0.2876 0.594122,0.36473 2.893159,0.3757 1.945064,0.009 2.644489,-0.0565 2.134634,-0.20048 z m 12.826988,0.0726 c 0,-0.13393 -0.134438,-0.32659 -0.29875,-0.42813 -0.19415,-0.11999 -0.228104,-0.0703 -0.09698,0.14183 0.148414,0.24015 0.05635,0.28031 -0.34817,0.15193 -0.326278,-0.10356 -0.549941,-0.0622 -0.549941,0.10167 0,0.15191 0.291114,0.2762 0.64692,0.2762 0.355806,0 0.64692,-0.10957 0.64692,-0.24349 z m 34.804272,-0.27404 c -0.0972,-0.15732 -1.65036,-0.23912 -3.96149,-0.20865 -3.7949,0.0501 -3.79703,0.0504 -1.21387,0.20865 4.48373,0.2747 5.34513,0.2747 5.17536,0 z m 60.85357,-1.13979 c 0,-0.19991 -0.15525,-0.3039 -0.34502,-0.23107 -0.18976,0.0729 -0.34501,0.23638 -0.34501,0.36347 0,0.1271 0.15525,0.23108 0.34501,0.23108 0.18977,0 0.34502,-0.16357 0.34502,-0.36348 z m -79.35547,-0.16489 c -0.78277,-0.10821 -2.76234,-0.18547 -4.39905,-0.17169 l -2.97583,0.0251 2.71705,0.15747 c 1.49439,0.0866 3.47396,0.16385 4.39906,0.17168 l 1.68199,0.0141 z m 82.17687,-0.51913 c 0.6305,-0.4338 1.14639,-0.71066 1.14639,-0.61523 0,0.0955 0.17338,0.0296 0.38529,-0.14627 0.21192,-0.17588 0.31037,-0.44102 0.21879,-0.58921 -0.0915,-0.14819 -0.0453,-0.19449 0.1029,-0.10291 0.30938,0.1912 1.00453,-0.53141 0.7531,-0.78286 -0.0914,-0.0915 -0.16805,-9.8e-4 -0.17023,0.20033 -0.003,0.31386 -0.0377,0.31339 -0.23806,-0.003 -0.12878,-0.20346 -0.41866,-0.39701 -0.64419,-0.43012 -0.22555,-0.0331 -0.35193,0.034 -0.28084,0.14893 0.16071,0.26004 -0.51424,1.60094 -0.78016,1.54992 -0.10695,-0.0205 -0.29302,0.1182 -0.41349,0.30826 -0.1548,0.2442 -0.22554,0.15581 -0.24119,-0.30136 -0.02,-0.58651 -0.0413,-0.5986 -0.22742,-0.12938 -0.11289,0.28465 -0.10136,0.58467 0.0255,0.66672 0.30333,0.1961 -1.04453,0.80756 -1.35591,0.61513 -0.13165,-0.0813 -0.23936,-0.0247 -0.23936,0.1261 0,0.49557 0.79349,0.28708 1.95883,-0.51469 z m -94.667807,-0.1439 c -0.08599,-0.086 -0.309174,-0.0952 -0.495972,-0.0204 -0.206428,0.0827 -0.145111,0.14393 0.156339,0.15634 0.272784,0.0113 0.425619,-0.0498 0.339633,-0.1359 z m -79.889187,-0.48246 c 0,-0.23084 -0.151792,-0.32179 -0.386665,-0.23166 -0.212666,0.0815 -0.32224,0.25263 -0.243496,0.38003 0.225804,0.36536 0.630161,0.27015 0.630161,-0.14837 z M 96.8657,156.7775 c -0.247404,-0.0647 -0.713186,-0.0671 -1.035071,-0.005 -0.321885,0.0619 -0.119463,0.11488 0.449826,0.11775 0.56929,0.003 0.832649,-0.0477 0.585245,-0.11253 z m 3.8785,-0.25935 c -0.24906,-0.0651 -0.65662,-0.0651 -0.905687,0 -0.249064,0.0651 -0.04528,0.11835 0.452847,0.11835 0.49813,0 0.70191,-0.0533 0.45284,-0.11835 z m 28.71784,-0.23673 c -0.086,-0.086 -0.30918,-0.0952 -0.49597,-0.0204 -0.20643,0.0827 -0.14512,0.14392 0.15634,0.15633 0.27278,0.0112 0.42561,-0.0499 0.33963,-0.13591 z m -76.783969,-0.31174 c 0,-0.11512 -0.176561,-0.43534 -0.392357,-0.71161 -0.363829,-0.46578 -0.370216,-0.45056 -0.08785,0.20931 0.304673,0.71199 0.480204,0.8956 0.480204,0.5023 z m 74.331069,0.038 c -0.17792,-0.0717 -0.46902,-0.0717 -0.64692,0 -0.1779,0.0717 -0.0324,0.13052 0.32346,0.13052 0.3558,0 0.50136,-0.0587 0.32346,-0.13052 z m -59.810443,-0.86782 c -0.481833,-0.4247 -0.947615,-0.76745 -1.035071,-0.76165 -0.191389,0.0126 1.572816,1.54387 1.771973,1.53795 0.07654,-0.002 -0.255069,-0.3516 -0.736902,-0.7763 z m 58.390233,0.60263 c -0.2474,-0.0647 -0.71318,-0.0671 -1.03507,-0.005 -0.32189,0.0619 -0.11946,0.11489 0.44982,0.11776 0.56929,0.003 0.83266,-0.0477 0.58525,-0.11254 z m -2.78477,-0.57132 c 0,-0.12737 0.43667,-0.29121 0.97037,-0.36408 0.53372,-0.0729 2.3606,-0.32196 4.05972,-0.55355 1.69914,-0.23157 3.24205,-0.54778 3.42868,-0.70267 0.51617,-0.42839 0.40509,-0.79154 -0.18484,-0.6043 -0.2883,0.0916 -1.30719,0.20088 -2.26422,0.24307 -1.96967,0.0868 -5.06872,0.65269 -4.83801,0.88341 0.0838,0.0838 -0.22578,0.27978 -0.68808,0.43543 -0.8095,0.27257 -1.34061,0.89428 -0.76396,0.89428 0.15418,0 0.28034,-0.10422 0.28034,-0.23159 z m 70.31478,-0.18352 c -0.086,-0.086 -0.30919,-0.0952 -0.49598,-0.0204 -0.20643,0.0827 -0.14511,0.14392 0.15633,0.15635 0.27279,0.0112 0.42563,-0.05 0.33965,-0.13592 z m 1.03507,-0.25877 c -0.086,-0.086 -0.30918,-0.0952 -0.49598,-0.0204 -0.20643,0.0827 -0.14511,0.14393 0.15633,0.15635 0.27279,0.0112 0.42564,-0.0499 0.33965,-0.13591 z m -2.00007,-0.87986 c 0.54631,-0.13374 -1.44251,-0.58966 -2.52299,-0.57836 -0.74719,0.008 -1.35852,-0.0956 -1.35852,-0.2298 0,-0.13719 -0.24021,-0.11544 -0.54877,0.0496 -0.33452,0.17903 -0.4844,0.18956 -0.38392,0.0271 0.0906,-0.14669 0.0464,-0.33985 -0.0982,-0.42925 -0.14464,-0.0894 -0.26298,-0.0392 -0.26298,0.11151 0,0.15072 -0.19552,0.27405 -0.43447,0.27405 -0.60714,0 -2.23903,-0.59116 -2.49637,-0.90432 -0.1287,-0.15662 -0.17256,-0.10851 -0.1102,0.12087 0.0569,0.20956 0.38606,0.45995 0.73131,0.55643 0.50153,0.14015 0.52628,0.1806 0.12313,0.20121 -0.31939,0.0163 -0.41419,0.1162 -0.25827,0.27212 0.36733,0.36733 6.53237,0.79519 7.62022,0.52885 z m -13.95303,-0.25764 c 0.43982,0 0.43295,-0.0633 -0.097,-0.89474 -0.52453,-0.82291 -0.67416,-0.89529 -1.86415,-0.90172 -0.94899,-0.005 -1.19039,0.0622 -0.90569,0.25256 0.33853,0.22636 0.33026,0.29365 -0.0646,0.52643 -0.69511,0.40967 -0.53927,0.75871 0.33873,0.75871 0.53308,0 0.73119,0.0977 0.60668,0.29915 -0.13282,0.21491 0.0542,0.25135 0.664,0.12939 0.46689,-0.0934 1.06186,-0.16978 1.32216,-0.16978 z m 5.28431,0 c -0.0879,-0.14232 -0.27638,-0.25876 -0.4187,-0.25876 -0.14232,0 -0.18679,0.11644 -0.0989,0.25876 0.0879,0.14232 0.27638,0.25877 0.4187,0.25877 0.14233,0 0.1868,-0.11645 0.0989,-0.25877 z m -45.16249,-1.02495 c 0.55029,-0.34803 0.34414,-0.45053 -1.80972,-0.89987 -2.22268,-0.4637 -2.81943,-0.49138 -3.35065,-0.15543 -0.56318,0.35617 -0.20726,0.56056 1.60128,0.91955 2.03794,0.40451 3.07177,0.44394 3.55909,0.13575 z m 30.5421,-0.10781 c 0,-0.0538 -0.20378,-0.25753 -0.45283,-0.45285 -0.41042,-0.32187 -0.41958,-0.31271 -0.0978,0.0977 0.33805,0.43104 0.55054,0.56812 0.55054,0.35515 z m 10.86826,-0.16107 c 0,-0.14233 -0.11645,-0.25877 -0.25877,-0.25877 -0.14232,0 -0.25877,0.11644 -0.25877,0.25877 0,0.14232 0.11645,0.25876 0.25877,0.25876 0.14232,0 0.25877,-0.11644 0.25877,-0.25876 z m -14.24495,-0.38237 c -0.2103,-0.21033 -0.78836,-0.44738 -1.28459,-0.52683 -0.86309,-0.13816 -0.85171,-0.12274 0.26222,0.35555 1.46652,0.62967 1.48365,0.63255 1.02237,0.17128 z m -136.651239,-1.0558 c 0.547601,-0.69616 0.488649,-1.40834 -0.116577,-1.40834 -0.456196,0 -1.164987,1.08138 -1.25676,1.9174 -0.06042,0.55045 -0.0011,0.61167 0.389467,0.40258 0.253399,-0.13561 0.69614,-0.54585 0.98387,-0.91164 z m 145.591439,0.92057 c -0.0879,-0.14232 -0.29861,-0.25698 -0.46811,-0.25481 -0.18517,0.002 -0.15327,0.10409 0.08,0.25481 0.49712,0.32127 0.58671,0.32127 0.38815,0 z m 11.29179,-0.20385 c -0.18669,-0.0622 -0.46246,0.0103 -0.61283,0.16025 -0.19203,0.19203 -0.0909,0.22571 0.33942,0.11316 0.34991,-0.0915 0.46721,-0.20882 0.27341,-0.27341 z m -11.10754,-1.49472 c -0.37477,-0.2625 -0.78147,-0.33739 -1.15733,-0.21311 l -0.57952,0.19161 0.64692,0.18733 c 0.3558,0.10301 0.87661,0.19892 1.15733,0.21311 0.47553,0.024 0.47092,-0.002 -0.0674,-0.37894 z m -28.84817,-0.26915 c -0.086,-0.086 -0.30919,-0.0952 -0.49598,-0.0204 -0.20643,0.0827 -0.14511,0.14391 0.15634,0.15634 0.27278,0.0112 0.42561,-0.05 0.33964,-0.13592 z m 1.81137,0 c -0.086,-0.086 -0.30917,-0.0952 -0.49597,-0.0204 -0.20643,0.0827 -0.14511,0.14391 0.15633,0.15634 0.27279,0.0112 0.42563,-0.05 0.33964,-0.13592 z m 24.9118,-0.0707 c 0,-0.1249 -0.20378,-0.38689 -0.45284,-0.58223 -0.40068,-0.31423 -0.41584,-0.30768 -0.13163,0.0568 0.17666,0.22658 0.24459,0.48858 0.15094,0.58223 -0.0936,0.0937 -0.0344,0.17028 0.13163,0.17028 0.16604,0 0.3019,-0.10219 0.3019,-0.22709 z M 37.669535,149.45099 c 0.213483,-0.13797 0.271706,-0.25084 0.129384,-0.25084 -0.142323,0 -0.433436,0.11287 -0.64692,0.25084 -0.213484,0.13796 -0.271706,0.25084 -0.129384,0.25084 0.142322,0 0.433436,-0.11288 0.64692,-0.25084 z M 150.49231,149.2199 c 0,-0.1271 -0.17466,-0.2981 -0.38814,-0.38003 -0.39444,-0.15135 -0.52996,0.12428 -0.21564,0.43861 0.24729,0.24729 0.60378,0.21271 0.60378,-0.0586 z m 23.15973,-0.0277 c -0.0879,-0.14231 -0.27637,-0.25877 -0.41869,-0.25877 -0.14232,0 -0.1868,0.11646 -0.0989,0.25877 0.0879,0.14232 0.27637,0.25877 0.41869,0.25877 0.14232,0 0.18681,-0.11645 0.0989,-0.25877 z M 39.351526,148.93345 c 0.326212,-0.14018 0.374044,-0.22239 0.129384,-0.22239 -0.213485,0 -0.621043,0.10012 -0.905688,0.22239 -0.326213,0.14017 -0.374044,0.22239 -0.129384,0.22239 0.213484,0 0.621043,-0.10012 0.905688,-0.22239 z m 141.934164,-0.51753 c 0,-0.14232 -0.11644,-0.25878 -0.25876,-0.25878 -0.14232,0 -0.25878,0.11646 -0.25878,0.25878 0,0.14232 0.11646,0.25876 0.25878,0.25876 0.14232,0 0.25876,-0.11644 0.25876,-0.25876 z m -27.96849,-0.86975 c -0.0592,-0.0513 -0.80649,-0.16861 -1.66043,-0.26046 -1.06281,-0.11433 -1.43016,-0.0861 -1.16446,0.0895 0.34882,0.2305 3.08464,0.39609 2.82489,0.17098 z m 15.8064,-0.55988 c 0,-0.17082 -1.10452,-0.59607 -1.94325,-0.74816 -0.34974,-0.0634 -0.76936,-0.19779 -0.93249,-0.29861 -0.18206,-0.11253 -0.25057,-0.0445 -0.17738,0.17616 0.0655,0.19772 0.69203,0.49385 1.3921,0.6581 1.57546,0.36961 1.66102,0.38056 1.66102,0.21251 z M 55.136366,146.08701 c 0.189159,-0.30607 -0.06405,-0.30607 -0.776304,0 -0.498966,0.21441 -0.497192,0.22303 0.04942,0.24057 0.311825,0.0103 0.638924,-0.0983 0.726884,-0.24057 z m 66.821404,-0.15635 c -0.086,-0.086 -0.30917,-0.0952 -0.49597,-0.0204 -0.20643,0.0827 -0.14511,0.14392 0.15633,0.15633 0.27279,0.0113 0.42563,-0.0499 0.33964,-0.13591 z m -2.31888,-0.28732 c -0.38885,-0.059 -1.08752,-0.0603 -1.55261,-0.003 -0.4651,0.0576 -0.14696,0.1059 0.70697,0.10736 0.85393,9.8e-4 1.23448,-0.0457 0.84564,-0.10472 z m 18.49727,-0.24525 c -0.17791,-0.0718 -0.46903,-0.0718 -0.64693,0 -0.1779,0.0717 -0.0324,0.13051 0.32347,0.13051 0.35579,0 0.50136,-0.0586 0.32346,-0.13051 z m -3.1003,-0.25712 c -0.1752,-0.0709 -0.52452,-0.0753 -0.77631,-0.009 -0.25177,0.0656 -0.10841,0.1236 0.31855,0.12888 0.42696,0.005 0.63296,-0.0484 0.45776,-0.11929 z m -71.81839,-0.24538 c -0.08599,-0.086 -0.309174,-0.0952 -0.495972,-0.0204 -0.206427,0.0827 -0.14511,0.14393 0.156339,0.15635 0.272784,0.0113 0.42562,-0.05 0.339633,-0.13592 z m 82.07793,-0.26753 c 0.0592,-0.0515 -0.81405,-0.0855 -1.94076,-0.0754 -1.31101,0.0117 -1.86225,0.0934 -1.53105,0.22712 0.47139,0.1903 3.21618,0.0704 3.47181,-0.15165 z m -80.908084,-0.006 c -0.177903,-0.0718 -0.469016,-0.0718 -0.646918,0 -0.177904,0.0717 -0.03235,0.13052 0.323458,0.13052 0.355806,0 0.501363,-0.0588 0.32346,-0.13052 z m 4.402612,-0.26954 c -0.318268,-0.0614 -0.900496,-0.063 -1.293839,-0.004 -0.393343,0.0594 -0.132942,0.10974 0.578669,0.11167 0.711612,0.002 1.033438,-0.0468 0.71517,-0.10814 z m 76.365262,-0.52946 c -0.45773,-1.42443 -0.72134,-1.87726 -1.09877,-1.88743 -0.2318,-0.006 0.0238,-0.17017 0.56818,-0.36428 1.50535,-0.53682 1.44404,-0.65943 -0.32976,-0.65943 -1.49852,0 -1.61531,0.0406 -1.49057,0.51753 0.0744,0.28465 0.088,0.51754 0.0302,0.51754 -0.25113,0 -1.03595,-0.96044 -0.96474,-1.18063 0.0901,-0.27857 -3.50268,-2.56518 -3.70794,-2.3599 -0.0744,0.0744 0.65951,0.66866 1.63107,1.32042 1.66202,1.11498 1.72073,1.18684 0.99293,1.2157 -1.18676,0.0471 -1.44132,-0.0262 -2.43217,-0.69948 -0.50589,-0.34376 -1.09561,-0.62502 -1.31049,-0.62502 -0.21488,0 0.54922,0.55312 1.69802,1.22914 1.14879,0.67604 2.42699,1.50033 2.84048,1.83175 0.72629,0.58221 0.73436,0.61288 0.23811,0.9057 -0.43428,0.25625 -0.21374,0.32586 1.42711,0.45054 1.06742,0.081 1.96621,0.16843 1.99733,0.19408 0.0311,0.0256 -0.009,-0.15717 -0.0889,-0.40623 z M 25.507445,143.35719 c 0,-0.22725 -3.88624,-2.00954 -4.042033,-1.85376 -0.07755,0.0775 0.712857,0.55641 1.756446,1.06414 1.89587,0.92237 2.285587,1.05701 2.285587,0.78962 z m 112.596125,-1.22071 c -0.25556,-0.25366 -0.28528,-0.22394 -0.14486,0.14486 0.0972,0.2552 0.24187,0.39882 0.32155,0.31914 0.0797,-0.0797 1.6e-4,-0.28846 -0.17669,-0.464 z m -3.91363,-3.29498 c -0.21349,-0.13796 -0.50459,-0.25084 -0.64692,-0.25084 -0.14232,0 -0.0841,0.11288 0.12939,0.25084 0.21348,0.13798 0.50459,0.25084 0.64692,0.25084 0.14232,0 0.0841,-0.11286 -0.12939,-0.25084 z m -1.03506,-0.37288 c 0,-0.27312 -0.49662,-0.38786 -0.64432,-0.14887 -0.0894,0.14465 0.019,0.26299 0.24089,0.26299 0.22188,0 0.40343,-0.0513 0.40343,-0.11412 z m -1.29386,-0.24636 c 0,-0.0559 -0.1807,-0.17103 -0.40158,-0.2558 -0.23028,-0.0885 -0.33416,-0.045 -0.24349,0.10167 0.15196,0.24588 0.64507,0.36368 0.64507,0.1541 z m 4.3978,-0.9271 c 0.3317,-0.20969 0.31323,-0.29854 -0.12938,-0.62271 -0.54193,-0.3969 -2.8658,-0.31082 -3.3413,0.12378 -0.56374,0.51526 2.7022,0.98475 3.47068,0.49893 z M 20.520285,148.34649 c -0.0757,-0.19727 0.111671,-0.31873 0.491668,-0.31873 0.741829,0 0.753717,0.0364 0.122305,0.37431 -0.354897,0.18994 -0.525691,0.17447 -0.613973,-0.0555 z m -4.328483,-1.72668 c 0,-1.07503 0.384001,-1.1871 0.407566,-0.11895 0.01068,0.48399 -0.07666,0.87998 -0.194076,0.87998 -0.117419,0 -0.21349,-0.34247 -0.21349,-0.76103 z m -1.487915,0.32389 c 0.249065,-0.0651 0.656623,-0.0651 0.905688,0 0.249064,0.0651 0.04528,0.11834 -0.452844,0.11834 -0.498128,0 -0.701907,-0.0533 -0.452844,-0.11834 z m 164.867343,-0.23966 c -1.98127,-0.81686 -8.58081,-2.78389 -9.28317,-2.76691 -1.21524,0.0293 -1.79411,0.18212 -2.01831,0.53257 -0.11381,0.17791 -0.50652,0.32347 -0.87268,0.32347 -0.89532,0 -0.4863,-0.48407 1.06266,-1.25766 1.30377,-0.65114 0.83914,-0.71827 6.09799,0.88113 1.06742,0.32464 2.81411,0.79096 3.88152,1.03628 1.06743,0.24531 2.06793,0.54554 2.22335,0.66719 0.15541,0.12164 0.35919,0.14456 0.45284,0.051 0.0936,-0.0937 0.17026,-0.0624 0.17026,0.0694 0,0.55733 -0.89812,0.80019 -1.71446,0.46363 z m -8.63625,-0.35827 c 0.21348,-0.13795 0.50459,-0.25084 0.64692,-0.25084 0.14232,0 0.0841,0.11289 -0.12939,0.25084 -0.21348,0.13796 -0.50458,0.25085 -0.64691,0.25085 -0.14233,0 -0.0841,-0.11289 0.12938,-0.25085 z M 14.833271,146.17439 c 0.177903,-0.0717 0.469017,-0.0717 0.646919,0 0.177903,0.0717 0.03235,0.13052 -0.323459,0.13052 -0.355806,0 -0.501363,-0.0588 -0.32346,-0.13052 z m 158.171849,-0.60492 c 0.21349,-0.13796 0.56282,-0.24445 0.7763,-0.23663 0.25594,0.009 0.21187,0.09 -0.12938,0.23663 -0.71138,0.30569 -1.11994,0.30569 -0.64692,0 z M 30.165266,143.94683 c -1.352062,-0.58914 -2.57474,-1.21335 -2.717062,-1.38712 -0.142321,-0.17377 -0.840995,-0.37027 -1.552608,-0.43667 -0.711611,-0.0664 -2.16718,-0.47933 -3.234597,-0.91762 l -1.940759,-0.79691 1.164455,-0.0404 1.164456,-0.0404 -1.552607,-0.25865 c -0.853935,-0.14226 -1.591154,-0.292 -1.638266,-0.33277 -0.04711,-0.0408 0.03542,-0.30037 0.183401,-0.57687 0.235029,-0.43916 0.42587,-0.47694 1.508882,-0.29876 1.549995,0.255 2.992169,0.75467 3.24131,1.12302 0.108522,0.16044 0.191813,0.0341 0.194076,-0.29452 0.0023,-0.33299 -0.635703,-1.31879 -1.513762,-2.33899 -1.871687,-2.17468 -2.482266,-3.26521 -2.033518,-3.63197 0.357198,-0.29196 2.109735,-0.0678 4.329165,0.55369 0.781883,0.21895 2.700459,0.64582 4.263505,0.94861 1.563045,0.30279 2.929497,0.68828 3.03656,0.85663 0.129023,0.20289 0.195995,0.15068 0.198621,-0.15486 0.0022,-0.25353 -0.170705,-0.51554 -0.384189,-0.58223 -0.213483,-0.0667 -0.591931,-0.19797 -0.840995,-0.29173 -0.249064,-0.0938 -0.540178,-0.15198 -0.64692,-0.12938 -0.530689,0.11234 -0.06614,-0.23398 1.035072,-0.77163 1.050695,-0.513 1.62362,-0.59936 3.946209,-0.59482 4.834782,0.009 9.392406,0.33749 9.617566,0.69219 0.512419,0.80725 0.09127,0.94892 -3.417748,1.14969 -2.328231,0.13321 -2.867194,0.0905 -3.378132,-0.26731 l -0.60793,-0.42581 0.769189,-0.0308 c 0.486796,-0.0196 0.151677,-0.15759 -0.912802,-0.37607 -0.925095,-0.18989 -2.147772,-0.33414 -2.717063,-0.32059 l -1.035071,0.0247 1.022613,0.15735 1.022612,0.15735 -0.850447,0.71335 c -0.467746,0.39233 -0.957032,0.64747 -1.087304,0.56696 -0.130272,-0.0805 -0.236858,0.0351 -0.236858,0.25703 0,0.24314 -0.226188,0.40343 -0.569289,0.40343 -0.337638,0 -0.469258,0.0912 -0.32346,0.22418 0.139699,0.12741 1.977432,0.009 4.256732,-0.27243 3.393681,-0.42021 4.946688,-0.47093 10.091947,-0.3296 9.338389,0.25652 10.055557,0.51364 1.423222,0.51028 -6.39051,-0.003 -8.220545,0.0801 -10.350714,0.46718 -5.464462,0.993 -6.067571,1.19067 -8.207317,2.69004 -1.107707,0.77619 -2.014013,1.47629 -2.014013,1.55578 0,0.0795 0.320225,0.46714 0.711611,0.86148 0.391386,0.39435 0.920836,1.0183 1.176555,1.38657 0.255719,0.36828 0.89617,0.89734 1.423223,1.17568 1.607898,0.84914 0.579347,0.55541 -2.017551,-0.57615 z m -1.693767,-4.74236 c 0.410094,-0.4101 2.987607,-1.22655 2.987607,-0.94636 0,0.0803 0.236998,-0.0684 0.526661,-0.33055 0.289664,-0.26215 0.470874,-0.62201 0.402689,-0.79969 -0.06818,-0.17769 -0.04317,-0.36973 0.05557,-0.42677 0.09875,-0.057 0.0049,-0.0477 -0.208612,0.0206 -0.528429,0.16934 -0.719365,0.15929 -4.283671,-0.2255 -1.715568,-0.18521 -3.312516,-0.26256 -3.548774,-0.1719 -0.382173,0.14666 -0.389226,0.24258 -0.06393,0.86957 0.201093,0.38762 0.314644,0.78724 0.252333,0.88806 -0.266777,0.43166 0.707574,0.82089 1.716232,0.6856 0.579682,-0.0777 0.987137,-0.0745 0.905458,0.007 -0.173852,0.17386 0.331395,0.84305 0.636504,0.84305 0.11473,0 0.394604,-0.18601 0.621942,-0.41334 z m 0.270544,-1.13927 c 0.284645,-0.12231 0.692205,-0.22879 0.905688,-0.23661 0.345024,-0.0126 0.345024,0.0137 0,0.23661 -0.213483,0.13797 -0.621043,0.24445 -0.905688,0.23662 l -0.517536,-0.0141 z m 5.633126,-4.05125 c -0.175194,-0.0709 -0.524531,-0.0752 -0.776304,-0.009 -0.251772,0.0656 -0.108431,0.1236 0.318535,0.12887 0.426967,0.005 0.632963,-0.0484 0.457769,-0.11928 z m 132.419521,9.48024 c -0.86743,-0.57204 -3.89061,-1.34422 -6.08104,-1.5532 l -2.32891,-0.22221 2.58767,0.10827 c 2.27878,0.0954 3.62646,0.37198 6.21044,1.27492 l 0.51753,0.18084 -0.51753,-0.44001 c -0.50359,-0.42814 -0.49663,-0.43511 0.25823,-0.25885 1.02835,0.24012 1.08868,0.33445 0.49918,0.78043 -0.59706,0.45172 -0.6486,0.45755 -1.14557,0.12981 z m -40.82063,-1.20831 c 0.24907,-0.0651 0.65663,-0.0651 0.90569,0 0.24907,0.065 0.0453,0.11834 -0.45284,0.11834 -0.49813,0 -0.70191,-0.0533 -0.45285,-0.11834 z m -2.32891,-0.25877 c 0.24907,-0.0651 0.65663,-0.0651 0.90568,0 0.24908,0.065 0.0453,0.11834 -0.45283,0.11834 -0.49813,0 -0.70191,-0.0533 -0.45285,-0.11834 z m 33.6699,-1.17147 c -0.0689,-0.11151 -0.70067,-0.20276 -1.40388,-0.20276 -0.92563,0 -1.41882,-0.14026 -1.78666,-0.5081 -0.59867,-0.59866 -0.25689,-0.93638 0.52445,-0.51822 0.29952,0.16029 1.08793,0.34756 1.75202,0.41613 1.26061,0.13018 3.14821,0.56329 3.14821,0.72237 0,0.19635 -2.11576,0.28213 -2.23414,0.0905 z m -44.66753,-0.11537 c 0.1779,-0.0717 0.46902,-0.0717 0.64691,0 0.17791,0.0718 0.0324,0.13051 -0.32345,0.13051 -0.35581,0 -0.50136,-0.0587 -0.32346,-0.13051 z m -1.7952,-0.26415 c 0.1868,-0.0747 0.40998,-0.0656 0.49597,0.0204 0.086,0.086 -0.0668,0.14716 -0.33963,0.13592 -0.30145,-0.0124 -0.36276,-0.0737 -0.15634,-0.15633 z m 34.77788,-0.31543 c -0.46817,-0.23991 -0.77077,-0.51663 -0.67246,-0.61494 0.0984,-0.0984 -0.2173,-0.35067 -0.70139,-0.56076 -0.48408,-0.2101 -0.74971,-0.38656 -0.59028,-0.39212 0.15943,-0.006 1.26565,0.45244 2.45829,1.01781 1.93258,0.91616 2.06993,1.02569 1.26274,1.00707 -0.49813,-0.0115 -1.28873,-0.21717 -1.7569,-0.45706 z m 7.50985,-0.0253 c -0.17776,-0.28464 -0.23379,-0.51753 -0.12449,-0.51753 0.10929,0 0.34415,0.23289 0.52192,0.51753 0.17777,0.28465 0.23378,0.51755 0.12449,0.51755 -0.10929,0 -0.34416,-0.2329 -0.52192,-0.51755 z m -46.18542,-0.17137 c 0.1779,-0.0717 0.46901,-0.0717 0.64692,0 0.1779,0.0717 0.0324,0.13052 -0.32346,0.13052 -0.35582,0 -0.50136,-0.0588 -0.32346,-0.13052 z m -2.32891,-0.25877 c 0.1779,-0.0717 0.46901,-0.0717 0.64692,0 0.1779,0.0717 0.0324,0.13052 -0.32345,0.13052 -0.35582,0 -0.50136,-0.0587 -0.32347,-0.13052 z m -22.512806,-0.27001 c 0.320226,-0.0617 0.844231,-0.0617 1.164456,0 0.320225,0.0617 0.05822,0.11214 -0.582228,0.11214 -0.64045,0 -0.902452,-0.0505 -0.582228,-0.11214 z m 2.345084,0.006 c 0.186798,-0.0747 0.409986,-0.0655 0.495972,0.0204 0.08599,0.086 -0.06684,0.14714 -0.339633,0.13591 -0.30145,-0.0124 -0.362766,-0.0737 -0.156339,-0.15634 z m 14.668904,-0.0957 c -1.138579,-0.11002 -3.496185,-0.2393 -5.239125,-0.28726 -1.87751,-0.0516 -3.170973,-0.1927 -3.173869,-0.34601 -0.0027,-0.14233 -0.117766,-0.0841 -0.25573,0.12938 -0.217735,0.33693 -0.251366,0.33204 -0.254806,-0.0369 -0.0022,-0.23384 0.156313,-0.48667 0.352206,-0.56183 0.22005,-0.0844 0.309812,-0.37916 0.234875,-0.77117 -0.132865,-0.69504 -0.109269,-0.6898 -5.507632,-1.22457 -1.352062,-0.13394 -3.448082,-0.36135 -4.657821,-0.50535 -3.6222,-0.43119 -8.579335,-0.75355 -14.879153,-0.96756 -9.143426,-0.31062 -12.217641,-0.25485 -13.650004,0.24759 -0.676032,0.23713 -1.22871,0.34939 -1.228178,0.24946 0.0028,-0.51864 5.686735,-2.18656 6.702856,-1.96689 0.546411,0.11811 0.59896,0.0891 0.282907,-0.15643 -0.308953,-0.23996 -0.203354,-0.2707 0.517535,-0.15067 0.54677,0.091 0.768835,0.0626 0.560353,-0.0717 -0.259117,-0.16694 -0.194512,-0.26288 0.258769,-0.38425 0.876814,-0.23477 1.178674,-0.19775 0.733486,0.09 -0.213484,0.13796 -0.265685,0.25263 -0.116005,0.25479 0.211842,0.003 9.269262,-2.24516 11.889942,-2.95134 2.084751,-0.56176 7.240198,-1.70325 7.707201,-1.70648 0.470734,-0.003 0.503888,-0.051 0.185219,-0.26662 -0.286049,-0.19357 -0.19572,-0.21787 0.343396,-0.0923 0.402353,0.0937 0.984581,0.0394 1.29384,-0.1206 0.944287,-0.48852 9.301183,-1.59172 9.67945,-1.27778 0.205296,0.17038 0.327868,0.17642 0.327868,0.0161 0,-0.77325 12.518608,-1.36843 17.854978,-0.84888 1.77903,0.17319 3.99149,0.3721 4.91659,0.44201 0.9251,0.07 2.19896,0.3709 2.8308,0.66888 0.63186,0.29798 1.69758,0.54982 2.36829,0.55964 0.6707,0.0103 1.11514,0.0826 0.98763,0.16152 -0.12752,0.0791 0.61166,0.41395 1.64262,0.74433 1.61617,0.51788 7.21871,3.24374 8.13824,3.95956 0.17167,0.13365 0.42147,0.17541 0.55511,0.0928 0.13365,-0.0827 0.31439,0.0359 0.40167,0.26333 0.0933,0.24328 0.32312,0.35042 0.55809,0.26026 0.26048,-0.10002 0.33497,-0.049 0.21414,0.1465 -0.12347,0.19977 -0.0426,0.24506 0.24223,0.13573 0.26357,-0.10115 0.40388,-0.0437 0.3659,0.15011 -0.0341,0.17365 0.19198,0.30568 0.50538,0.29524 0.31184,-0.0103 0.54472,0.0914 0.51754,0.22641 -0.0271,0.13494 0.11233,0.30411 0.31005,0.37594 0.23082,0.0839 0.29059,0.0192 0.16702,-0.18078 -0.10585,-0.17128 0.29678,-0.0618 0.89474,0.24324 0.59797,0.30505 1.02133,0.62052 0.94082,0.70103 -0.0805,0.0805 -0.41203,-0.0255 -0.73669,-0.23571 -0.35248,-0.22818 -0.96193,-0.3374 -1.51274,-0.27111 -0.74797,0.09 -1.57054,-0.2144 -4.34874,-1.60929 -3.31246,-1.66313 -7.69849,-3.5005 -8.35613,-3.5005 -0.63994,0 0.20568,0.43295 2.50029,1.28011 2.40134,0.88657 6.84945,3.02729 7.76304,3.73605 1.04234,0.80866 -0.21345,0.40055 -2.93566,-0.95404 -3.54702,-1.765 -9.94707,-4.07465 -10.30344,-3.7183 -0.11667,0.11668 2.44626,0.95003 2.9218,0.95003 0.62348,0 3.67941,1.40685 3.5413,1.6303 -0.0912,0.14761 -0.0324,0.18136 0.13538,0.0776 0.30799,-0.19035 1.14097,0.15042 1.10029,0.45013 -0.0678,0.49947 0.006,0.68834 0.26727,0.68834 0.19487,0 0.17768,-0.14902 -0.0522,-0.45284 -0.2906,-0.38406 -0.28795,-0.40411 0.0175,-0.132 0.51916,0.46254 0.56448,1.10298 0.0644,0.91111 -0.26541,-0.10188 -0.3412,-0.0521 -0.21981,0.14433 0.12106,0.19587 0.046,0.24636 -0.2163,0.14567 -0.22089,-0.0847 -0.40161,-0.25443 -0.40161,-0.37706 0,-0.12263 -0.16895,-0.15812 -0.37549,-0.0789 -0.20651,0.0793 -0.75962,-0.1472 -1.22914,-0.5032 -0.90543,-0.68655 -3.27474,-1.82012 -4.99394,-2.38929 -0.56929,-0.18846 -1.73374,-0.64757 -2.58769,-1.02021 -1.45422,-0.6346 -1.48701,-0.66724 -0.51752,-0.51506 0.56928,0.0894 1.32619,0.22912 1.68198,0.31059 0.35581,0.0814 0.58214,0.0767 0.50296,-0.0106 -0.29965,-0.33053 -4.03499,-0.96997 -4.90201,-0.83915 -0.7143,0.10777 -0.79633,0.0827 -0.38815,-0.1187 0.37097,-0.18304 -0.0321,-0.2245 -1.42322,-0.14645 -1.10502,0.062 -1.55075,0.0316 -1.03507,-0.0706 0.83316,-0.16509 0.77313,-0.19432 -0.74958,-0.36499 -2.716,-0.3044 -7.73105,-0.21184 -11.825991,0.21828 -2.114408,0.2221 -3.896498,0.45594 -3.9602,0.51965 -0.109344,0.10934 1.031842,6.07307 1.482092,7.74527 0.235721,0.87546 0.08594,0.8383 8.325719,2.06612 2.20599,0.32872 3.68951,0.60966 3.29672,0.62431 -0.39279,0.0147 -3.87853,-0.44037 -7.746083,-1.01115 -7.137972,-1.05343 -7.646115,-1.05789 -7.264627,-0.0638 0.104244,0.27167 0.191452,0.28773 0.331523,0.061 0.145525,-0.23545 0.819337,-0.21381 2.875128,0.0923 1.476781,0.21993 3.674844,0.52882 4.884584,0.6864 1.209745,0.15759 2.839975,0.38377 3.622755,0.50261 l 1.42322,0.21611 -1.55261,-0.006 c -0.85394,-0.003 -2.48417,-0.096 -3.622749,-0.20598 z m -6.929617,-3.40918 c 1.423004,-0.33083 1.688884,-0.72546 1.042648,-1.54756 -0.388655,-0.49441 -1.651775,-0.93821 -1.369255,-0.48109 0.170476,0.27584 -0.464918,0.22619 -1.606576,-0.12553 -0.623417,-0.19205 -1.091957,0.20266 -1.352033,1.13901 -0.144308,0.51955 -0.263028,1.03196 -0.263823,1.13871 -0.0023,0.30019 2.030891,0.22942 3.549039,-0.12354 z m -3.805716,-0.41163 c 0.002,-0.23936 0.06909,-0.67939 0.149213,-0.97785 0.138095,-0.5144 0.02308,-0.55059 -2.210071,-0.69526 -1.917451,-0.12423 -2.619242,-0.062 -3.771963,0.33462 -0.873265,0.30045 -1.416213,0.38125 -1.416213,0.21074 0,-0.17589 -0.141238,-0.1593 -0.388151,0.0456 -0.468412,0.38874 -0.520895,-0.0149 -0.0647,-0.49746 0.26707,-0.28254 0.220695,-0.2893 -0.266015,-0.0387 -0.332677,0.17125 -0.51146,0.42966 -0.410394,0.59319 0.116014,0.18771 0.03036,0.23269 -0.243234,0.12771 -0.232272,-0.0891 -0.480774,-0.0675 -0.552225,0.0481 -0.07146,0.11562 1.111182,0.36333 2.628075,0.55047 1.516894,0.18715 2.56599,0.4077 2.331324,0.49011 -0.234664,0.0825 0.616769,0.17102 1.892075,0.19691 2.017445,0.041 2.319198,-0.009 2.322272,-0.38816 z m -15.374006,-1.14717 c 0.102379,-0.17789 0.09727,-0.24354 -0.01133,-0.14589 -0.108613,0.0977 -0.45244,0.0806 -0.764061,-0.0379 -0.366447,-0.13933 -0.791225,-0.091 -1.20254,0.13673 -0.610128,0.33785 -0.586658,0.35252 0.577918,0.36132 0.708162,0.005 1.291425,-0.1256 1.400019,-0.3143 z m -9.147782,-1.41176 c -0.320226,-0.0617 -0.844231,-0.0617 -1.164456,0 -0.320226,0.0617 -0.05822,0.11214 0.582229,0.11214 0.640449,0 0.902452,-0.0505 0.582227,-0.11214 z m 24.369548,-2.49886 c 0.843307,-0.16928 1.575407,-0.43416 1.626889,-0.58861 0.125679,-0.37703 -4.485243,0.34796 -5.359701,0.84274 -0.600463,0.33975 -0.544717,0.3548 0.776304,0.20986 0.782772,-0.0859 2.113201,-0.29469 2.956508,-0.46399 z m 16.257011,-3.45738 c -0.46255,-0.0574 -1.21945,-0.0574 -1.682,0 -0.46254,0.0574 -0.0841,0.10437 0.841,0.10437 0.92509,0 1.30355,-0.047 0.841,-0.10437 z m 8.79809,0.0158 c -0.17789,-0.0718 -0.46901,-0.0718 -0.64691,0 -0.1779,0.0717 -0.0324,0.13053 0.32346,0.13053 0.3558,0 0.50136,-0.0588 0.32345,-0.13053 z m -12.28683,-0.53105 c -0.38884,-0.059 -1.087508,-0.0603 -1.552604,-0.003 -0.465096,0.0576 -0.146957,0.1059 0.706974,0.10736 0.85394,9.8e-4 1.23447,-0.0456 0.84563,-0.10472 z m 7.37025,-0.002 c -0.46255,-0.0574 -1.21944,-0.0574 -1.68199,0 -0.46256,0.0574 -0.0841,0.10437 0.84099,0.10437 0.92509,0 1.30355,-0.047 0.841,-0.10437 z m -28.07631,12.69544 c 0.177903,-0.0717 0.469016,-0.0717 0.646918,0 0.177904,0.0718 0.03235,0.13052 -0.323458,0.13052 -0.355806,0 -0.501363,-0.0588 -0.32346,-0.13052 z m -4.264745,-0.52548 c 0.251773,-0.0657 0.601109,-0.0613 0.776304,0.009 0.175194,0.0709 -0.0308,0.12457 -0.457769,0.11928 -0.426967,-0.005 -0.570307,-0.0633 -0.318535,-0.12887 z m -4.533362,-0.50998 c 0.177902,-0.0717 0.469016,-0.0717 0.646919,0 0.177903,0.0717 0.03234,0.13051 -0.32346,0.13051 -0.355805,0 -0.501362,-0.0588 -0.323459,-0.13051 z m -1.935834,-0.26672 c 0.251772,-0.0656 0.601109,-0.0613 0.776303,0.009 0.175194,0.0709 -0.0308,0.12457 -0.457769,0.11928 -0.426967,-0.005 -0.570308,-0.0633 -0.318534,-0.12887 z m -1.811375,-0.25876 c 0.251772,-0.0657 0.601108,-0.0613 0.776304,0.009 0.175193,0.0709 -0.0308,0.12456 -0.45777,0.11928 -0.426967,-0.005 -0.570307,-0.0633 -0.318534,-0.12887 z m -3.692368,-0.33822 c -0.880503,-0.18534 -0.8841,-0.19095 -0.129384,-0.20203 0.426968,-0.006 1.358532,0.0793 2.070144,0.19013 l 1.293838,0.20152 -1.164455,5e-4 c -0.640449,2.9e-4 -1.572014,-0.0853 -2.070143,-0.19012 z m 60.086434,-0.22645 c -0.14509,-0.0897 -0.20608,-0.46486 -0.13555,-0.8338 0.17332,-0.90662 1.24772,-0.76963 1.24772,0.1591 0,0.61883 -0.60688,0.98699 -1.11217,0.6747 z m 0.38325,-0.85714 c -0.0827,-0.20642 -0.14393,-0.1451 -0.15636,0.15634 -0.0112,0.27279 0.05,0.42562 0.13592,0.33964 0.086,-0.086 0.0952,-0.30917 0.0204,-0.49598 z m -63.768974,0.63948 c 0.391386,-0.0592 1.031836,-0.0592 1.423223,0 0.391387,0.0593 0.07116,0.1078 -0.711612,0.1078 -0.782772,0 -1.102997,-0.0485 -0.711611,-0.1078 z m 14.102848,0.0139 c 0.177903,-0.0717 0.469017,-0.0717 0.64692,0 0.177903,0.0718 0.03234,0.13051 -0.32346,0.13051 -0.355805,0 -0.501362,-0.0588 -0.32346,-0.13051 z m -16.686968,-0.2731 c 0.393343,-0.0595 0.97557,-0.0579 1.293838,0.004 0.318269,0.0614 -0.0035,0.11009 -0.715169,0.10815 -0.711611,-0.002 -0.972012,-0.0522 -0.578669,-0.11168 z m -0.327018,-0.8586 c -0.925096,-0.10398 -2.555333,-0.21087 -3.62275,-0.23754 l -1.940759,-0.0485 1.035071,-0.39263 c 1.528196,-0.57969 5.843561,-0.3128 6.773825,0.41894 l 0.670853,0.5277 -0.617124,-0.0394 c -0.339419,-0.0217 -1.374021,-0.12455 -2.299116,-0.22853 z m -10.658002,-1.20262 c 0.186798,-0.0747 0.409986,-0.0656 0.495972,0.0204 0.08599,0.086 -0.06684,0.14715 -0.339633,0.13591 -0.30145,-0.0124 -0.362765,-0.0737 -0.156339,-0.15633 z m -26.977124,-1.1936 c -0.260477,-0.91001 -0.09667,-1.07383 0.813346,-0.81335 0.658459,0.18848 0.672635,0.21603 0.157347,0.30576 -0.33731,0.0587 -0.606195,0.32762 -0.664936,0.66493 -0.08974,0.5153 -0.117284,0.50111 -0.305757,-0.15734 z m 76.903148,-1.3953 c -0.249063,-0.065 -0.452843,-0.22624 -0.452843,-0.35813 0,-0.13189 -0.291114,-0.23979 -0.646919,-0.23979 -0.355806,0 -0.64692,0.12103 -0.64692,0.26896 0,0.15521 -0.152695,0.12784 -0.360992,-0.0646 -0.198545,-0.18352 -0.308118,-0.421 -0.243496,-0.52774 0.06461,-0.10674 -0.0022,-0.19408 -0.148423,-0.19408 -0.146255,0 -0.198891,-0.17466 -0.116971,-0.38816 0.08192,-0.21348 0.01194,-0.38814 -0.155502,-0.38814 -0.49143,0 -0.184607,-1.15048 0.333151,-1.24921 0.381671,-0.0728 0.456102,0.0508 0.388152,0.64427 -0.04624,0.40388 0.08737,0.9381 0.296898,1.18716 0.468064,0.55638 0.820426,0.59144 0.617032,0.0614 -0.08261,-0.2153 0.0084,-0.58698 0.202196,-0.82597 0.236711,-0.29187 0.247189,-0.37134 0.03191,-0.24203 -0.217455,0.1306 -0.271134,0.0639 -0.166961,-0.20762 0.08444,-0.22006 0.286889,-0.32547 0.449879,-0.23425 0.200101,0.112 0.212305,0.0776 0.03758,-0.10575 -0.142323,-0.14938 -0.49166,-0.32763 -0.776304,-0.39609 -0.284645,-0.0684 -0.05175,-0.13958 0.517535,-0.15804 0.56929,-0.0185 1.326186,-0.0935 1.681992,-0.1667 l 0.646919,-0.13315 -0.646919,0.28287 c -0.583784,0.25527 -0.602725,0.30774 -0.194077,0.5377 0.624646,0.3515 0.599129,3.15861 -0.02768,3.04552 -0.09151,-0.0165 -0.370171,-0.0832 -0.619235,-0.14835 z M 62.203963,131.678 c 0.186798,-0.0747 0.409984,-0.0655 0.495971,0.0204 0.08599,0.086 -0.06684,0.14715 -0.339633,0.13591 -0.30145,-0.0124 -0.362766,-0.0737 -0.156338,-0.15634 z m 1.811374,-0.51753 c 0.186798,-0.0747 0.409986,-0.0655 0.495971,0.0204 0.08599,0.086 -0.06685,0.14716 -0.339631,0.13591 -0.30145,-0.0124 -0.362767,-0.0737 -0.15634,-0.15633 z m -38.852915,-2.32465 c -0.09488,-0.0949 -0.172512,-0.29284 -0.172512,-0.43991 0,-0.16214 0.120526,-0.14687 0.306208,0.0388 0.168415,0.16842 0.246045,0.36637 0.172512,0.4399 -0.07354,0.0735 -0.211327,0.056 -0.306208,-0.0388 z m 75.973488,-0.78948 c 0.39334,-0.0594 0.97558,-0.0579 1.29384,0.004 0.31827,0.0614 -0.004,0.11009 -0.71517,0.10814 -0.71161,-0.002 -0.97201,-0.0522 -0.57867,-0.11167 z m 4.65426,3.4e-4 c 0.39138,-0.0593 1.03184,-0.0593 1.42322,0 0.39138,0.0592 0.0712,0.1078 -0.7116,0.1078 -0.78278,0 -1.10301,-0.0485 -0.71162,-0.1078 z"
       id="path1" /></g></svg>
