<?xml version="1.0" encoding="UTF-8" standalone="no"?>
<!-- Created with Inkscape (http://www.inkscape.org/) -->

<svg
   width="210mm"
   height="297mm"
   viewBox="0 0 210 297"
   version="1.1"
   id="svg1"
   xml:space="preserve"
   inkscape:version="1.4.4 (dcaf3e7, 2026-05-05)"
   sodipodi:docname="mercedes.svg"
   xmlns:inkscape="http://www.inkscape.org/namespaces/inkscape"
   xmlns:sodipodi="http://sodipodi.sourceforge.net/DTD/sodipodi-0.dtd"
   xmlns="http://www.w3.org/2000/svg"
   xmlns:svg="http://www.w3.org/2000/svg"><sodipodi:namedview
     id="namedview1"
     pagecolor="#ffffff"
     bordercolor="#000000"
     borderopacity="0.25"
     inkscape:showpageshadow="2"
     inkscape:pageopacity="0.0"
     inkscape:pagecheckerboard="0"
     inkscape:deskcolor="#d1d1d1"
     inkscape:document-units="mm"
     inkscape:zoom="0.68862935"
     inkscape:cx="397.16576"
     inkscape:cy="559.80768"
     inkscape:window-width="1920"
     inkscape:window-height="991"
     inkscape:window-x="-9"
     inkscape:window-y="-9"
     inkscape:window-maximized="1"
     inkscape:current-layer="layer1" /><defs
     id="defs1" /><g
     inkscape:label="Layer 1"
     inkscape:groupmode="layer"
     id="layer1"><path
       style="fill:#000000;stroke-width:1.20161"
       d="M 46.747483,203.69149 C 41.13187,202.55306 33.37044,198.0963 30.912077,194.59847 l -0.917462,-1.30539 0.01275,-1.64635 0.01275,-1.64632 1.020805,-2.21467 c 1.180736,-2.56164 1.228546,-2.40791 -0.825663,-2.65484 -0.874301,-0.10515 -2.54947,-0.38136 -3.7226,-0.61394 l -2.132962,-0.42285 -1.269674,-0.87989 c -0.698321,-0.48394 -1.5029,-1.23583 -1.787955,-1.67088 l -0.51828,-0.79101 -0.05317,-1.92491 -0.05317,-1.92494 0.441663,-0.15387 c 0.252483,-0.088 0.35343,-0.0108 0.235672,0.17942 -0.118515,0.19175 0.196946,0.4218 0.742807,0.54169 1.066409,0.23421 1.719802,-0.0238 1.394236,-0.55057 l -0.216304,-0.35 0.555049,0.213 c 0.305276,0.11716 0.623323,0.21299 0.706771,0.21299 0.08345,0 0.06251,0.14435 -0.04653,0.32078 -0.325953,0.52739 0.119801,1.44831 0.716896,1.48105 6.355409,0.34862 7.318776,0.50924 6.42902,1.07195 l -0.467683,0.29576 0.556372,0.005 c 0.306005,0.002 0.556372,-0.1382 0.556372,-0.31306 0,-0.60187 0.0972,-0.79578 0.573395,-1.14399 l 0.477531,-0.34918 -0.256658,-0.41528 -0.256659,-0.41528 0.367051,0.22684 c 0.327758,0.20257 0.509948,-0.17736 0.404699,-0.84392 -0.0207,-0.13117 0.08246,-0.23846 0.229246,-0.23846 0.146792,0 0.440247,-0.38047 0.652124,-0.84548 l 0.385226,-0.84549 -0.413676,-0.26726 -0.413678,-0.26727 0.317927,-0.23844 c 0.356141,-0.2671 0.486974,-1.66912 0.155758,-1.66912 -0.334041,0 -0.979234,1.60399 -0.776888,1.93139 0.09997,0.16176 -0.148579,0.3063 -0.552334,0.3212 -1.519053,0.0561 -4.309176,-0.0408 -6.536273,-0.22702 l -2.304973,-0.19271 v -0.59851 c 0,-0.32916 -0.15385,-0.59849 -0.341889,-0.59849 -0.188038,0 -0.315947,-0.39343 -0.28424,-0.8743 0.03171,-0.48087 0.04249,-1.40191 0.02396,-2.04677 l -0.03369,-1.17246 -0.556373,0.01 c -0.90621,0.0148 -3.66195,-0.35389 -4.689428,-0.62747 l -0.953781,-0.25398 -1.038155,-1.57063 c -1.365538,-2.06596 -2.207442,-4.36914 -2.481025,-6.7873 l -0.222335,-1.96516 0.347428,0.0937 0.347427,0.0937 0.141751,-4.13306 c 0.214016,-6.24009 1.389873,-11.92226 2.467168,-11.92226 0.389992,0 0.349556,0.23212 -0.181943,1.04444 -0.253396,0.38729 -0.692358,1.56256 -0.975474,2.61171 l -0.514753,1.90756 -0.13793,4.76892 c -0.07586,2.62291 -0.05418,4.59009 0.04818,4.3715 l 0.186116,-0.39741 h 3.595656 3.595655 l 0.173935,-0.45326 c 0.09566,-0.2493 0.20257,-2.52229 0.237567,-5.05108 0.03501,-2.52879 0.226602,-5.07887 0.425782,-5.66684 0.39625,-1.16967 0.307957,-2.29557 -0.15746,-2.00793 -0.161627,0.0998 -0.302935,0.49507 -0.314019,0.87819 l -0.02015,0.69657 -0.295087,-0.73576 c -0.162297,-0.40467 -0.440643,-0.64579 -0.618547,-0.53584 -0.177904,0.10994 -0.641733,0.0988 -1.030732,-0.0247 l -0.70727,-0.22446 0.730541,-0.27024 c 1.003341,-0.37118 0.56567,-0.91148 -0.738323,-0.91148 H 19.28961 l -0.201813,0.63585 c -0.110993,0.34971 -0.331699,0.63586 -0.490446,0.63586 -0.167326,0 -0.158321,-0.34275 0.02143,-0.81552 0.436022,-1.14682 0.386806,-1.31032 -0.179542,-0.59644 l -0.4896,0.61713 0.09618,-0.63585 0.09618,-0.63585 1.585656,-0.0631 c 0.872111,-0.0347 2.589884,-0.12849 3.817273,-0.20839 1.227391,-0.0799 2.59385,-0.0761 3.036578,0.009 l 0.804961,0.15388 -0.717022,3.71068 c -1.122011,5.80651 -1.41164,7.0489 -1.643289,7.04892 -0.118599,2e-5 -0.245624,0.67958 -0.282268,1.51015 -0.03663,0.83057 -0.202801,4.22841 -0.369243,7.55075 l -0.302619,6.04063 0.318835,2.22547 c 0.17536,1.22404 0.38645,2.70476 0.469089,3.29052 l 0.150252,1.06502 0.615492,-0.16095 c 0.33852,-0.0886 0.615491,-0.0606 0.615491,0.0622 0,0.24341 5.29373,0.12816 5.996535,-0.13056 l 0.432808,-0.15932 -0.194578,0.50705 -0.194579,0.50707 0.382635,-0.12755 c 0.210449,-0.0702 0.733498,-0.75834 1.162331,-1.52931 0.428835,-0.77097 0.972082,-1.59415 1.207219,-1.8293 0.235137,-0.23513 0.427522,-0.57058 0.427522,-0.74544 0,-0.17486 0.178833,-0.51283 0.397408,-0.75104 0.218576,-0.23821 0.826611,-1.02799 1.351191,-1.75509 0.891819,-1.23612 1.963057,-2.10888 2.243822,-1.82812 0.06756,0.0675 -0.440724,0.68718 -1.129517,1.37695 -0.688794,0.68976 -1.257058,1.36705 -1.26281,1.5051 -0.0058,0.13805 -0.507164,0.98856 -1.114249,1.89002 -1.126082,1.67214 -1.242371,2.27494 -0.285701,1.48098 0.29339,-0.24349 0.576442,-0.37118 0.629001,-0.28376 0.05255,0.0875 0.877923,-0.78952 1.834138,-1.94878 l 1.738575,-2.10776 1.51187,-0.51515 1.51187,-0.51514 h 7.356954 7.356951 l 1.726823,0.50485 1.726824,0.50486 1.604187,1.6809 c 1.501986,1.57381 3.255735,4.01968 5.421418,7.56098 0.507418,0.82972 1.330671,1.70639 1.829452,1.94815 0.500633,0.24266 0.758617,0.53119 0.575914,0.6441 -0.843168,0.52111 0.04405,2.04299 1.326604,2.27556 1.382936,0.25077 -4.954535,-10.2242 -8.293639,-13.70825 -0.393435,-0.41051 -0.715337,-0.95727 -0.715337,-1.21502 0,-0.25774 -0.22482,-0.69345 -0.499599,-0.96824 -0.618429,-0.61842 -0.36709,-0.63609 0.753834,-0.053 0.923445,0.48035 1.344216,0.93421 3.577109,3.85824 1.33512,1.74839 4.752694,6.99183 4.752694,7.29186 0,0.0716 0.302559,0.64306 0.672354,1.26983 l 0.672354,1.13956 0.519875,-0.40606 0.519872,-0.40603 -0.402895,0.51607 c -0.420518,0.53864 -0.22689,1.55045 0.296709,1.55045 0.166472,0 0.214256,0.14307 0.106189,0.31792 -0.340112,0.55032 0.22805,0.34471 0.658885,-0.23845 l 0.411055,-0.55637 0.418812,0.44406 0.418813,0.44404 -0.39741,-0.22436 c -0.218574,-0.12341 -0.397408,-0.0716 -0.397408,0.11511 v 0.33948 l 29.96466,-0.0616 c 16.48055,-0.0339 30.32231,-0.16587 30.75946,-0.29337 0.43715,-0.12753 -7.03138,-0.24416 -16.59674,-0.2592 l -17.39156,-0.0273 -0.79658,-0.36296 -0.79659,-0.36294 -0.337329,-1.62493 -0.337343,-1.62493 0.0857,-22.93616 0.0857,-22.93616 0.589422,-0.65118 c 0.32418,-0.35816 0.96798,-0.70594 1.43067,-0.77284 0.46269,-0.0669 -0.73249,-0.11944 -2.655953,-0.11679 -1.923454,0.002 -3.19024,0.0573 -2.815058,0.12149 0.375171,0.0642 0.947012,0.40928 1.270761,0.76701 l 0.588629,0.65043 -0.05215,23.48899 -0.05215,23.48901 -0.353531,1.0712 c -0.201468,0.61044 -0.689742,1.22437 -1.135218,1.42734 l -0.781686,0.35616 -9.572633,0.0265 -9.572625,0.0266 -1.250716,-0.6188 c -0.700147,-0.34641 -1.099618,-0.43675 -0.907469,-0.20522 l 0.343249,0.41359 -0.333365,0.20604 c -0.311979,0.19281 -0.476272,-0.42811 -0.35612,-1.34591 0.02893,-0.22091 -0.167908,-0.48627 -0.437396,-0.58968 -0.269489,-0.10345 -0.410824,-0.3161 -0.314079,-0.47264 0.09674,-0.15655 5.45e-4,-0.28461 -0.213776,-0.28461 -0.214324,0 -0.312708,-0.077 -0.218633,-0.17105 0.09407,-0.094 -0.561649,-1.30362 -1.457167,-2.68786 -0.895516,-1.38423 -2.34355,-3.67497 -3.21785,-5.09052 -0.8743,-1.41554 -2.146835,-3.43955 -2.827854,-4.4978 l -1.238219,-1.92408 -0.151726,-2.90854 c -0.194984,-3.7378 0.39755,-14.26065 1.237912,-21.98417 l 0.657251,-6.04063 0.525464,-1.11274 0.525463,-1.11275 1.112746,-0.56745 1.112745,-0.56746 -17.002553,0.12511 -17.002553,0.1251 -1.755159,-0.38287 c -2.621027,-0.57177 -2.646197,-0.58229 -3.298507,-1.378 l -0.605002,-0.73801 0.355655,-0.35566 0.355654,-0.35565 1.195411,0.60815 1.195411,0.60816 46.66397,0.21321 c 52.131587,0.23818 49.077087,0.11607 48.889047,1.95464 -0.0316,0.30854 1.33299,2.81221 3.03236,5.56373 1.69935,2.7515 4.01762,6.50496 5.15171,8.34099 l 2.062,3.33822 1.22758,0.87129 1.2276,0.87128 v 1.11577 1.11577 h 0.64372 0.64372 l 0.33796,0.87429 c 0.18589,0.48087 0.41567,1.33928 0.51063,1.90756 l 0.17265,1.03326 0.51478,0.005 c 2.97907,0.0307 20.97558,1.11051 29.44615,1.76691 7.19803,0.55778 7.22152,0.56046 10.62457,1.20621 1.47201,0.27933 2.83115,0.39124 3.02031,0.24868 0.38902,-0.29318 3.2124,0.20999 2.90473,0.51765 -0.10935,0.10936 -0.71197,0.16427 -1.33917,0.12203 l -1.14034,-0.0768 0.16423,0.42799 0.16423,0.42798 -3.49939,-0.56513 c -1.92467,-0.31081 -3.68629,-0.72023 -3.91473,-0.90982 -0.90858,-0.75405 -36.71188,-3.02916 -36.70982,-2.3327 4.6e-4,0.15095 0.51917,1.13285 1.15272,2.18201 0.63354,1.04916 2.22694,3.76744 3.54086,6.04062 1.31394,2.27318 2.51202,4.18074 2.66242,4.23903 0.15039,0.0582 0.27344,0.32465 0.27344,0.59191 v 0.48596 l 1.44764,-1.46841 c 1.23556,-1.25331 3.47234,-2.73575 4.12781,-2.73575 0.10779,0 -0.24415,0.37039 -0.78215,0.82309 -0.53799,0.4527 -0.97817,0.95324 -0.97817,1.11232 0,0.23391 -2.58139,3.82525 -3.17928,4.42314 -0.23128,0.2313 -2.24233,3.32446 -3.75654,5.77793 l -1.30951,2.12177 0.84112,-0.43638 c 0.4626,-0.24002 0.9332,-0.37946 1.04577,-0.30988 0.11259,0.0696 0.76426,-0.83193 1.44819,-2.00332 0.68395,-1.1714 1.42591,-2.34441 1.64883,-2.6067 0.22289,-0.2623 0.37114,-0.54842 0.3294,-0.63585 -0.0921,-0.19302 1.31459,-1.86379 3.25287,-3.86349 l 1.4336,-1.479 1.90464,-0.56664 1.90464,-0.56662 7.47128,0.002 7.4713,0.002 1.8081,0.55014 1.80808,0.55014 1.13274,1.1662 c 0.623,0.64142 1.13274,1.28052 1.13274,1.42024 0,0.13972 0.37236,0.84391 0.82746,1.56484 l 0.82748,1.3108 0.24679,-0.39931 0.24678,-0.39932 0.15393,0.43339 c 0.0847,0.23837 0.25818,0.3368 0.38559,0.21875 0.24403,-0.22609 -1.55662,-3.50038 -2.90941,-5.29049 -0.84016,-1.11176 -0.78761,-1.71784 0.086,-0.99274 0.50041,0.4153 2.83321,3.85712 3.59606,5.30564 0.2072,0.39342 0.52441,0.71532 0.70489,0.71532 h 0.32817 l -0.22242,-0.71532 c -0.12232,-0.39343 -0.34656,-0.76303 -0.49831,-0.82131 -0.15175,-0.0582 -0.27589,-0.31315 -0.27589,-0.56636 0,-0.2532 -0.21991,-0.54475 -0.48865,-0.64788 -0.58344,-0.22389 -1.55432,-1.9886 -1.25742,-2.28552 0.18624,-0.18622 0.94229,0.60692 1.17821,1.23603 0.05,0.13339 0.44863,0.29193 0.88577,0.35232 l 0.79482,0.10983 -0.0794,-0.39741 c -0.0437,-0.21857 0.0636,-0.39741 0.23845,-0.39741 0.17486,0 0.32954,0.17884 0.34375,0.39741 0.0142,0.21858 0.22144,-0.0318 0.46054,-0.55637 l 0.4347,-0.95378 -0.004,-3.60878 c -0.002,-1.98482 0.0764,-3.68971 0.17533,-3.78863 0.0988,-0.0988 0.17986,1.98999 0.17986,4.64203 v 4.8219 h 0.31792 c 0.17486,0 0.31793,-0.15151 0.31793,-0.33669 0,-0.18518 0.14307,-0.24826 0.31794,-0.14019 0.17485,0.10802 0.31791,-0.10923 0.31791,-0.48285 v -0.67933 l 1.04066,1.36438 1.04065,1.36437 1.01522,0.20765 c 1.13549,0.23223 1.35446,0.12031 1.35446,-0.69228 v -0.56067 l 1.03116,0.29573 c 0.56714,0.16267 1.45289,0.29574 1.96834,0.29574 h 0.93716 l -0.61714,0.45548 -0.61714,0.45549 0.40535,0.41085 0.40534,0.41086 0.60381,-0.37709 0.6038,-0.3771 0.65997,1.11857 c 0.82445,1.39733 0.84108,1.30983 -0.29659,1.55971 -1.11043,0.24389 -0.96937,0.79421 0.20357,0.79421 h 0.79914 l -0.6007,0.76366 -0.60069,0.76364 -0.0731,1.60167 -0.0731,1.60168 0.65195,0.34891 0.65195,0.34892 -0.11608,1.5662 c -0.0638,0.86141 -0.34083,1.90925 -0.61555,2.32851 l -0.49948,0.76233 -1.37275,0.20302 c -0.75501,0.11164 -3.12532,0.59636 -5.26735,1.07708 l -3.89461,0.87402 v 0.39769 c 0,0.57115 -0.95925,0.48783 -2.06653,-0.17949 l -0.95378,-0.5748 -0.79482,0.19286 -0.79482,0.19285 -0.23605,1.88606 c -0.1298,1.03735 -0.28053,2.0196 -0.33494,2.18278 -0.0544,0.16319 0.5168,0.86423 1.26931,1.55787 l 1.36821,1.26116 v 0.90223 0.90223 l -1.00699,1.1469 -1.00701,1.14689 -4.15932,2.04157 c -2.28762,1.12285 -5.30386,2.34432 -6.70275,2.71437 l -2.5434,0.67282 -3.49722,0.009 -3.4972,0.009 -2.86134,-0.54989 c -1.57373,-0.30242 -4.0224,-0.82351 -5.44148,-1.15796 -7.18129,-1.69248 -16.02889,-2.17792 -39.86315,-2.18714 l -16.055342,-0.006 -10.491606,0.47601 c -5.77038,0.26182 -12.566077,0.69128 -15.101548,0.95438 -4.230481,0.43899 -6.069492,0.76855 -14.942584,2.67781 l -3.020309,0.6499 -3.338238,-0.0298 c -1.836031,-0.0165 -3.910506,-0.14587 -4.609947,-0.28765 z M 142.9205,184.94332 V 184.6254 H 108.74332 74.566125 v 0.31792 0.31793 h 34.177195 34.17718 z m -4.9973,-4.34888 c -0.0383,-0.19784 0.14808,-0.44317 0.41392,-0.54519 0.275,-0.10548 0.39962,-0.05 0.28911,0.12882 -0.10687,0.17285 0.0289,0.31428 0.30141,0.31428 0.27262,0 0.49566,-0.13498 0.49566,-0.29996 0,-0.16498 0.4292,-0.55349 0.95378,-0.86336 0.52457,-0.30989 0.95378,-0.69592 0.95378,-0.85786 0,-0.16194 0.4292,-0.70462 0.95378,-1.20593 0.52459,-0.50131 0.95628,-1.01754 0.95931,-1.14716 0.009,-0.36241 3.80932,-4.39225 3.81171,-4.04137 0.001,0.16967 0.25464,-0.0745 0.56331,-0.54249 0.30867,-0.46803 0.96983,-1.17237 1.46923,-1.5652 l 0.908,-0.71422 -0.39846,0.77037 c -0.21917,0.42371 -0.71383,1.19959 -1.09923,1.72417 -0.38542,0.52459 -1.20985,1.88372 -1.83206,3.02031 -0.62222,1.13658 -1.60232,2.92493 -2.17799,3.97409 -0.57569,1.04915 -1.19974,2.02576 -1.38682,2.17021 l -0.3401,0.26266 0.47689,-0.12614 c 0.4485,-0.1186 0.69991,-0.49755 2.44668,-3.6876 1.06198,-1.93945 1.3935,-2.48668 3.16621,-5.2264 l 1.63878,-2.53276 -0.30353,-0.87073 c -0.16695,-0.47889 -1.31888,-2.64286 -2.55983,-4.80884 -1.24097,-2.16596 -2.91483,-5.11438 -3.71971,-6.55203 -0.80488,-1.43764 -1.63209,-2.61795 -1.83824,-2.62289 -0.20615,-0.004 -1.04361,-1.08199 -1.86099,-2.39345 -1.55806,-2.4998 -1.76144,-2.73977 -1.54928,-1.82808 0.46537,1.99982 0.59514,9.05675 0.29933,16.27939 -0.0676,1.65327 0.007,3.25034 0.16757,3.54903 0.15986,0.29871 0.31653,1.22704 0.34814,2.06296 l 0.0575,1.51984 -0.37181,0.12394 -0.37178,0.12394 v 2.05581 2.05583 l -0.48506,0.93799 c -0.26678,0.5159 -0.66021,0.94018 -0.87431,0.94287 l -0.38924,0.005 0.47689,0.34063 0.4769,0.34064 -0.71534,-0.15678 c -0.39344,-0.0862 -0.71534,-0.0172 -0.71534,0.1535 0,0.17066 0.3219,0.26117 0.71534,0.20113 0.39344,-0.0601 0.68409,-0.27101 0.6459,-0.46884 z m -42.732573,-0.71619 c 1.68949,-0.32634 1.854197,-0.56902 2.129239,-3.13736 l 0.216662,-2.0232 -0.394214,-0.7366 -0.394214,-0.7366 0.223267,-1.38342 c 0.122795,-0.76089 0.284371,-10.35132 0.359057,-21.31208 l 0.1358,-19.92865 -0.711264,-0.49818 -0.711263,-0.49818 H 82.464264 c -16.685572,0 -15.907817,-0.22661 -16.479232,4.8014 -1.397547,12.29733 -2.096284,22.87879 -1.754396,26.56798 l 0.211206,2.27905 4.552409,7.09981 c 2.503823,3.90489 4.998366,7.58763 5.543426,8.18384 l 0.991021,1.08403 1.187831,0.2306 c 1.676009,0.32537 16.796695,0.33157 18.474098,0.007 z M 70.611721,150.92576 c -0.719275,-0.13668 -1.51091,-0.55764 -1.860439,-0.98929 l -0.608416,-0.75136 0.226904,-4.77321 c 0.124797,-2.62527 0.33028,-6.24848 0.456626,-8.05161 l 0.229721,-3.27839 0.800112,-0.80011 0.800111,-0.8001 2.511265,-0.32388 c 1.427292,-0.18407 6.147901,-0.26329 10.93634,-0.18354 l 8.425079,0.14033 0.998786,0.51674 0.998798,0.51672 0.354728,1.01759 0.354729,1.01756 -0.206724,7.17872 c -0.225576,7.83353 -0.307656,8.30365 -1.597461,9.14913 l -0.874132,0.57301 -10.347001,0.0397 c -5.690853,0.0219 -10.910414,-0.0673 -11.599026,-0.19812 z m 65.950229,28.85189 c 0.43715,-0.0869 0.91056,-0.17619 1.05203,-0.19852 0.14146,-0.0223 0.17635,-0.17142 0.0775,-0.33135 -0.0987,-0.15992 -0.007,-0.34819 0.20312,-0.41838 l 0.38283,-0.1276 -0.044,-2.52245 c -0.06,-3.43971 -0.0621,-2.85263 0.0529,-14.51873 l 0.10258,-10.40665 -0.45452,-0.3772 c -0.24999,-0.20747 -0.412,-0.24571 -0.36002,-0.085 0.18689,0.57799 -1.08095,3.32688 -1.68304,3.6491 l -0.61527,0.32929 -1.97994,-0.21106 -1.97995,-0.21107 -0.72226,-0.7513 c -0.39724,-0.41319 -0.70841,-0.82927 -0.69149,-0.9246 0.017,-0.0953 -0.0157,-0.2984 -0.0726,-0.45126 -0.17039,-0.45831 -6.58456,-0.84697 -15.36384,-0.93098 -8.2506,-0.079 -8.77732,-0.11632 -10.39832,-0.73692 l -0.86047,-0.32946 -0.311,-1.00041 c -0.17104,-0.55023 -0.40852,-4.37093 -0.52773,-8.49042 l -0.21673,-7.49 0.80447,-0.93508 0.80447,-0.93508 h 9.64467 9.64468 l 1.02594,0.43297 1.02593,0.43294 1.06608,1.63358 c 0.58636,0.89847 1.61764,2.56351 2.29176,3.70011 0.67412,1.13658 1.68364,2.63879 2.2434,3.33823 1.11661,1.39528 2.35854,3.36078 2.36041,3.73566 6.5e-4,0.13114 -0.47094,0.23844 -1.04798,0.23844 -1.09193,0 -1.81217,0.46753 -1.81217,1.17632 v 0.4133 h 1.13363 c 0.62351,0 1.40833,0.14701 1.74407,0.32669 0.33571,0.17968 1.22049,0.4482 1.96613,0.59673 0.74565,0.14854 1.62826,0.38301 1.96134,0.52105 l 0.6056,0.25099 -0.59466,-1.00669 c -0.32707,-0.55367 -0.76269,-1.00668 -0.96802,-1.00668 -0.20534,0 -1.28327,-1.50385 -2.39539,-3.34188 -1.11211,-1.83803 -2.37971,-3.90569 -2.81686,-4.5948 -0.43714,-0.68912 -1.39836,-2.22546 -2.13603,-3.41409 -0.73766,-1.18863 -1.75687,-2.61522 -2.26493,-3.17021 l -0.92375,-1.00906 -1.68736,-0.50109 -1.68737,-0.50109 h -10.4339 -10.4339 l -0.59852,0.5985 -0.5985,0.59852 -0.241891,9.49567 c -0.133043,5.22262 -0.137873,15.57605 -0.01069,23.0076 0.243911,14.25694 0.248661,14.37569 0.619871,15.49822 l 0.2363,0.7146 0.85311,0.18751 c 0.46922,0.10312 0.99619,0.23954 1.17105,0.30315 0.47536,0.17287 32.93727,-0.0669 33.85925,-0.2501 z m -15.49896,-17.01423 -9.93523,-0.084 v -0.79034 -0.79036 h 12.71711 c 6.99439,0 12.82439,-0.0358 12.95553,-0.0794 0.13114,-0.0437 0.28253,0.30166 0.33641,0.76754 l 0.098,0.847 -0.57486,0.17244 c -0.31617,0.0948 -1.71939,0.14289 -3.11828,0.10686 -1.39888,-0.0362 -7.01426,-0.10344 -12.47865,-0.14963 z m -92.346171,-0.71116 0.140759,-0.95907 16.734172,0.0823 16.734172,0.0823 0.09825,0.84983 0.09824,0.84983 -16.973171,0.0269 -16.973169,0.0269 z m 119.802991,0.21644 c -0.10227,-0.38116 -0.18781,-0.80034 -0.19021,-0.93148 -0.002,-0.13114 8.34886,-0.23845 18.55833,-0.23845 h 18.56267 l 0.14148,0.96399 0.14148,0.96401 -18.51394,-0.0326 -18.51392,-0.0326 z m -117.245656,-12.25288 -1.017667,-0.90929 0.415753,-2.34947 c 1.390194,-7.85617 3.030822,-13.82813 4.061234,-14.7831 1.134206,-1.05115 2.199384,-1.125 14.664747,-1.01681 l 11.234778,0.0975 0.766981,0.89203 0.766978,0.89203 v 1.69412 c 0,5.57049 -1.917796,15.39923 -3.131457,16.04876 l -0.641867,0.34352 H 45.342727 32.291821 Z"
       id="path1" /></g></svg>
