<?xml version="1.0" encoding="UTF-8" standalone="no"?>
<!-- Created with Inkscape (http://www.inkscape.org/) -->

<svg
   width="210mm"
   height="297mm"
   viewBox="0 0 210 297"
   version="1.1"
   id="svg1"
   xml:space="preserve"
   inkscape:version="1.4.4 (dcaf3e7, 2026-05-05)"
   sodipodi:docname="porsche.svg"
   xmlns:inkscape="http://www.inkscape.org/namespaces/inkscape"
   xmlns:sodipodi="http://sodipodi.sourceforge.net/DTD/sodipodi-0.dtd"
   xmlns="http://www.w3.org/2000/svg"
   xmlns:svg="http://www.w3.org/2000/svg"><sodipodi:namedview
     id="namedview1"
     pagecolor="#ffffff"
     bordercolor="#000000"
     borderopacity="0.25"
     inkscape:showpageshadow="2"
     inkscape:pageopacity="0.0"
     inkscape:pagecheckerboard="0"
     inkscape:deskcolor="#d1d1d1"
     inkscape:document-units="mm"
     inkscape:zoom="0.97386896"
     inkscape:cx="446.15859"
     inkscape:cy="671.03484"
     inkscape:window-width="1920"
     inkscape:window-height="991"
     inkscape:window-x="-9"
     inkscape:window-y="-9"
     inkscape:window-maximized="1"
     inkscape:current-layer="layer1" /><defs
     id="defs1" /><g
     inkscape:label="Layer 1"
     inkscape:groupmode="layer"
     id="layer1"><path
       style="fill:#000000;stroke-width:1.27919"
       d="m 50.453652,178.32804 c -4.429485,-0.6383 -9.164492,-1.18579 -13.03045,-1.50668 -6.730668,-0.55868 -9.47669,-1.24182 -9.47669,-2.35759 0,-0.81588 0.730081,-1.35189 2.804572,-2.05904 l 1.764546,-0.60149 -1.861493,-0.0258 c -1.023821,-0.0142 -2.266533,-0.23715 -2.761582,-0.49543 -0.49505,-0.2583 -1.71348,-0.57171 -2.707627,-0.69647 -3.150217,-0.39537 -7.546039,-1.28716 -7.969895,-1.61688 -0.224761,-0.17485 -1.024356,-1.43974 -1.77688,-2.81088 -1.466783,-2.67256 -1.823589,-4.97347 -0.884354,-5.70287 0.266128,-0.20666 0.521562,-0.83266 0.567629,-1.39111 0.123046,-1.49168 -0.770397,-6.94281 -1.104127,-6.73655 -0.157204,0.0973 -0.285825,-0.51769 -0.285825,-1.36635 0,-0.84866 0.151129,-1.54302 0.335842,-1.54302 0.393787,0 2.099831,-1.84503 2.086767,-2.25678 -0.0049,-0.15488 0.323735,-0.48252 0.730333,-0.72806 0.414362,-0.25023 0.486533,-0.36937 0.164214,-0.27108 -1.005865,0.30674 -0.299906,-0.72925 0.745195,-1.09358 0.839828,-0.29276 2.084952,-1.74265 1.49654,-1.74265 -0.120244,0 0.13202,-0.28395 0.56059,-0.63098 l 0.77922,-0.63098 -1.108618,-1.39974 c -0.60974,-0.76986 -1.057744,-1.39751 -0.995565,-1.39477 0.06219,0.002 1.002057,0.28251 2.088618,0.6217 1.826234,0.5701 2.171609,0.57897 4.569119,0.11743 2.037437,-0.39226 2.832733,-0.72445 3.70901,-1.54923 0.955185,-0.89906 1.101074,-1.24488 1.015359,-2.40693 -0.113374,-1.53696 0.463146,-1.42823 -5.217382,-0.984 -2.576924,0.20152 -2.845846,0.15763 -4.317034,-0.70455 -0.862907,-0.50568 -1.696539,-1.14749 -1.852518,-1.42619 -0.65967,-1.17877 0.559491,-3.14986 1.948255,-3.14986 0.272344,0 0.859727,-0.34269 1.305295,-0.76152 0.772161,-0.72585 1.115133,-0.76691 7.319586,-0.8763 8.26971,-0.14582 8.839079,-0.008 11.62882,2.83401 1.163432,1.18484 2.115331,2.3167 2.115331,2.51523 0,0.19853 -0.533865,0.61554 -1.186369,0.92671 -0.818932,0.39052 -1.054787,0.64929 -0.76152,0.83549 0.338429,0.21486 0.338791,0.27077 0.0018,0.2749 -0.232685,0.002 -0.423066,0.14151 -0.423066,0.30814 0,0.16663 0.9519,0.005 2.115333,-0.36015 1.163433,-0.36472 2.876853,-0.86747 3.807599,-1.11724 0.930748,-0.24976 2.993097,-0.83504 4.582999,-1.30063 1.589905,-0.46558 3.341399,-0.92882 3.892213,-1.0294 0.550814,-0.10051 1.839151,-0.42902 2.862972,-0.72985 3.318954,-0.9752 8.350623,-2.17775 9.862762,-2.35713 0.811482,-0.0963 2.160789,-0.31471 2.998462,-0.48541 0.837671,-0.17071 1.571881,-0.26206 1.631577,-0.20301 0.0597,0.0591 0.510799,-0.10126 1.002449,-0.3564 0.610896,-0.31693 0.964146,-0.35012 1.115749,-0.10483 0.150596,0.24367 0.535161,0.19931 1.197497,-0.13818 0.536612,-0.2734 2.57485,-0.6779 4.529418,-0.8989 1.954568,-0.22099 4.010671,-0.47992 4.569118,-0.57539 0.558443,-0.0954 4.213744,-0.25652 8.122879,-0.35787 7.04194,-0.18257 12.378335,0.17636 15.061155,1.01299 0.65152,0.20317 1.3868,0.40404 1.63394,0.44639 0.24716,0.0424 1.00868,0.33524 1.69227,0.6509 0.6836,0.31566 1.77598,0.82119 2.4275,1.12341 0.65152,0.30222 1.26074,0.56345 1.35381,0.58051 0.72556,0.13295 2.03072,0.86824 2.03072,1.14405 0,0.18721 0.38076,0.43594 0.84614,0.55273 0.46536,0.1168 0.84613,0.35715 0.84613,0.5341 0,0.17697 0.1523,0.22762 0.33845,0.11257 0.18615,-0.11499 0.33844,-0.0389 0.33844,0.16924 0,0.20811 0.15232,0.28426 0.33847,0.16922 0.30009,-0.18546 0.50359,0.52616 0.37015,1.29435 -0.0266,0.15345 0.11014,0.181 0.30389,0.0613 0.1938,-0.11973 0.25696,-0.37213 0.14036,-0.56079 -0.31445,-0.5088 1.70084,0.59631 2.21315,1.2136 0.24193,0.29151 0.60263,0.53 0.80157,0.53 0.19893,0 0.066,-0.23 -0.29528,-0.51113 -1.02306,-0.79594 2.39958,1.0189 5.77362,3.06141 1.67535,1.0142 3.69337,2.16664 4.48451,2.56099 1.44903,0.72227 1.94462,1.3758 0.84614,1.11578 -0.32577,-0.0772 -1.58228,-0.006 -2.79226,0.15799 -1.24872,0.16927 -1.76091,0.32864 -1.18457,0.36862 0.55845,0.0388 1.42244,0.10072 1.91998,0.13755 0.49755,0.037 0.82115,-0.0679 0.71914,-0.23298 -0.10245,-0.16571 0.15074,-0.19342 0.56523,-0.0619 0.65253,0.2071 7.85998,0.45349 16.34615,0.55878 1.44529,0.0179 2.71114,0.16742 2.81296,0.33219 0.10181,0.16477 0.53825,0.21096 0.9698,0.10257 0.43155,-0.10836 2.59256,-0.01 4.80222,0.21756 2.20967,0.22797 4.93139,0.44592 6.04829,0.48432 3.10429,0.10667 7.21043,0.49362 9.59355,0.90391 2.10309,0.36208 4.81728,1.93971 5.59177,3.25024 0.20962,0.35467 0.3621,0.38524 0.53408,0.10699 0.16652,-0.26945 0.82164,-0.0473 2.12634,0.72092 1.03711,0.61068 2.39596,1.41126 3.01969,1.77903 1.5675,0.92429 1.64171,0.95147 1.64171,0.6013 0,-0.1702 -0.38053,-0.51312 -0.84562,-0.76204 -0.46509,-0.2489 -0.78568,-0.5125 -0.71241,-0.58577 0.19054,-0.19053 6.87766,3.20304 7.1363,3.62153 0.26614,0.43062 -0.24839,0.46115 -0.68762,0.0407 -0.40573,-0.3883 -3.9374,-1.43524 -4.14415,-1.22849 -0.14897,0.14898 2.87588,1.5823 4.2793,2.02773 1.49048,0.47305 4.95422,2.48792 4.87802,2.83755 -0.0442,0.20327 0.11756,0.29353 0.3598,0.2006 0.2422,-0.0931 0.71708,0.13677 1.05528,0.51047 0.48064,0.53111 0.57912,1.05174 0.45105,2.38453 -0.09,0.9378 -0.3898,1.97008 -0.66598,2.29395 -0.47435,0.55625 -2.30418,5.39868 -2.30418,6.0977 0,0.17904 0.54665,0.41424 1.21479,0.52266 1.4393,0.23356 2.16974,0.76672 2.16974,1.5837 0,1.04937 -0.89034,1.39102 -4.97096,1.90748 -2.19893,0.27831 -4.59284,0.66059 -5.31982,0.8495 -1.30239,0.33847 -1.30983,0.34943 -0.50767,0.74784 0.44774,0.22239 0.86016,0.72347 0.91649,1.11352 0.16389,1.13499 -2.03983,1.78906 -7.33477,2.17697 -2.53742,0.1859 -7.58343,0.59227 -11.21335,0.90305 -5.81335,0.49773 -11.72204,0.55302 -49.5834,0.46398 -23.640945,-0.0557 -45.953472,-0.11934 -49.583383,-0.14182 -3.629911,-0.0224 -9.645918,0.0563 -13.368902,0.17479 -3.722987,0.11857 -7.225978,0.1497 -7.784426,0.0692 z m 113.556528,-4.02741 c 2.56089,-0.87765 5.07937,-3.13565 6.40066,-5.73873 1.01121,-1.99216 1.16269,-2.61803 1.18013,-4.87645 0.0134,-1.74432 -0.18378,-3.123 -0.60366,-4.21917 -0.34303,-0.89553 -0.6857,-1.5662 -0.76151,-1.4904 -0.0759,0.0759 0.0792,0.65731 0.34452,1.29222 1.10379,2.64173 0.78054,5.97462 -0.89929,9.27237 -0.3793,0.74458 -0.62902,1.3631 -0.55495,1.37446 0.1927,0.0295 -2.04009,1.91846 -3.2993,2.79115 -2.50624,1.7369 -7.49895,2.15046 -10.10383,0.83691 -1.61622,-0.81501 -4.60395,-3.14988 -4.41723,-3.45202 0.0936,-0.15151 -0.12447,-0.54218 -0.4847,-0.86817 -0.6071,-0.54943 -1.35103,-2.42919 -1.84389,-4.65917 -0.16195,-0.73272 -0.0825,-0.93074 0.37311,-0.93074 0.52319,0 0.51873,-0.0439 -0.0465,-0.4572 -0.56651,-0.41425 -0.58611,-0.61296 -0.20862,-2.11534 0.58119,-2.31302 1.36768,-3.85808 1.96387,-3.85808 0.29152,0 0.4292,-0.19837 0.32543,-0.46881 -0.20051,-0.52247 0.94259,-1.68836 2.97828,-3.03771 0.74128,-0.49136 1.22564,-0.89337 1.07633,-0.89337 -0.58191,0 -3.27084,2.09307 -4.43268,3.45041 -1.32708,1.5504 -2.56054,4.9254 -2.56054,7.00619 0,1.61156 0.85212,4.87241 1.58143,6.05186 2.979,4.81758 8.62285,6.83013 13.9929,4.98979 z M 59.973821,173.45188 c 3.769015,-1.85547 6.34135,-5.63818 6.792238,-9.98822 0.178691,-1.72395 -0.497728,-4.77293 -1.491537,-6.72315 -0.727821,-1.42826 -3.125882,-3.91829 -4.311264,-4.47661 -0.568103,-0.26758 -0.74037,-0.29395 -0.382815,-0.0586 1.789036,1.17751 3.280673,2.78228 3.128171,3.36544 -0.1016,0.38856 0.02174,0.6162 0.333885,0.6162 0.272264,0 0.82574,0.72345 1.229946,1.60767 1.462745,3.19977 0.734876,9.71919 -1.239512,11.10211 -0.384696,0.26944 -0.55953,0.48989 -0.388519,0.48989 0.646132,0 -2.087434,2.46319 -3.580749,3.22655 -1.20922,0.61816 -1.650295,0.70629 -1.966157,0.39285 -0.316369,-0.31393 -0.359269,-0.27809 -0.1923,0.16066 0.178888,0.47007 -0.09614,0.6036 -1.640745,0.79658 -2.178493,0.27219 -4.264338,-0.0116 -6.149263,-0.83661 -1.748614,-0.76535 -4.987023,-3.33766 -4.728523,-3.75591 0.109639,-0.17742 0.05886,-0.32256 -0.11285,-0.32256 -0.171714,0 -0.730421,-0.93191 -1.24157,-2.07089 -0.712426,-1.5875 -0.937659,-2.63429 -0.964908,-4.4845 -0.04129,-2.80412 0.926191,-5.97752 1.900284,-6.23303 0.333373,-0.0875 0.558021,-0.30333 0.499218,-0.47974 -0.247567,-0.7427 -0.828246,-0.26791 -1.776161,1.45228 -0.928892,1.68567 -1.009747,2.10103 -1.015359,5.21605 -0.0055,3.06727 0.08729,3.57488 0.990138,5.41524 1.01774,2.07457 3.314597,4.58161 4.992327,5.4492 3.428666,1.77302 7.885797,1.82783 11.316031,0.13912 z m -2.581877,-0.41553 c 0,-0.18571 -0.240913,-0.2452 -0.535361,-0.13221 -0.294449,0.11295 -0.912653,0.20544 -1.373787,0.20544 -0.461136,0 -0.762533,0.1228 -0.669772,0.27288 0.235672,0.38133 2.57892,0.0668 2.57892,-0.34611 z m 101.789806,0.51683 c -0.32577,-0.0852 -0.85883,-0.0852 -1.18458,0 -0.32577,0.0852 -0.0592,0.15478 0.59228,0.15478 0.65153,0 0.91806,-0.0697 0.5923,-0.15478 z m 2.70763,0 c -0.32576,-0.0852 -0.85883,-0.0852 -1.18459,0 -0.32577,0.0852 -0.0592,0.15478 0.5923,0.15478 0.65151,0 0.91804,-0.0697 0.59229,-0.15478 z M 54.317661,173.32742 c -0.380699,-0.32559 -2.34097,-0.50093 -2.34097,-0.20937 0,0.18149 0.558448,0.32997 1.240996,0.32997 0.682547,0 1.177536,-0.0542 1.099974,-0.12062 z m 101.430459,-0.66081 c -0.35276,-0.22174 -1.32122,-0.90979 -2.15217,-1.52901 -0.83092,-0.61922 -1.44614,-0.93198 -1.36715,-0.69501 0.17562,0.52684 3.23838,2.67473 3.7746,2.64708 0.21235,-0.0115 0.0975,-0.20132 -0.25528,-0.42306 z m 9.96721,-0.51459 c 1.57063,-0.99952 2.66889,-2.08852 2.10625,-2.08852 -0.18008,0 -0.61756,0.32082 -0.97218,0.71292 -0.3546,0.39211 -1.21589,1.00442 -1.91395,1.36069 -1.21714,0.62122 -1.57728,0.97247 -0.99701,0.97247 0.14971,0 0.9493,-0.4309 1.77689,-0.95756 z m -115.092451,0.32171 c 0,-0.16356 -0.463512,-0.48938 -1.030026,-0.72403 -0.566514,-0.23466 -1.480339,-0.84732 -2.03072,-1.36145 -0.550381,-0.51414 -1.000693,-0.82602 -1.000693,-0.69309 0,0.39789 1.78838,1.97986 2.876852,2.54479 1.19269,0.61905 1.184587,0.61745 1.184587,0.23378 z m 11.25357,-1.51096 c 0.511911,-0.37846 0.930747,-0.82533 0.930747,-0.99301 0,-0.16769 -0.449557,0.0734 -0.999017,0.53573 -0.549458,0.46234 -1.463281,1.04612 -2.030719,1.29729 -0.567437,0.25118 -1.031703,0.57571 -1.031703,0.72121 0,0.31503 1.821535,-0.59333 3.130692,-1.56122 z m -6.137342,-2.47499 c -0.37753,-0.71563 -0.693151,-1.19207 -0.701377,-1.05878 -0.02402,0.38919 1.108473,2.63924 1.254757,2.49295 0.07317,-0.0732 -0.17585,-0.71854 -0.55338,-1.43417 z m -1.785577,-0.15604 c 0.705418,-1.12956 0.198985,-1.1149 -0.607407,0.0175 -0.420916,0.59111 -0.542085,0.95833 -0.283482,0.85908 0.248409,-0.0953 0.649309,-0.48981 0.890889,-0.87664 z m 96.98637,-0.38357 c -0.30767,-0.60499 -0.63512,-1.17613 -0.72764,-1.2692 -0.30237,-0.30416 0.32803,1.51162 0.67563,1.9461 0.60204,0.75251 0.62525,0.45027 0.0521,-0.6769 z m 10.08365,0.29633 c -0.10094,-0.38606 -0.24571,-0.51549 -0.32168,-0.28761 -0.31488,0.94465 -1.09705,0.39548 -1.09705,-0.77025 0,-0.65152 -0.16861,-1.18458 -0.37467,-1.18458 -0.20607,0 -0.28222,0.24091 -0.16923,0.53537 0.11296,0.29444 0.20579,0.94172 0.20621,1.43842 6.6e-4,0.76026 0.1541,0.9084 0.97037,0.93683 0.82107,0.0285 0.94149,-0.0738 0.78605,-0.66818 z m 8.57292,-0.91055 c 0.76782,-2.31169 0.50604,-2.38943 -0.38652,-0.11476 -0.39471,1.00594 -0.59734,1.82898 -0.45025,1.82898 0.14706,0 0.52361,-0.77139 0.83677,-1.7142 z M 64.673817,167.12218 c 0.799488,-1.91345 0.582717,-2.06976 -0.342165,-0.24674 -0.956773,1.88589 -0.977601,1.95457 -0.503969,1.66185 0.18897,-0.11679 0.56973,-0.7536 0.846134,-1.41511 z m -19.773662,-0.47849 c -0.36304,-0.81828 -0.670832,-1.31598 -0.68398,-1.10603 -0.03406,0.54395 0.999741,2.93811 1.18758,2.75026 0.08607,-0.0861 -0.14056,-0.82596 -0.5036,-1.64423 z m 51.07545,0.69725 c -7.208254,-0.77434 -9.138234,-0.81288 -9.138234,-0.18251 0,0.26373 0.190383,0.5563 0.423076,0.6502 0.232683,0.0939 3.545293,0.16204 7.361358,0.15146 l 6.938275,-0.0193 z m -9.476678,-0.1543 c 0,-0.55035 -1.160592,-0.66478 -3.003777,-0.29614 -1.7461,0.34922 -1.195786,0.80383 0.973052,0.80383 1.579453,0 2.030725,-0.11283 2.030725,-0.50769 z m 72.259743,-0.50767 c -0.12701,-0.40036 -0.30717,-0.65178 -0.40025,-0.5587 -0.0932,0.0932 -0.0653,0.4968 0.0618,0.89715 0.12703,0.40036 0.30719,0.65177 0.40026,0.55869 0.0932,-0.0932 0.0653,-0.4968 -0.0618,-0.89714 z m 2.5009,0.0701 c 0.25481,-0.47611 0.19264,-0.61676 -0.28862,-0.65301 -0.44793,-0.0337 -0.56731,0.12992 -0.4426,0.60681 0.21122,0.80768 0.32001,0.81456 0.73122,0.0461 z m -111.799986,-1.50852 0.994068,-1.09998 -1.099973,0.99407 c -0.604985,0.54674 -1.099972,1.04173 -1.099972,1.09997 0,0.26148 0.279267,0.0312 1.205877,-0.99406 z m 7.086227,0.42307 c 0.11505,-0.18615 0.04788,-0.33847 -0.149253,-0.33847 -0.197135,0 -0.358428,0.15232 -0.358428,0.33847 0,0.18614 0.06716,0.33844 0.149253,0.33844 0.08208,0 0.24338,-0.1523 0.358428,-0.33844 z m -2.876853,-0.14928 c 0,-0.0821 -0.152304,-0.24338 -0.338452,-0.35842 -0.18615,-0.115 -0.338455,-0.0479 -0.338455,0.14925 0,0.19714 0.152305,0.35844 0.338455,0.35844 0.186148,0 0.338452,-0.0671 0.338452,-0.14927 z M 163.3278,165.19213 c 0,-0.0732 -0.22846,-0.22068 -0.50768,-0.32783 -0.27922,-0.10721 -0.50768,-0.0473 -0.50768,0.13302 0,0.1803 0.22846,0.32782 0.50768,0.32782 0.27922,0 0.50768,-0.0599 0.50768,-0.13301 z m 1.8615,-0.54389 c 0.115,-0.18614 0.0479,-0.33846 -0.14926,-0.33846 -0.19713,0 -0.35843,0.15232 -0.35843,0.33846 0,0.18615 0.0671,0.33846 0.14926,0.33846 0.0821,0 0.24337,-0.15231 0.35843,-0.33846 z M 44.077965,163.54831 c -0.09389,-0.2327 -0.17071,-0.0424 -0.17071,0.42306 0,0.46537 0.07682,0.65575 0.17071,0.42307 0.09389,-0.23268 0.09389,-0.61345 0,-0.84613 z m 21.329605,0.3596 c -0.108041,-0.26999 -0.188241,-0.1898 -0.204482,0.20448 -0.0147,0.35679 0.0653,0.5567 0.177762,0.44422 0.112467,-0.11244 0.124491,-0.40438 0.02673,-0.6487 z m -12.845636,0.19743 c -0.112467,-0.11244 -0.404381,-0.12447 -0.648703,-0.0267 -0.269995,0.10809 -0.189795,0.18825 0.204482,0.20449 0.356786,0.0147 0.556686,-0.0654 0.444221,-0.17777 z m 111.015976,-1.16501 c -0.52038,-0.83325 -0.78197,-0.84088 -0.78197,-0.0228 0,0.41863 0.16894,0.57363 0.49069,0.45015 0.34172,-0.13112 0.40656,-0.0522 0.21362,0.25999 -0.18254,0.29536 -0.14612,0.36735 0.10677,0.21104 0.28338,-0.17513 0.27576,-0.41022 -0.0292,-0.89841 z m -6.5483,-0.17972 c 0.1017,-0.26482 0.0677,-0.48151 -0.0753,-0.48151 -0.33668,0 -1.07244,0.73576 -1.07244,1.07244 0,0.42136 0.94629,-0.0659 1.1478,-0.59093 z M 52.795979,161.78348 c 0.331321,-0.79297 0.788009,-1.24736 1.410741,-1.40367 1.158086,-0.29065 1.86158,0.12754 2.508317,1.49115 0.622571,1.31264 1.155876,1.44884 0.604207,0.15431 -0.656931,-1.54154 -1.322686,-2.11534 -2.454336,-2.11534 -1.01025,0 -2.549762,1.01302 -2.549762,1.67778 0,0.16368 -0.09245,0.53849 -0.205439,0.83295 -0.414316,1.07968 0.211818,0.49835 0.686272,-0.63718 z m -0.819288,-0.0519 c 0,-0.27923 -0.152303,-0.41355 -0.338452,-0.2985 -0.186149,0.115 -0.338453,0.43762 -0.338453,0.71684 0,0.27922 0.152304,0.41356 0.338453,0.29851 0.186149,-0.11499 0.338452,-0.43763 0.338452,-0.71685 z m 6.430612,0.22915 c 0,-0.17517 -0.152303,-0.41262 -0.338453,-0.52765 -0.186149,-0.115 -0.338453,0.0283 -0.338453,0.31848 0,0.29019 0.152304,0.52764 0.338453,0.52764 0.18615,0 0.338453,-0.14331 0.338453,-0.31847 z m 101.807347,-0.9548 c 0.51301,0.13415 0.6216,0.0322 0.49237,-0.4619 -0.17209,-0.6581 -1.44066,-0.90405 -1.44066,-0.2793 0,0.19507 -0.41883,0.73924 -0.93075,1.20927 l -0.93074,0.85459 1.07582,-0.74739 c 0.6065,-0.42134 1.36294,-0.67231 1.73396,-0.57527 z m -105.107266,-1.6585 c -0.232687,-0.0939 -0.613445,-0.0939 -0.846132,0 -0.232687,0.0939 -0.0423,0.1707 0.423066,0.1707 0.465373,0 0.655752,-0.0768 0.423066,-0.1707 z m 114.651036,-2.31426 c -0.47165,-0.56829 -1.01537,-0.67219 -1.01537,-0.19403 0,0.17249 0.26653,0.38328 0.59229,0.46841 0.32577,0.0852 0.64903,0.17246 0.71834,0.19406 0.0694,0.0216 -0.0635,-0.18921 -0.29526,-0.46844 z m 26.39934,-0.69813 c 0,-0.27335 -4.28533,-2.17871 -4.90013,-2.17871 -0.28332,0 -0.51512,-0.13454 -0.51512,-0.29898 0,-0.16444 -0.34268,-0.40365 -0.76153,-0.53159 -1.08574,-0.33166 -3.93979,-0.54757 -3.19025,-0.24134 0.33954,0.1387 0.60134,0.39856 0.58178,0.57744 -0.0196,0.17888 0.38751,0.37706 0.9046,0.44039 0.51708,0.0633 1.01681,0.2366 1.11048,0.38504 0.20308,0.32175 2.5308,1.40126 3.72409,1.72708 1.07385,0.29322 3.04608,0.37135 3.04608,0.12064 z m -8.82799,-0.58222 c -0.0775,-0.0527 -0.44562,-0.3192 -0.81793,-0.59229 -0.62614,-0.45929 -0.64207,-0.4521 -0.2124,0.0959 0.25549,0.32576 0.62356,0.5923 0.81794,0.5923 0.19438,0 0.28996,-0.0431 0.21239,-0.0959 z m 0.88826,-0.89707 c -0.12267,-0.19853 -0.38505,-0.36097 -0.58302,-0.36097 -0.22442,0 -0.19875,0.1942 0.0682,0.51586 0.46421,0.55933 0.87907,0.43451 0.51481,-0.15489 z M 31.916286,154.6287 c -0.112467,-0.11244 -0.404382,-0.12445 -0.648702,-0.0267 -0.269996,0.10808 -0.189797,0.18824 0.204483,0.20448 0.356785,0.0147 0.556685,-0.0653 0.444219,-0.17776 z m 15.690574,-1.71234 c 0.262691,-0.32702 -0.169673,-0.0802 -0.960807,0.54854 -0.791135,0.62872 -1.438425,1.20416 -1.438425,1.27876 0,0.23913 1.904442,-1.21131 2.399232,-1.8273 z m 119.10547,1.0826 c 0,-0.0865 -0.34268,-0.32338 -0.76151,-0.52635 -0.73128,-0.35438 -0.73542,-0.34812 -0.10451,0.15732 0.69053,0.55324 0.86605,0.62803 0.86605,0.36903 z m 19.62351,-0.35852 c -0.23548,-0.28373 -0.51624,-0.42776 -0.62394,-0.32007 -0.10775,0.10775 0.0283,0.33751 0.30207,0.51069 0.7165,0.45312 0.81011,0.39767 0.32187,-0.19062 z m -28.84636,-1.17642 c 0.29474,0 0.45232,-0.0835 0.35019,-0.1857 -0.10213,-0.10202 -0.59891,-0.082 -1.10393,0.0447 -0.66956,0.16804 -0.79495,0.30706 -0.46301,0.51332 0.25929,0.16109 0.50379,0.14183 0.56806,-0.0447 0.062,-0.18018 0.35396,-0.3276 0.64869,-0.3276 z m 6.56014,0.10797 c -0.62682,-0.26443 -1.38834,-0.41456 -1.69226,-0.33365 -0.36824,0.0981 -0.29855,0.16023 0.20891,0.18641 0.41885,0.0216 0.76163,0.15349 0.76176,0.2931 1.4e-4,0.13961 0.41898,0.27207 0.93075,0.29436 0.9008,0.0392 0.89413,0.0252 -0.20916,-0.44022 z M 49.917768,151.57194 c 0.464468,-0.40636 -0.637151,-0.0291 -1.176306,0.40297 -0.619474,0.4963 -0.608675,0.50335 0.18915,0.12331 0.465373,-0.22162 0.909594,-0.45849 0.987156,-0.52635 z m 110.956242,0.31111 c -0.5119,-0.0775 -1.34958,-0.0775 -1.86149,0 -0.5119,0.0775 -0.0932,0.14099 0.93074,0.14099 1.02383,0 1.44267,-0.0634 0.93075,-0.14099 z M 54.515091,150.94088 c 1.595849,0 3.010216,0.15232 3.143037,0.33847 0.132823,0.18614 0.698408,0.36174 1.256855,0.3902 l 1.015359,0.0518 -1.113871,-0.48146 c -1.70303,-0.73613 -4.827758,-0.95087 -6.833798,-0.46962 -1.178338,0.28267 -1.619732,0.51769 -1.320108,0.70286 0.266713,0.16484 0.55217,0.11308 0.700556,-0.12702 0.162943,-0.26365 1.264053,-0.40521 3.15197,-0.40521 z m 17.9221,0.29774 c 0.300916,-0.11551 1.007664,-0.87934 1.570552,-1.69745 0.562888,-0.81813 1.401479,-1.73521 1.863536,-2.03797 1.018615,-0.66742 3.236624,-1.17466 4.958553,-1.13399 0.93035,0.0221 1.269198,-0.10924 1.269198,-0.49141 0,-0.4186 -0.455193,-0.52139 -2.308881,-0.52139 -3.081833,0 -5.293225,0.79092 -7.237923,2.58867 -1.832403,1.69395 -2.706696,1.82953 -5.341508,0.82839 -0.932743,-0.35442 -1.695896,-0.58479 -1.695896,-0.51193 0,0.16832 2.471815,1.8217 3.854851,2.57848 1.11297,0.609 2.163483,0.74551 3.067518,0.3986 z m 108.490179,-1.98999 c -0.82212,-0.83768 -1.55897,-1.52305 -1.6375,-1.52305 -0.28598,0 2.49313,2.98326 2.80794,3.0142 0.17836,0.0175 -0.34832,-0.65348 -1.17044,-1.49115 z m 3.19056,0.9578 c 0.23601,-0.61504 -0.4797,-1.26563 -0.91426,-0.83108 -0.30629,0.30627 0.0305,1.39631 0.43132,1.39631 0.14632,0 0.36365,-0.25435 0.48294,-0.56523 z m -34.32414,-0.94568 1.18048,-0.53058 -1.89282,0.20695 c -1.48147,0.16198 -2.25374,0.0564 -3.55376,-0.486 -3.82362,-1.5952 -5.27024,-1.71654 -26.65558,-2.23598 -5.53274,-0.13438 -6.65287,-0.0845 -6.34813,0.28267 0.2707,0.32619 2.25558,0.51501 7.39505,0.70351 3.86377,0.14173 9.27175,0.35573 12.0177,0.47558 3.24702,0.14172 4.9943,0.0995 4.99738,-0.12051 0.002,-0.19633 0.10911,-0.18232 0.25337,0.0334 0.13675,0.20453 1.38371,0.47498 2.77102,0.60103 1.58875,0.14434 3.15468,0.53546 4.23066,1.05671 1.89875,0.91981 3.57878,0.92377 5.60463,0.0132 z M 18.23055,148.18198 c 0.98846,-0.51116 1.023212,-0.5815 0.40626,-0.82235 -1.1885,-0.46397 -1.768169,-0.33114 -2.335811,0.53517 -0.529889,0.80873 -0.523383,0.84615 0.147107,0.84615 0.385835,0 1.187934,-0.25153 1.782444,-0.55897 z m 74.275915,-0.69882 c -0.511903,-0.0775 -1.349583,-0.0775 -1.861495,0 -0.511902,0.0775 -0.09305,0.14101 0.930752,0.14101 1.023823,0 1.442653,-0.0634 0.930743,-0.14101 z m 19.037985,-0.76103 c 0,-0.79966 -1.88714,-0.97712 -12.867795,-1.21008 -10.589876,-0.22466 -11.722813,-0.19611 -12.139491,0.30598 -0.571861,0.68903 -1.756533,0.59463 10.961481,0.87348 5.770635,0.12651 11.291645,0.25864 12.268935,0.2936 0.97728,0.0349 1.77687,-0.0834 1.77687,-0.26298 z m -92.143884,-0.24521 c -0.32576,-0.085 -0.858823,-0.085 -1.184585,0 -0.325762,0.0852 -0.05922,0.15478 0.592293,0.15478 0.651522,0 0.918055,-0.0697 0.592292,-0.15478 z m 158.480724,0.10548 c 0,-0.0704 -0.26653,-0.33681 -0.5923,-0.59229 -0.53679,-0.421 -0.54876,-0.40902 -0.12778,0.12779 0.44215,0.56378 0.72008,0.74307 0.72008,0.46451 z m -91.962146,-0.84932 c 0.276637,-0.27665 -0.13574,-0.37671 -1.552477,-0.37671 -1.557603,0 -1.929184,0.10634 -1.929184,0.55169 0,0.45522 0.271517,0.52109 1.552473,0.37672 0.853866,-0.0962 1.72199,-0.34451 1.929188,-0.5517 z m 46.863246,-0.28068 c -0.51191,-0.0775 -1.34957,-0.0775 -1.86149,0 -0.51191,0.0775 -0.0932,0.14101 0.93075,0.14101 1.02382,0 1.44264,-0.0634 0.93074,-0.14101 z m -24.06643,-0.60372 c -0.27923,-0.27922 -0.83216,-0.50766 -1.22875,-0.50766 -0.39657,0 -0.62692,-0.15231 -0.51188,-0.33847 0.115,-0.18614 0.13302,-0.33844 0.0399,-0.33844 -0.0932,0 -0.25577,0.14003 -0.36154,0.31115 -0.30654,0.49602 0.79817,1.38111 1.72376,1.38111 0.75211,0 0.78972,-0.0564 0.33845,-0.50769 z m -11.217315,-0.1367 -1.69226,-0.17657 2.36917,-0.22451 c 2.118315,-0.20073 2.046665,-0.21191 -0.67691,-0.10548 -1.67533,0.0655 -3.95989,0.19653 -5.07679,0.29128 -1.407587,0.11934 -1.771082,0.0803 -1.184587,-0.12716 l 0.84613,-0.29944 -0.910769,-0.0337 c -0.968719,-0.0358 -1.581086,0.48332 -0.868221,0.73613 0.23385,0.0829 2.328977,0.14299 4.655847,0.13346 2.32687,-0.009 3.46913,-0.0968 2.53839,-0.1939 z m 8.924215,0.14832 c -0.0868,-0.0868 -1.09147,-0.19449 -2.23286,-0.23957 -1.14138,-0.0451 -2.00067,-0.2026 -1.90954,-0.35006 0.0912,-0.14746 -0.0718,-0.26812 -0.36195,-0.26812 -0.29021,0 -0.52765,0.14172 -0.52765,0.31493 0,0.1732 -0.34269,0.38092 -0.76152,0.46158 -0.41885,0.0807 0.74883,0.16742 2.59481,0.19276 1.84597,0.0253 3.2854,-0.0249 3.19871,-0.11154 z m -26.523776,-0.51928 c 0.115051,-0.18615 0.04788,-0.33847 -0.149251,-0.33847 -0.197135,0 -0.358429,0.15232 -0.358429,0.33847 0,0.18614 0.06716,0.33844 0.149252,0.33844 0.08208,0 0.243382,-0.1523 0.358428,-0.33844 z m 2.199946,-0.20544 c 0,-0.0732 -0.228456,-0.13303 -0.50768,-0.13303 -0.279223,0 -0.507679,0.14753 -0.507679,0.32783 0,0.18032 0.228456,0.24017 0.507679,0.13303 0.279224,-0.10721 0.50768,-0.25468 0.50768,-0.32783 z m 1.692266,0.20544 c -0.662817,-0.42835 -1.110864,-0.42835 -0.846133,0 0.11505,0.18614 0.46672,0.33612 0.781495,0.33326 0.493219,-0.004 0.502152,-0.0506 0.06464,-0.33326 z m 4.399893,0.13279 c 0,-0.28012 -0.657186,-0.43852 -0.807862,-0.19472 -0.0977,0.15816 0.04399,0.28756 0.315067,0.28756 0.271038,0 0.492795,-0.0418 0.492795,-0.0928 z m 74.188941,-0.20049 c -0.31589,-0.31589 -0.4964,-0.31589 -0.8123,0 -0.31587,0.3159 -0.22563,0.40614 0.40616,0.40614 0.63177,0 0.72204,-0.0901 0.40614,-0.40614 z m -1.92918,-0.27077 c -0.115,-0.18614 -0.43764,-0.33844 -0.71686,-0.33844 -0.27923,0 -0.41355,0.1523 -0.29851,0.33844 0.11501,0.18616 0.43764,0.33847 0.71687,0.33847 0.27922,0 0.41355,-0.15231 0.2985,-0.33847 z m -95.274582,-2.38982 c -0.925101,-0.17859 -0.999241,-0.23946 -0.338452,-0.27786 0.465373,-0.0271 1.200738,-0.14414 1.634145,-0.26019 0.67584,-0.18097 0.533153,-0.30077 -1.002369,-0.84151 -2.169374,-0.76398 -2.717497,-0.78625 -1.816363,-0.0738 0.622688,0.49229 0.338042,0.51532 -3.55376,0.28743 -2.326866,-0.13625 -6.439073,-0.34384 -9.138238,-0.46131 l -4.907572,-0.21358 3.651743,-0.47471 c 2.345306,-0.30487 5.251322,-0.41314 8.122878,-0.30263 2.610917,0.1005 3.767067,0.0647 2.77887,-0.0859 -3.964938,-0.60461 -17.768797,-0.29217 -17.768797,0.40218 0,0.16055 -0.237443,0.29191 -0.527652,0.29191 -0.290212,0 -0.453199,-0.1205 -0.362195,-0.26772 0.091,-0.14724 -0.361314,-0.20623 -1.00515,-0.13105 -0.970058,0.11321 -1.101813,0.21955 -0.769045,0.6205 0.458904,0.55296 0.241713,0.84312 -1.228169,1.64082 l -1.01536,0.55105 1.353814,-0.20061 c 3.40481,-0.50453 24.378859,-0.40795 24.058236,0.11078 -0.07296,0.11807 0.576233,0.14723 1.442675,0.0648 l 1.575348,-0.14983 z m -31.400143,0.17028 c 0.103859,-0.10386 0.111852,-0.48315 0.01778,-0.84289 -0.134465,-0.51418 -0.361821,-0.60838 -1.063163,-0.44046 -1.137194,0.27227 -1.185823,0.32117 -0.944556,0.9499 0.190972,0.49766 1.591105,0.73227 1.989935,0.33345 z m 3.646977,-1.34289 c 0,-0.3003 -0.321634,-0.49901 -0.807719,-0.49901 -0.634479,0 -0.838945,0.21275 -0.953308,0.99196 -0.144998,0.98795 -0.141719,0.98997 0.80772,0.499 0.524319,-0.27113 0.953307,-0.71752 0.953307,-0.99195 z m 56.274283,-0.0441 c -0.22913,-0.0927 -0.68605,-0.0983 -1.01535,-0.0128 -0.329298,0.0858 -0.14182,0.16167 0.41663,0.16856 0.55845,0.006 0.82787,-0.0633 0.59872,-0.15602 z m 20.954385,-2.34119 c -0.14543,-1.24573 0.61832,-2.5136 1.51416,-2.5136 2.7112,0 -7.28266,-5.21827 -12.07217,-6.30346 -1.79098,-0.40578 -4.02209,-0.57073 -7.610565,-0.56261 -4.317426,0.01 -10.170146,0.50841 -10.561589,0.89984 -0.06366,0.0635 -0.03275,0.33155 0.06852,0.59544 0.127029,0.33106 0.584981,0.44156 1.477335,0.35646 1.157404,-0.1104 1.335726,-0.0207 1.697892,0.85363 0.289064,0.69783 0.322913,1.82864 0.118502,3.95814 -0.195613,2.0379 -0.172809,3.02078 0.07209,3.10628 0.684074,0.23887 11.563005,0.71068 17.942975,0.77817 3.52869,0.0374 6.47543,0.12754 6.54831,0.2004 0.0729,0.0729 0.31499,0.0626 0.53801,-0.0231 0.24809,-0.0952 0.35158,-0.61756 0.26658,-1.3456 z m 11.61777,0.87495 c -0.41296,-0.66819 -3.09456,-2.01151 -5.01235,-2.51091 -1.78548,-0.46492 -2.06976,-0.46083 -3.1307,0.0452 -0.64178,0.30606 -1.16689,0.65934 -1.16689,0.78508 0,0.12576 0.78793,0.32194 1.75097,0.43601 0.96302,0.1141 1.90731,0.36373 2.09841,0.55482 0.1911,0.19109 0.81198,0.36547 1.37972,0.38749 l 1.03229,0.04 -1.01536,0.25836 c -0.74393,0.18931 -0.30883,0.26908 1.62763,0.29841 1.66426,0.0252 2.56645,-0.0838 2.43628,-0.29439 z m -6.69397,-0.54695 c -0.11244,-0.11244 -0.40438,-0.12446 -0.6487,-0.0267 -0.26999,0.1081 -0.1898,0.18826 0.20447,0.20449 0.3568,0.0147 0.55669,-0.0653 0.44423,-0.17776 z m -43.913028,-0.97487 c 0.731824,-0.6623 1.231171,-0.66611 0.682684,-0.005 -0.365955,0.44095 -0.182323,0.50455 1.396984,0.4839 1.863833,-0.0244 4.011581,-0.57826 2.44036,-0.62935 -0.661864,-0.0215 -0.771538,-0.31478 -1.148039,-3.06986 -0.228945,-1.67534 -0.5502,-3.04607 -0.713898,-3.04607 -0.732837,0 -7.711413,1.82717 -9.082926,2.37815 -0.837672,0.33652 -1.903799,0.69399 -2.369173,0.79441 -0.465373,0.1004 -1.145385,0.40145 -1.511139,0.66896 -0.631056,0.46157 -0.596498,0.50613 0.676908,0.87315 0.738051,0.21272 2.712647,0.48809 4.38799,0.61194 3.344701,0.24725 2.754863,0.65185 -1.057665,0.72549 -1.140166,0.0221 -2.587052,0.15138 -3.215306,0.28747 l -1.142281,0.24739 1.353814,0.22933 c 2.365906,0.40079 8.662605,0.0286 9.301687,-0.54968 z m -43.316239,-1.39851 c 0,-1.04672 -0.08724,-1.14514 -1.01536,-1.14514 -0.925104,0 -1.015359,0.1003 -1.015359,1.1282 0,1.38191 0.129505,1.52552 1.192541,1.32231 0.695211,-0.13291 0.838178,-0.35555 0.838178,-1.30537 z m 4.01036,0.10105 c 0.488878,-0.58905 -0.41426,-1.92304 -1.301951,-1.92304 -0.941549,0 -1.116506,0.54754 -0.483603,1.51348 0.62103,0.9478 1.224052,1.08613 1.785554,0.40956 z m 89.080897,-0.28537 c -0.42021,-0.34028 -0.92355,-0.5201 -1.11852,-0.3996 -0.44618,0.27575 0.50947,1.01829 1.31056,1.01829 0.46702,0 0.43176,-0.11359 -0.19204,-0.61869 z m -85.117533,-1.33168 c 0.363002,-0.58734 -0.771322,-1.55159 -1.255587,-1.06733 -0.299988,0.29998 -0.29066,0.519 0.03903,0.91625 0.510552,0.61517 0.899859,0.66353 1.216561,0.15108 z m 100.415913,5.45144 c -0.60498,-0.36885 -1.09997,-0.75296 -1.09997,-0.85355 0,-0.10051 0.49499,0.087 1.09997,0.41693 0.60499,0.32992 1.40458,0.6994 1.77688,0.82109 l 0.67692,0.22125 -0.67692,0.0325 c -0.3723,0.0179 -1.17189,-0.26933 -1.77688,-0.63819 z m 2.8451,0.0818 c -0.2868,-0.46403 3.39687,-0.85771 4.11366,-0.43963 0.50543,0.2948 0.48887,0.33473 -0.14246,0.34383 -0.39285,0.005 -1.40082,0.1044 -2.23993,0.2194 -0.87451,0.11986 -1.61341,0.0671 -1.73127,-0.12357 z M 23.885072,139.25365 c 0,-0.18031 0.228457,-0.32783 0.50768,-0.32783 0.279225,0 0.50768,0.0599 0.50768,0.13302 0,0.0732 -0.228455,0.22069 -0.50768,0.32783 -0.279223,0.10721 -0.50768,0.0473 -0.50768,-0.13302 z M 113.69158,126.849 c 0.34326,-0.4063 0.83825,-0.65653 1.09998,-0.55609 0.58812,0.22568 0.63893,0.56413 0.0529,0.35178 -0.23271,-0.0843 -0.72769,0.0934 -1.09999,0.39486 -0.66718,0.54027 -0.66794,0.53754 -0.0529,-0.19055 z"
       id="path1" /></g></svg>
