<?xml version="1.0" encoding="UTF-8" standalone="no"?>
<!-- Created with Inkscape (http://www.inkscape.org/) -->

<svg
   width="210mm"
   height="297mm"
   viewBox="0 0 210 297"
   version="1.1"
   id="svg1"
   xml:space="preserve"
   inkscape:version="1.4.4 (dcaf3e7, 2026-05-05)"
   sodipodi:docname="bmw.svg"
   xmlns:inkscape="http://www.inkscape.org/namespaces/inkscape"
   xmlns:sodipodi="http://sodipodi.sourceforge.net/DTD/sodipodi-0.dtd"
   xmlns="http://www.w3.org/2000/svg"
   xmlns:svg="http://www.w3.org/2000/svg"><sodipodi:namedview
     id="namedview1"
     pagecolor="#ffffff"
     bordercolor="#000000"
     borderopacity="0.25"
     inkscape:showpageshadow="2"
     inkscape:pageopacity="0.0"
     inkscape:pagecheckerboard="0"
     inkscape:deskcolor="#d1d1d1"
     inkscape:document-units="mm"
     inkscape:zoom="0.68862935"
     inkscape:cx="397.16576"
     inkscape:cy="559.80768"
     inkscape:window-width="1920"
     inkscape:window-height="991"
     inkscape:window-x="-9"
     inkscape:window-y="-9"
     inkscape:window-maximized="1"
     inkscape:current-layer="layer1" /><defs
     id="defs1" /><g
     inkscape:label="Layer 1"
     inkscape:groupmode="layer"
     id="layer1"><path
       style="fill:#000000;stroke-width:0.985707"
       d="m 161.40587,182.03432 c -5.21625,-0.5001 -5.98559,-0.509 -16.16971,-0.18703 -12.03812,0.38058 -46.153447,0.21978 -59.984383,-0.28273 -12.682403,-0.46079 -20.868136,-0.42487 -26.862573,0.11788 -6.049122,0.5477 -7.329802,0.47967 -14.191718,-0.7537 -2.665742,-0.47916 -6.489853,-1.06325 -8.498026,-1.298 -4.839249,-0.56569 -8.614978,-1.29881 -9.426036,-1.83024 -0.642867,-0.42123 -0.647216,-0.44439 -0.180385,-0.96102 1.287082,-1.42438 4.765178,-2.49832 10.381535,-3.20552 1.860723,-0.2343 3.427505,-0.47037 3.481738,-0.5246 0.05423,-0.0542 0.012,-0.23875 -0.09387,-0.41004 -0.247356,-0.40022 -5.953121,-0.11508 -8.646673,0.43213 -1.474167,0.29948 -2.255742,0.32208 -3.651224,0.10558 -1.908789,-0.29615 -4.689064,-1.1116 -5.867262,-1.72088 -0.399928,-0.20681 -1.579352,-0.55285 -2.620943,-0.76898 -2.363527,-0.49043 -3.755766,-0.9651 -4.367841,-1.48917 -0.490225,-0.41974 -1.151227,-2.36899 -1.458707,-4.3016 -0.146736,-0.92229 -0.10506,-1.10841 0.248188,-1.10841 0.411401,0 0.582828,-0.53718 0.270953,-0.84906 -0.08447,-0.0845 -0.190035,-0.77885 -0.234587,-1.54307 -0.09266,-1.58939 0.285217,-2.57701 1.542477,-4.03144 l 0.853172,-0.98698 0.675596,1.03206 c 1.056759,1.61432 1.130494,2.29481 0.32917,3.03785 -0.657259,0.60944 -1.553628,0.7399 -2.490643,0.36248 -0.323152,-0.13016 -0.375482,0.0698 -0.300831,1.1495 0.102145,1.47733 0.614301,1.73618 1.499218,0.7577 0.273254,-0.30215 0.922452,-0.76659 1.442664,-1.0321 1.380431,-0.70455 1.515335,-1.47512 0.61348,-3.50417 -0.788941,-1.77503 -1.236919,-3.97857 -1.055198,-5.19037 0.09975,-0.66516 0.269868,-1.15467 0.37805,-1.08781 0.108181,0.0668 0.342967,-0.28295 0.521747,-0.77736 0.178779,-0.49441 0.449188,-0.89892 0.600908,-0.89892 0.186677,0 0.18195,-0.11314 -0.01462,-0.35 -0.159759,-0.1925 -0.231269,-0.40919 -0.15891,-0.48156 0.07236,-0.0724 -0.05009,-0.56633 -0.272127,-1.09772 -0.33089,-0.79193 -0.353446,-1.24323 -0.125078,-2.50261 0.253377,-1.39729 0.220431,-2.02311 -0.184019,-3.49554 -0.108916,-0.39651 -0.02891,-0.46662 0.403494,-0.35355 0.376745,0.0986 0.66013,-0.0433 0.939979,-0.4704 0.372441,-0.56841 0.360627,-0.63945 -0.167917,-1.00966 -0.312702,-0.21902 -0.507511,-0.45927 -0.43291,-0.53387 0.258866,-0.25886 2.571309,0.69529 2.571309,1.06097 0,0.20168 0.05101,0.36668 0.113351,0.36668 0.105706,0 2.176059,-0.40871 5.233083,-1.03308 0.717205,-0.14647 2.477616,-0.45069 3.912025,-0.67603 3.364049,-0.52848 6.141074,-1.18971 5.994252,-1.42728 -0.06349,-0.10274 0.336473,-0.24741 0.888817,-0.32149 0.552344,-0.0741 3.748,-1.02153 7.10146,-2.10544 3.35346,-1.0839 7.74025,-2.45467 9.748423,-3.04616 4.698009,-1.38373 4.575943,-1.33363 3.781624,-1.55212 -0.572959,-0.1576 -0.478104,-0.2291 0.782405,-0.58974 3.188483,-0.91224 4.073891,-1.06601 4.562758,-0.79243 0.302701,0.1694 0.775081,0.18252 1.283353,0.0357 1.69472,-0.48972 9.827451,-2.07029 13.192411,-2.56391 7.052043,-1.0345 10.697908,-1.34655 17.504137,-1.49822 7.722954,-0.17207 11.684564,0.0894 16.828654,1.11073 3.80542,0.75554 4.80269,1.08767 4.26457,1.42024 -0.59498,0.36772 -0.0674,0.63583 0.62786,0.31904 0.54133,-0.24664 1.02211,-0.0963 3.45673,1.08106 4.45307,2.15345 4.52315,2.19791 4.52315,2.87031 0,0.49702 0.53007,0.91748 2.93402,2.32739 1.61371,0.94642 4.33914,2.6069 6.05652,3.68993 2.18795,1.37979 3.3697,1.96915 3.94842,1.96915 0.45425,0 1.77722,0.18046 2.93993,0.40102 1.42821,0.27092 2.26704,0.31914 2.58568,0.1486 0.28836,-0.15432 0.61823,-0.1597 0.84881,-0.0138 0.20743,0.13124 0.72923,0.24221 1.15955,0.24659 1.06349,0.0109 0.31417,0.51041 -0.7824,0.52161 -0.69764,0.007 -1.94687,0.50488 -1.30401,0.51958 0.14344,0.003 0.96496,0.11693 1.82562,0.25255 0.86064,0.13562 3.03181,0.36829 4.82482,0.51705 1.79302,0.14875 4.31627,0.38617 5.60724,0.52761 1.29097,0.14144 3.57951,0.38245 5.08563,0.53559 5.93333,0.6033 10.46602,1.2555 15.5177,2.2328 3.13874,0.60723 3.83819,0.7796 5.99844,1.47826 1.71681,0.55525 4.04242,1.59063 4.04242,1.79973 0,0.12192 0.14671,0.22241 0.32601,0.22328 0.1793,8.9e-4 0.65202,0.17168 1.05048,0.37952 0.57796,0.30148 3.30598,1.11082 5.89132,1.74784 0.68446,0.16865 0.5137,-0.81973 -0.23357,-1.35182 -0.94534,-0.67315 -5.10133,-2.62066 -7.23608,-3.39086 -0.89994,-0.32468 -1.58362,-0.64299 -1.51927,-0.70733 0.14916,-0.14915 5.7884,2.09578 7.84995,3.12501 3.59527,1.79491 5.12427,2.83281 5.5008,3.73399 0.64867,1.55246 0.30371,2.00235 -0.49655,0.64762 -0.45787,-0.77511 -2.51507,-2.87353 -2.82222,-2.87875 -0.0909,-0.002 -0.2273,0.23475 -0.30323,0.5251 -0.10927,0.41788 0.0882,0.64146 0.94759,1.07264 1.50807,0.75668 2.36071,1.56437 1.93604,1.83396 -0.26077,0.16554 -0.26134,0.20955 -0.003,0.21271 0.51425,0.006 0.37996,1.25404 -0.19708,1.83108 -0.46277,0.46277 -0.75594,0.50641 -2.54281,0.37843 l -2.01974,-0.14466 0.7172,0.55614 c 0.39447,0.30587 0.71721,0.72238 0.71721,0.92559 0,0.20319 0.12428,0.36944 0.27619,0.36944 0.15191,0 0.21866,0.0931 0.14834,0.20687 -0.0703,0.11378 0.99754,0.15766 2.37301,0.0975 l 2.50088,-0.10939 -0.17156,2.05413 c -0.0943,1.12977 -0.52289,3.34509 -0.95231,4.92295 -0.4294,1.57784 -0.72439,2.38855 -0.65553,1.80157 0.0689,-0.58699 0.20116,-2.46476 0.29403,-4.17283 l 0.16882,-3.10558 -0.83559,0.78241 c -1.05486,0.98768 -1.92544,2.37944 -1.75404,2.8041 0.0783,0.19388 0.13971,0.14095 0.15198,-0.13089 0.0113,-0.25103 0.13794,-0.45641 0.28139,-0.45641 0.33115,0 0.34198,0.70145 0.014,0.90419 -0.14861,0.0919 -0.0967,0.57807 0.1304,1.22178 0.20749,0.58808 0.37725,1.51024 0.37725,2.04923 0,0.76067 0.11674,1.01053 0.5216,1.1164 0.29047,0.076 0.5216,0.35574 0.5216,0.63137 0,0.27223 0.34224,1.03461 0.76053,1.69417 l 0.76052,1.19922 -1.17743,0.29648 c -1.05353,0.26529 -1.16127,0.36087 -1.02384,0.90841 0.19286,0.76844 -0.16447,1.07006 -1.73668,1.46595 -0.91424,0.23021 -1.42295,0.23638 -1.95254,0.0237 -0.49439,-0.19856 -1.56425,-0.21726 -3.45461,-0.0604 -2.46601,0.20464 -2.81931,0.17826 -3.5516,-0.26519 -0.53738,-0.32541 -1.30268,-0.49243 -2.25641,-0.49243 -1.3398,0 -1.48109,0.0598 -1.97187,0.83496 l -0.52865,0.83496 3.0418,0.73992 c 2.9487,0.71727 4.22353,1.24921 4.22353,1.76231 0,0.95569 -9.89686,3.3874 -15.90891,3.90889 -3.70691,0.32155 -3.84455,0.31729 -10.56246,-0.32677 z m -108.689101,-2.4572 c -0.251022,-0.0657 -0.661784,-0.0657 -0.912806,0 -0.251022,0.0656 -0.04564,0.11927 0.456403,0.11927 0.502043,0 0.707424,-0.0537 0.456403,-0.11927 z m -2.151615,-0.27058 c -1.124245,-0.16006 -1.24732,-0.39055 -0.818114,-1.53211 0.210258,-0.55922 0.37835,-1.1928 0.373536,-1.40796 -0.0048,-0.21516 0.07646,-0.59659 0.180616,-0.84761 0.137418,-0.3312 0.06627,-0.4564 -0.259339,-0.4564 -0.357661,0 -0.423524,0.17157 -0.324603,0.84557 0.06826,0.46506 -0.06313,1.35077 -0.291991,1.96825 -0.482177,1.30098 -0.238148,1.63853 1.139895,1.57673 l 0.782405,-0.0351 z m 4.55656,-0.0611 c 0.409207,-0.25879 0.377621,-0.35567 -1.367531,-4.19444 -0.614781,-1.35232 -0.632572,-1.50421 -0.274924,-2.34721 l 0.382395,-0.90133 0.489069,0.59804 c 0.268989,0.32893 0.555513,1.15045 0.636723,1.82562 0.303141,2.52029 0.655723,4.32348 0.891481,4.55924 0.150391,0.1504 0.426949,0.13088 0.724731,-0.0512 0.458414,-0.28019 0.45672,-0.29088 -0.03529,-0.22263 -0.415635,0.0577 -0.573723,-0.1581 -0.807407,-1.10192 -0.159818,-0.64548 -0.365988,-1.91131 -0.458155,-2.81296 -0.140356,-1.37305 -0.09876,-1.66576 0.256051,-1.80192 0.558758,-0.21441 1.2759,0.26892 1.225663,0.82607 -0.03147,0.34904 0.100622,0.40696 0.626899,0.27488 0.778057,-0.19528 2.151393,0.29969 2.151393,0.77539 0,0.1803 -0.645483,0.77237 -1.434409,1.31573 -0.788925,0.54335 -1.434409,1.0301 -1.434409,1.08166 0,0.21638 1.623496,-0.76951 2.422743,-1.47127 0.579691,-0.50897 0.98263,-0.68674 1.221706,-0.53898 0.542884,0.33552 -0.227867,1.34578 -1.807784,2.36952 -0.722979,0.46848 -1.264201,0.90208 -1.202712,0.96357 0.16874,0.16874 2.26116,-1.34133 3.131699,-2.26011 0.746282,-0.78763 0.753139,-0.81894 0.260801,-1.19117 -0.278097,-0.21025 -1.322544,-0.81624 -2.320994,-1.34665 -0.99845,-0.53041 -2.10109,-1.2501 -2.450311,-1.59933 -0.349222,-0.34922 -0.568386,-0.46149 -0.487031,-0.24948 0.08135,0.212 0.01307,0.5203 -0.151742,0.68512 -0.225676,0.22567 -0.601162,-0.0401 -1.520877,-1.07662 l -1.221219,-1.37629 -0.871158,0.79047 c -1.625838,1.47526 -2.011437,1.73852 -2.292223,1.56499 -0.180745,-0.1117 0.04503,-0.75503 0.635571,-1.81102 0.503741,-0.90078 0.915894,-1.69691 0.915894,-1.76919 0,-0.0723 -0.762845,-0.45562 -1.69521,-0.85189 -1.692905,-0.71949 -2.217451,-1.41726 -1.108408,-1.47444 0.530652,-0.0274 0.537101,-0.0429 0.06738,-0.16165 -0.28568,-0.0723 -1.496426,-1.05624 -2.690547,-2.18657 -1.194121,-1.13034 -2.259081,-2.05516 -2.366576,-2.05516 -0.557127,0 -2.117108,3.99908 -2.117108,5.42729 0,0.63558 0.0082,0.63754 2.021212,0.48182 1.111668,-0.0859 2.608018,-0.22363 3.325222,-0.30586 0.720705,-0.0826 1.478999,-0.0312 1.695211,0.1148 0.334081,0.22571 0.296,0.35729 -0.260802,0.90114 l -0.652004,0.63684 -2.477616,-0.35881 c -3.60133,-0.52156 -3.651223,-0.51639 -3.651223,0.37776 0,1.63601 1.439366,5.2435 2.092127,5.2435 0.130316,0 0.632812,-0.34758 1.116658,-0.7724 0.647087,-0.56815 0.956636,-0.69549 1.17058,-0.48155 0.213944,0.21395 -0.01629,0.48565 -0.870646,1.02747 -0.638828,0.40513 -1.161504,0.84567 -1.161504,0.97898 0,0.64663 4.162001,3.68113 5.048897,3.68113 0.196972,0 0.742602,-2.31568 0.625201,-2.65338 -0.06612,-0.19021 -0.207935,0.16112 -0.315136,0.78073 -0.107202,0.61961 -0.361044,1.19032 -0.564095,1.26824 -0.479352,0.18394 -3.100545,-1.39603 -3.920327,-2.36306 l -0.63636,-0.75065 0.989316,-0.65252 c 0.544126,-0.3589 1.106678,-0.79424 1.25012,-0.96745 0.143441,-0.17321 0.436842,-0.38474 0.652004,-0.47008 0.294672,-0.11687 0.24184,-0.20037 -0.214104,-0.33837 -0.59843,-0.18112 -0.594206,-0.19458 0.371884,-1.18394 0.756985,-0.77522 1.144196,-0.98245 1.718316,-0.9196 0.852305,0.0933 0.866688,0.11217 0.637144,0.8354 -0.09422,0.29686 -0.595415,0.742 -1.113763,0.98918 -0.518348,0.24718 -0.884407,0.50747 -0.813464,0.57841 0.07094,0.071 0.430071,-0.008 0.798062,-0.17586 0.948205,-0.43204 1.574914,-0.12908 1.419102,0.68599 -0.06886,0.36024 -0.03645,0.70984 0.07202,0.77688 0.108476,0.067 0.271073,-0.27173 0.361327,-0.75283 0.09025,-0.48109 0.39354,-1.08235 0.67397,-1.33614 0.492378,-0.4456 0.519045,-0.43729 0.777304,0.24197 0.350592,0.92213 0.340869,1.06601 -0.138642,2.05161 l -0.406074,0.83466 0.732077,-0.84997 c 0.402641,-0.46747 0.857067,-0.84889 1.009834,-0.8476 0.308744,0.003 2.403339,4.01084 2.518141,4.81873 0.05449,0.38347 -0.1248,0.55691 -0.709486,0.68635 -0.707586,0.15664 -0.720056,0.17576 -0.130401,0.20006 0.358602,0.0148 0.824684,-0.0823 1.035737,-0.21581 z m -12.579479,-5.71316 c -0.242953,-0.41129 -0.620343,-1.43353 -0.838645,-2.27164 -0.355244,-1.36388 -0.355267,-1.54716 -2.15e-4,-1.74585 0.218183,-0.12211 0.319211,-0.34738 0.224507,-0.50061 -0.09919,-0.1605 -0.02018,-0.22794 0.186398,-0.15908 0.197221,0.0657 0.44028,0.59808 0.540132,1.18299 0.192308,1.12651 1.20613,3.33988 1.428126,3.11788 0.07229,-0.0722 -0.03679,-0.46508 -0.242395,-0.87287 -0.205607,-0.4078 -0.454557,-1.09352 -0.553219,-1.52384 -0.09866,-0.43033 -0.240402,-0.98779 -0.314978,-1.23882 -0.110874,-0.3732 0.02212,-0.45184 0.72959,-0.43137 1.553667,0.045 3.46187,0.60525 3.545811,1.04113 0.0747,0.38783 -3.6055,4.14987 -4.059595,4.14987 -0.112082,0 -0.402565,-0.33651 -0.645517,-0.74779 z m 8.993108,-1.13729 c -0.289679,-0.76745 -0.260775,-0.89889 0.326902,-1.48657 l 0.644679,-0.64468 0.64124,0.60242 c 0.623273,0.58554 0.629427,0.62719 0.21962,1.48656 -0.562666,1.17992 -1.395771,1.19914 -1.832441,0.0423 z m -3.880187,-2.43142 c -0.186269,-0.4854 0.860344,-1.68194 1.471204,-1.68194 0.234462,0 0.650913,0.16425 0.925445,0.36499 0.448227,0.32776 0.462119,0.43418 0.136178,1.04321 -0.294733,0.55071 -0.552354,0.67822 -1.370294,0.67822 -0.669498,0 -1.059375,-0.13564 -1.162533,-0.40448 z m -6.209835,-3.31194 c 0.266727,-1.60263 1.155811,-3.85953 1.585363,-4.02436 0.202987,-0.0779 0.539267,-3.7e-4 0.74729,0.17227 0.32407,0.26895 0.326537,0.39449 0.01724,0.87678 -0.466118,0.72682 -1.291753,3.28099 -1.117051,3.4557 0.07377,0.0737 0.383739,-0.68769 0.688824,-1.69211 0.305085,-1.00443 0.683673,-1.90594 0.841305,-2.00336 0.385263,-0.23811 3.148845,2.68725 3.045517,3.22379 -0.09197,0.47757 -2.620638,1.05671 -4.731227,1.08361 l -1.261732,0.0161 z m 131.479119,11.9753 c 0.10667,-0.10666 0.0362,-0.57088 -0.15672,-1.03159 -0.19286,-0.46071 -0.33433,-1.21907 -0.31437,-1.68525 0.028,-0.65306 -0.0705,-0.84761 -0.42894,-0.84761 -0.69555,0 -1.43418,-1.41618 -1.22807,-2.35459 0.0937,-0.42627 0.26975,-0.77503 0.39138,-0.77503 0.38549,0 1.30207,1.35194 1.30578,1.92598 0.0115,1.79154 0.74556,2.18783 2.00311,1.08148 l 0.73175,-0.64377 -0.91281,-0.0391 c -0.50204,-0.0215 -0.98127,-0.0317 -1.06494,-0.0228 -0.0837,0.009 -0.15214,-0.15313 -0.15214,-0.36031 0,-0.45568 0.34993,-0.50056 0.4956,-0.0636 0.0791,0.23757 0.14995,0.23942 0.2932,0.008 0.11899,-0.19253 -0.0562,-0.367 -0.47386,-0.47182 -0.76653,-0.19238 -0.90086,-0.89218 -0.17127,-0.89218 0.27027,0 1.45045,0.48001 2.62262,1.06671 1.53935,0.77046 2.10811,1.18664 2.04804,1.49859 -0.0457,0.23754 -0.82194,0.9898 -1.72485,1.67172 -0.90293,0.6819 -1.56501,1.23982 -1.4713,1.23982 0.29334,0 1.77387,-1.08546 2.7871,-2.04338 1.1903,-1.12534 1.11928,-1.24002 -1.66497,-2.68855 -1.12979,-0.58778 -2.29478,-1.4066 -2.58885,-1.8196 l -0.53471,-0.75093 0.86536,0.004 c 0.69823,0.003 1.26338,0.35552 2.92607,1.82561 1.13338,1.00209 2.16679,1.82199 2.29645,1.82199 0.42628,0 1.54541,-2.8381 1.69654,-4.30246 l 0.14813,-1.43518 h -1.02428 c -1.01352,0 -1.02471,0.0109 -1.06572,1.03919 -0.0228,0.57157 -0.28554,1.59102 -0.58387,2.26546 l -0.54244,1.22627 -1.30679,-1.28714 c -1.78743,-1.76055 -1.69089,-2.23402 0.53809,-2.63891 l 1.69522,-0.30793 -1.7476,0.14134 c -1.50653,0.12185 -1.84299,0.0663 -2.43919,-0.40266 l -0.69159,-0.54401 0.67291,-0.3066 c 0.51236,-0.23344 1.10631,-0.23502 2.48942,-0.007 0.99909,0.165 2.30912,0.29999 2.91118,0.29999 h 1.09466 l -0.14227,-1.37843 c -0.13276,-1.28632 -1.38742,-4.3592 -1.77986,-4.3592 -0.0966,0 -1.17071,0.9241 -2.38684,2.05355 -1.70687,1.58521 -2.15887,2.147 -1.98188,2.46324 0.18157,0.32448 -0.0228,0.52116 -0.98242,0.94566 -0.66642,0.2948 -1.29063,0.53598 -1.38715,0.53598 -0.0965,0 -0.30378,0.12829 -0.46058,0.28509 -0.20623,0.20622 -0.0425,0.71422 0.59202,1.83679 1.1329,2.00432 0.65212,2.35597 -1.0615,0.7764 -0.64005,-0.58996 -1.27455,-1.07266 -1.41002,-1.07266 -0.13547,0 -0.64814,0.46944 -1.13925,1.0432 -1.39863,1.63399 -2.09229,1.32023 -1.23891,-0.56039 0.76791,-1.69229 0.69062,-1.95563 -0.79495,-2.70842 -1.47871,-0.74932 -1.55016,-1.21651 -0.22273,-1.45648 l 0.89207,-0.16127 -0.81815,-0.0343 c -0.6511,-0.0273 -1.22944,-0.4456 -2.83236,-2.04852 l -2.01418,-2.01419 -0.47814,0.59047 c -0.68693,0.84832 -1.55082,3.29833 -1.55082,4.39814 v 0.94067 l 1.89081,-0.16343 c 1.03995,-0.0899 2.36026,-0.22901 2.93403,-0.30916 0.57376,-0.0801 1.21924,-0.0274 1.4344,0.11721 0.33726,0.22666 0.31325,0.34106 -0.17406,0.82952 -0.55103,0.55234 -0.62787,0.55832 -3.05345,0.23728 -1.36851,-0.18113 -2.65481,-0.26539 -2.85847,-0.18724 -0.50546,0.19397 -0.0955,2.43509 0.7867,4.30062 0.52917,1.119 0.7462,1.34944 1.15015,1.22123 0.54244,-0.17216 0.66088,0.13142 0.22237,0.56995 -0.35015,0.35015 1.8817,2.40548 3.46008,3.18639 l 1.1075,0.54795 0.31939,-0.60958 c 0.17567,-0.33527 0.44795,-1.65413 0.60507,-2.9308 0.19606,-1.59295 0.43302,-2.47023 0.75527,-2.79621 0.45365,-0.45891 0.48077,-0.44799 0.7998,0.3222 0.30268,0.73073 0.24072,1.00125 -0.74307,3.24443 -1.21463,2.76956 -1.24964,2.94734 -0.61687,3.13259 0.67138,0.19654 5.22841,0.0444 5.45494,-0.18214 z m -5.30367,-0.0666 c -0.4037,-0.18118 0.25712,-2.16475 0.97954,-2.94016 0.28573,-0.30671 0.46238,-0.55765 0.39254,-0.55765 -0.0699,0 -0.002,-0.35845 0.15068,-0.79655 0.48964,-1.4046 1.20819,-0.94095 2.53661,1.6368 0.64472,1.25107 1.08104,2.36601 0.9696,2.47763 -0.23183,0.23219 -4.56691,0.38729 -5.02897,0.17993 z m -3.43204,-1.59334 c -1.68237,-1.14135 -2.41957,-2.11045 -1.85309,-2.43605 0.20583,-0.11832 0.60896,-0.40566 0.89584,-0.63856 0.51321,-0.41663 0.51244,-0.41902 -0.048,-0.14825 -1.28575,0.62111 -1.15055,0.18404 0.43926,-1.42002 1.26531,-1.27666 1.85909,-1.69522 2.40488,-1.69522 1.32135,0 0.83054,1.10945 -0.87261,1.97251 -0.6993,0.35436 -1.27147,0.69809 -1.27147,0.76385 0,0.18081 1.21485,-0.3187 1.95571,-0.80413 1.3242,-0.86765 1.6401,0.62909 0.87198,4.13141 -0.33317,1.51909 -0.63883,1.55234 -2.52244,0.27446 z m -3.54972,-4.30332 c -0.85689,-1.91099 -1.08076,-3.07799 -0.59047,-3.07799 0.21709,0 0.44981,0.35244 0.54413,0.82406 0.0907,0.45324 0.23025,0.75863 0.31022,0.67865 0.20468,-0.20468 -0.16695,-2.04402 -0.38568,-1.90884 -0.0987,0.061 -0.34989,0.003 -0.5582,-0.12868 -0.52698,-0.33338 0.71688,-0.28874 2.96904,0.10655 2.46924,0.4334 2.55712,0.73874 0.78513,2.72802 -2.14268,2.40541 -2.32398,2.4513 -3.07417,0.77823 z m 17.53151,0.98583 c -0.41166,-0.30102 -0.39826,-0.43119 0.19229,-1.86769 0.34914,-0.84927 0.63758,-1.86686 0.64098,-2.26133 0.005,-0.60801 0.11537,-0.71659 0.7234,-0.71321 0.56232,0.003 0.63272,0.0594 0.326,0.26081 -0.3244,0.21294 -0.33077,0.29578 -0.0374,0.48503 0.41213,0.26578 0.23637,1.35059 -0.49545,3.05787 -0.55895,1.30398 -0.76747,1.46439 -1.34989,1.03852 z m -9.18968,-1.43312 c -0.36048,-0.6971 -0.35211,-0.80996 0.10156,-1.36921 l 0.49441,-0.60948 0.652,0.61144 c 0.5655,0.53034 0.61696,0.71198 0.38785,1.36922 -0.34583,0.99201 -1.12229,0.99108 -1.63582,-0.002 z m -3.20654,-2.11722 c -0.77416,-0.31117 -0.74347,-0.87244 0.0771,-1.41009 1.2,-0.78627 2.07401,-0.0599 1.41334,1.17456 -0.29398,0.54932 -0.59245,0.59648 -1.49043,0.23553 z m 6.25221,-0.4567 c -0.39255,-0.5991 -0.38782,-0.66544 0.0714,-1.0012 0.70307,-0.51409 1.26327,-0.44589 1.89941,0.23125 0.67832,0.72203 0.46615,1.12288 -0.68125,1.28714 -0.71122,0.10181 -0.9455,0.008 -1.28952,-0.51719 z m -12.22483,-3.06371 c 0.19919,-1.45324 1.1696,-3.77391 1.5781,-3.77391 0.16549,0 1.11559,0.821 2.11134,1.82445 1.56306,1.57511 1.75813,1.87227 1.42742,2.1744 -0.47124,0.43053 -2.79157,0.95639 -4.22002,0.95639 h -1.05876 z m 16.60287,0.82093 c -0.92852,-0.19575 -1.45965,-0.44633 -1.51098,-0.71285 -0.0745,-0.38683 2.17751,-3.09959 2.57312,-3.09959 0.10092,0 0.36604,0.44011 0.58915,0.97801 0.22312,0.5379 0.40755,0.80197 0.40986,0.5868 0.002,-0.21516 -0.15799,-0.68426 -0.35623,-1.04243 -0.37484,-0.6773 -0.13954,-1.30478 0.48927,-1.30478 0.46415,0 1.46944,2.26635 1.63852,3.69389 l 0.14938,1.26135 -1.27514,-0.0293 c -0.70132,-0.0161 -1.91944,-0.16511 -2.70695,-0.33113 z m 2.49366,-1.09265 c -0.0959,-0.3822 -0.23309,-0.63624 -0.30481,-0.56452 -0.0718,0.0718 -0.052,0.44311 0.044,0.82532 0.0959,0.38221 0.23309,0.63625 0.30481,0.56453 0.0718,-0.0718 0.052,-0.44312 -0.0441,-0.82533 z m -4.8819,11.68325 c -0.56575,-0.11441 -0.81977,-1.08944 -0.33252,-1.27641 0.20403,-0.0783 0.37096,-0.26152 0.37096,-0.40718 0,-0.16081 -0.1437,-0.14557 -0.36584,0.0388 -0.28093,0.23315 -0.39722,0.22544 -0.50101,-0.0332 -0.27112,-0.6757 -0.1773,0.49538 0.10443,1.30355 0.20947,0.60088 0.39163,0.76177 0.7172,0.63343 0.40161,-0.15832 0.40215,-0.17898 0.007,-0.25892 z m 2.12389,-2.79633 c 0.33635,-0.35804 0.54088,-0.72165 0.4545,-0.80804 -0.19038,-0.19037 -1.42147,0.67713 -1.60788,1.13301 -0.23076,0.56437 0.5154,0.35413 1.15338,-0.32497 z m -114.003441,-1.3703 c 0.611442,-1.20046 1.338078,-3.59842 1.338078,-4.41576 0,-0.53303 -0.1254,-0.60467 -1.058449,-0.60467 -0.582148,0 -1.897501,0.13018 -2.923009,0.28929 l -1.864559,0.2893 -0.731274,-0.81843 c -0.612095,-0.68506 -0.815783,-0.77321 -1.249818,-0.54093 -0.619232,0.3314 -0.690975,0.56977 -0.103656,0.34439 0.504594,-0.19363 1.778612,1.08515 1.58466,1.59058 -0.167661,0.43692 -1.63844,0.6674 -1.993451,0.31238 -0.325568,-0.32557 -0.35002,0.0849 -0.03471,0.58248 0.168321,0.26564 0.271931,0.27663 0.415661,0.0441 0.375983,-0.60836 1.567038,0.0468 3.578291,1.96837 1.115058,1.06531 2.143638,1.93694 2.285736,1.93694 0.142098,0 0.48252,-0.44011 0.756494,-0.97801 z m -2.808894,-1.16986 c -2.702829,-2.74174 -2.474024,-3.14391 1.960076,-3.4452 l 1.85553,-0.12608 -0.125181,1.09916 c -0.152631,1.3402 -1.000653,3.68441 -1.475357,4.07837 -0.270315,0.22435 -0.761815,-0.13206 -2.215068,-1.60625 z m 2.818161,-1.99867 c 0.337388,-1.04727 0.355796,-1.33029 0.08653,-1.33029 -0.109496,0 -0.339473,0.55745 -0.511061,1.2388 -0.675846,2.68366 -0.665504,2.60988 -0.246756,1.76042 0.212129,-0.43033 0.514212,-1.18134 0.671295,-1.66893 z m 131.074054,2.97604 c -0.43229,-0.19004 -1.31136,-0.38346 -1.95346,-0.42982 -0.94035,-0.0679 -1.18436,0.004 -1.25434,0.36681 -0.0767,0.39797 0.15345,0.4486 1.95347,0.42982 1.9236,-0.02 1.99536,-0.041 1.25433,-0.36681 z m 2.33324,-0.62669 c 0.18014,-0.29147 -1.02183,-0.53336 -1.42185,-0.28613 -0.20543,0.12696 -0.16457,0.2369 0.13008,0.34997 0.23627,0.0907 0.34931,0.29475 0.25118,0.45352 -0.13036,0.21093 -0.0334,0.21105 0.36015,4.3e-4 0.29621,-0.15852 0.60241,-0.39153 0.68044,-0.51779 z M 48.418228,171.67204 c 0.315992,-0.36906 0.348199,-0.52161 0.110121,-0.52161 -0.373707,0 -0.962413,0.51051 -0.962413,0.83457 0,0.36799 0.392718,0.22378 0.852292,-0.31296 z m -17.021996,-1.41085 c 0,-0.17928 -3.363808,-0.68324 -6.25924,-0.93773 -4.033771,-0.35454 -7.025741,-0.73028 -8.293831,-1.04154 -1.110799,-0.27266 -1.74925,-0.16508 -1.491863,0.25138 0.301931,0.48854 16.044934,2.18392 16.044934,1.72789 z m 114.185938,-1.53392 c 0.20811,-0.25074 0.14236,-0.42238 -0.25745,-0.67207 -0.42319,-0.26427 -0.50315,-0.50423 -0.37746,-1.13269 0.17572,-0.8786 1.11596,-1.85429 1.53647,-1.5944 0.15268,0.0943 0.18842,0.0375 0.0833,-0.13269 -0.10129,-0.16388 0.1153,-0.62091 0.48131,-1.01563 0.366,-0.39473 0.66546,-0.93118 0.66546,-1.19213 0,-0.26096 0.11736,-0.40193 0.2608,-0.31328 0.14344,0.0886 0.2608,-0.0874 0.2608,-0.3912 0,-0.3681 0.10877,-0.4898 0.32601,-0.36478 0.1793,0.10318 0.23756,0.0901 0.12948,-0.029 -0.10808,-0.11913 -0.0173,-0.49002 0.20161,-0.82422 0.21898,-0.33419 0.32375,-0.60763 0.23283,-0.60763 -0.0909,0 0.0885,-0.20553 0.39875,-0.45674 0.31023,-0.2512 0.59059,-0.63263 0.62302,-0.8476 0.0324,-0.21498 0.13596,-0.51382 0.23005,-0.66412 0.094,-0.15029 0.0782,-0.42356 -0.0354,-0.60727 -0.13629,-0.22052 -0.77063,0.70533 -1.86692,2.7249 -2.41676,4.45207 -2.31655,4.35491 -4.27496,4.14518 l -1.62327,-0.17384 -0.16756,1.39537 c -0.28939,2.40989 -0.25632,2.56682 0.54511,2.5873 0.39446,0.0101 0.95193,0.11921 1.23881,0.24248 0.7514,0.32289 1.07279,0.30532 1.38921,-0.076 z m -92.437273,-0.65211 c -0.156595,-0.10161 -0.331654,-0.31571 -0.389022,-0.47577 -0.05971,-0.16658 -0.316652,-0.21484 -0.600968,-0.11286 -0.471994,0.16931 -0.466238,0.2065 0.115922,0.74886 0.42678,0.39761 0.695417,0.48787 0.885683,0.29761 0.190266,-0.19027 0.186744,-0.32914 -0.01161,-0.45784 z m 117.029713,-0.003 c 0.12643,-0.34177 0.11015,-0.57338 -0.0403,-0.57338 -0.13882,0 -0.26065,0.14671 -0.27073,0.32601 -0.0104,0.18347 -0.0958,0.14209 -0.1956,-0.0946 -0.11304,-0.26828 -0.34462,-0.36083 -0.63919,-0.25546 -0.44204,0.15812 -0.44204,0.19011 0,0.74297 0.54409,0.6805 0.85486,0.64105 1.14581,-0.14546 z m -28.37733,-1.40989 c 0.0866,-1.03384 0.0978,-1.93952 0.0246,-2.01264 -0.35426,-0.35427 -51.783715,-0.97112 -52.668196,-0.63171 -0.30194,0.11586 -0.277861,0.31368 0.137217,1.1273 0.567415,1.11222 0.428151,1.07743 6.262482,1.56454 6.237197,0.52074 34.583707,1.72934 42.146847,1.797 l 3.9394,0.0352 z m -78.327943,0.77132 c -0.0068,-1.0411 -1.136704,-4.31839 -1.674216,-4.85591 -0.350302,-0.3503 -0.507746,-0.30102 -1.445301,0.45242 -0.578696,0.46506 -1.186356,0.76262 -1.350357,0.66126 -0.164002,-0.10136 -0.45521,0.0305 -0.647128,0.29292 -0.191919,0.26247 -0.427378,0.39877 -0.523243,0.30291 -0.237154,-0.23715 -0.874296,0.32101 -0.874296,0.76592 0,0.19759 0.19423,0.35927 0.431623,0.35927 0.388666,0 0.392053,0.0454 0.03403,0.4564 -0.218676,0.25102 -0.343131,0.60705 -0.276567,0.79117 0.06657,0.18413 -0.0085,0.49079 -0.166713,0.68147 -0.227626,0.27428 -0.164672,0.32413 0.301346,0.23865 0.323997,-0.0594 1.293249,0.0643 2.153895,0.27481 0.860645,0.21057 2.122273,0.39264 2.803618,0.40458 1.229299,0.0216 1.238766,0.0152 1.233307,-0.82587 z m -3.665262,0.2143 c -0.799672,-0.17549 -1.650537,-0.39449 -1.890812,-0.48669 -0.548096,-0.21033 -0.566888,-1.05545 -0.03332,-1.49827 0.324246,-0.26911 0.337058,-0.38178 0.06519,-0.57339 -0.260975,-0.18395 -0.248889,-0.21352 0.05285,-0.12932 0.215162,0.06 1.030774,-0.45914 1.812472,-1.15375 0.781698,-0.69461 1.502279,-1.26292 1.601289,-1.26292 0.459383,0 1.777229,3.68404 1.795897,5.02044 0.0077,0.5495 -1.151571,0.57807 -3.403585,0.0839 z m -10.29108,-1.41403 c -0.14695,-0.15469 -0.643051,0.23737 -0.643051,0.5082 0,0.14063 0.164204,0.10436 0.364898,-0.0806 0.200694,-0.18495 0.325863,-0.37737 0.278153,-0.4276 z m 39.273157,-1.05573 c -0.582308,-1.14141 -0.558157,-1.13562 -6.142393,-1.47331 -2.667763,-0.16133 -4.463804,0.1293 -3.412633,0.55222 0.366619,0.14751 7.655045,1.55451 9.872775,1.9059 0.110497,0.0175 -0.03249,-0.42565 -0.317749,-0.98481 z m 85.790198,-0.67856 c 1.4326,-1.27236 1.46355,-1.39957 0.18266,-0.75096 -1.09859,0.5563 -1.74747,1.14069 -1.74747,1.57378 0,0.52207 0.12388,0.45693 1.56481,-0.82282 z m -123.66607,0.30439 c 0.04879,-0.25156 -0.08211,-0.4348 -0.31061,-0.4348 -0.484501,0 -0.776918,0.42515 -0.547611,0.79618 0.235904,0.38169 0.756633,0.16243 0.858221,-0.36138 z m 4.740507,0.0868 c 0,-0.50117 -0.510028,-0.70705 -0.867076,-0.35 -0.197435,0.19744 0.296207,0.87161 0.638209,0.87161 0.125876,0 0.228867,-0.23473 0.228867,-0.52161 z m 109.797503,0.14579 c 0,-0.41536 -0.47319,-0.80275 -0.70157,-0.57436 -0.21454,0.21455 0.12036,0.95018 0.43258,0.95018 0.14795,0 0.26899,-0.16912 0.26899,-0.37582 z M 49.043812,164.79806 c 0,-0.19466 -1.099552,-0.90013 -2.443449,-1.56771 -1.343898,-0.66758 -2.511342,-1.39071 -2.59432,-1.60694 -0.09321,-0.24292 0.184425,-0.69539 0.726505,-1.184 1.100218,-0.9917 3.38316,-2.34243 3.664837,-2.16834 0.544026,0.33622 0.122383,1.0612 -0.947188,1.6286 -0.637419,0.33816 -1.370924,0.85381 -1.630011,1.14592 -0.460717,0.51941 -0.458494,0.52449 0.101215,0.23093 0.314753,-0.16509 0.645457,-0.41856 0.734899,-0.56329 0.262469,-0.42468 2.130728,-1.29348 2.348441,-1.0921 0.26409,0.24429 -0.11048,-1.31758 -0.383024,-1.59711 -0.453839,-0.46547 -4.348248,2.05829 -4.970613,3.22119 -0.225725,0.42178 -0.08705,0.59076 0.978307,1.19212 0.682722,0.38539 1.886798,1.14922 2.675723,1.69741 1.604593,1.11497 1.738678,1.16613 1.738678,0.66332 z m 4.093846,-0.81817 c -0.08225,-0.21434 -0.254606,-0.32477 -0.383017,-0.24541 -0.368232,0.22758 -0.272274,0.63511 0.149543,0.63511 0.232658,0 0.324312,-0.15298 0.233474,-0.3897 z m 112.747572,0.2181 c -0.0944,-0.0944 -0.0471,-0.3216 0.10502,-0.50493 0.31599,-0.38074 -0.10669,-1.40988 -0.57904,-1.40988 -0.15374,0 -0.21197,-0.17605 -0.1294,-0.39121 0.17846,-0.46506 0.0495,-0.48649 -0.65596,-0.10897 -0.3943,0.21102 -0.48685,0.44359 -0.36683,0.9218 l 0.16052,0.63955 -1.03274,-0.52686 c -0.56801,-0.28977 -1.11168,-0.65459 -1.20816,-0.81069 -0.31759,-0.51389 2.28329,-2.77477 3.70308,-3.219 0.47566,-0.14882 0.59169,-0.0496 0.74202,0.63493 0.23498,1.06988 0.44211,0.84218 0.22435,-0.24665 -0.15027,-0.7513 -0.24282,-0.82547 -0.84942,-0.68061 -0.95212,0.22738 -3.3353,1.89415 -3.95734,2.76772 l -0.51908,0.72899 1.11542,0.64014 c 2.16431,1.24213 3.63121,1.94932 3.24756,1.56567 z M 60.855088,161.90611 c 0.303783,-0.36603 0.191065,-0.57281 -0.862605,-1.58241 -1.048473,-1.00461 -3.746447,-2.66715 -3.937708,-2.42648 -0.218088,0.27442 -0.660317,1.94351 -0.636859,2.40366 0.01536,0.30134 0.140983,0.0423 0.279161,-0.57575 0.138177,-0.618 0.417563,-1.18746 0.620856,-1.26548 0.508426,-0.1951 2.38494,0.9579 3.597718,2.21058 l 1.004843,1.0379 -1.248078,0.73142 c -0.85132,0.49891 -1.281617,0.63082 -1.353575,0.41494 -0.200973,-0.60292 -1.082684,-0.88993 -1.488184,-0.48443 -0.204945,0.20495 -0.299975,0.44527 -0.211178,0.53408 0.0888,0.0888 0.0176,0.16145 -0.158211,0.16145 -0.175814,0 -0.242183,0.12536 -0.147488,0.27858 0.0947,0.15321 0.307003,0.228 0.471794,0.16619 0.164793,-0.0618 0.593024,-0.19147 0.951627,-0.28812 0.628772,-0.16945 0.62645,-0.16114 -0.0652,0.23335 -0.394462,0.22498 -0.717204,0.46546 -0.717204,0.53441 0,0.23515 3.549655,-1.6614 3.900292,-2.08389 z m 112.508072,1.553 c 0.28699,-0.287 0.41668,-0.30543 0.49504,-0.0704 0.0768,0.23048 0.2671,0.24668 0.68854,0.0587 0.56611,-0.25261 0.54915,-0.28973 -0.60681,-1.32846 -0.83008,-0.74589 -1.19005,-0.9415 -1.19206,-0.64776 -0.002,0.23146 -0.0756,0.86094 -0.16453,1.39884 -0.17357,1.05015 0.1069,1.26205 0.77982,0.58913 z M 49.648788,163.13078 c -0.002,-0.25102 -0.074,-0.7192 -0.160089,-1.04041 -0.150214,-0.56046 -0.18512,-0.56712 -0.865481,-0.16522 -0.389926,0.23033 -0.856611,0.65522 -1.037079,0.9442 -0.303448,0.4859 -0.277319,0.51266 0.34744,0.35585 0.395852,-0.0993 0.675563,-0.0595 0.675563,0.0962 0,0.14617 0.234721,0.26576 0.521604,0.26576 0.324254,0 0.520256,-0.17267 0.518042,-0.4564 z m 100.277752,-1.49961 c 0.3918,-0.7172 0.76062,-1.38445 0.8196,-1.48277 0.0589,-0.0984 0.39306,0.10706 0.74239,0.45641 1.32918,1.32917 2.36721,0.68906 5.87491,-3.62286 1.0309,-1.26725 6.86509,-3.42505 11.04392,-4.08462 4.44436,-0.70151 10.04173,1.19387 13.08024,4.42922 0.43032,0.4582 1.45572,1.17501 2.27866,1.59291 1.25768,0.63867 1.60622,0.97783 2.18582,2.12697 0.37925,0.75193 0.82086,1.45337 0.98135,1.55876 0.55781,0.36628 2.64584,0.18504 3.7759,-0.32774 0.6253,-0.28373 1.34732,-0.51588 1.60451,-0.51588 0.2733,0 0.57548,-0.29801 0.72724,-0.7172 0.1428,-0.39447 0.34005,-0.91522 0.43834,-1.15724 0.13877,-0.34173 -0.0939,-0.56425 -1.04192,-0.99608 -1.31183,-0.59762 -1.72417,-0.53701 -1.14181,0.16784 0.32662,0.39531 0.29755,0.42549 -0.28883,0.29991 -1.63681,-0.35055 -3.30035,-0.80908 -3.72704,-1.02729 -0.25685,-0.13136 -0.56127,-0.18057 -0.67648,-0.10937 -0.49229,0.30425 -2.33542,-0.51121 -3.42053,-1.51338 -2.53936,-2.34523 -4.6564,-3.61991 -7.7121,-4.6435 -1.53975,-0.51577 -2.32817,-0.60453 -5.32799,-0.59981 -3.31535,0.005 -3.67301,0.0575 -6.12884,0.8952 -1.43441,0.48931 -2.66669,0.96285 -2.73841,1.0523 -0.40073,0.49979 -4.63054,0.39243 -5.02043,-0.12743 -0.12267,-0.16356 -0.29135,-0.11495 -0.45241,0.1304 -0.14125,0.21517 -0.25861,0.26122 -0.2608,0.10235 -0.002,-0.16168 -0.72158,-0.36321 -1.63401,-0.45777 -1.02979,-0.10672 -1.91812,-0.37457 -2.41242,-0.72738 l -0.7824,-0.55846 0.80651,0.88583 c 0.44358,0.48721 0.95511,1.26366 1.13674,1.72544 0.36957,0.93965 0.12829,1.54756 -2.61678,6.59324 -0.74137,1.36269 -1.23035,2.36025 -1.08662,2.21681 0.14373,-0.14344 0.58188,-0.84761 0.97369,-1.56481 z m 28.17063,0.53772 c 0.50918,-0.40496 0.49108,-0.4424 -0.75969,-1.57098 -1.5811,-1.42666 -3.4277,-2.44905 -3.77766,-2.09155 -0.13781,0.1408 -0.33061,0.58006 -0.42843,0.97615 -0.13857,0.56104 -0.0959,0.6887 0.19306,0.57781 0.20402,-0.0783 0.91419,0.27247 1.57818,0.77946 0.66399,0.50699 1.3023,0.92121 1.41848,0.9205 0.29088,-0.002 -1.19264,-1.2233 -2.07076,-1.70504 -0.72902,-0.39995 -0.93537,-0.99687 -0.4486,-1.29771 0.52972,-0.32739 4.16502,2.31379 4.16502,3.02605 0,0.14102 -0.41076,0.49874 -0.9128,0.79496 -0.50204,0.29621 -0.91281,0.58866 -0.91281,0.6499 0,0.15776 1.33402,-0.56487 1.95601,-1.05955 z m -141.668504,-1.4213 c 0.544505,-1.1119 1.526711,-2.63516 2.182683,-3.38504 0.655972,-0.74988 1.149354,-1.39566 1.096406,-1.43508 -0.05295,-0.0394 -1.328558,-0.32825 -2.834688,-0.64185 -3.296759,-0.68644 -8.12564,-1.91584 -8.00377,-2.03772 0.04819,-0.0482 2.426216,0.43901 5.284502,1.08266 2.858286,0.64365 5.444418,1.17061 5.746959,1.17102 0.302541,4.2e-4 1.417468,-0.3988 2.477615,-0.88715 3.829076,-1.76383 5.424913,-2.11239 9.621191,-2.10148 3.448347,0.009 3.964828,0.0737 5.860395,0.73468 1.143323,0.39867 3.299007,1.39001 4.790409,2.20298 2.225121,1.21294 2.923585,1.74791 3.89294,2.98175 0.649716,0.82698 1.369369,1.50167 1.599231,1.49932 1.044698,-0.0108 2.552587,-1.25443 3.905664,-3.22139 2.158174,-3.13731 2.971575,-3.48341 8.844824,-3.76343 l 3.837146,-0.18294 -0.09009,-0.91281 c -0.04955,-0.50204 -0.122348,-0.94648 -0.161765,-0.98763 -0.03942,-0.0412 -2.834659,-0.14753 -6.211646,-0.23638 -5.979622,-0.15732 -6.88005,-0.10228 -11.662208,0.7129 -2.522844,0.43005 -8.547388,0.46112 -11.344873,0.0585 -2.927949,-0.42139 -5.235841,-0.30489 -8.215252,0.41468 -2.181601,0.52689 -4.89652,0.48463 -6.68901,-0.1041 -0.594976,-0.19542 -1.592542,-0.38252 -2.216814,-0.41579 -0.624272,-0.0332 -1.19372,-0.13829 -1.265441,-0.23342 -0.07172,-0.0951 -1.127967,-0.4743 -2.347215,-0.84263 -3.262589,-0.9856 -8.606558,-1.30766 -9.362403,-0.56424 -0.256916,0.2527 1.46762,2.28221 2.42895,2.85849 1.157002,0.69358 1.10004,0.87722 -0.08243,0.26574 -0.704635,-0.36438 -2.09341,-1.77689 -2.55105,-2.59465 -0.195662,-0.34963 -0.462862,-0.33405 -2.287669,0.13344 -2.466616,0.63188 -3.155221,0.96783 -4.168698,2.03382 -0.760897,0.80032 -0.763931,0.81594 -0.422517,2.1749 0.456088,1.81539 0.503193,1.87135 1.111791,1.32058 0.409315,-0.37043 0.956767,-0.4734 2.516924,-0.4734 1.869156,0 2.181376,0.0882 4.993051,1.41064 3.731524,1.75506 6.224061,3.37065 7.496214,4.85886 0.538912,0.63043 1.038521,1.14209 1.110241,1.13702 0.07172,-0.005 0.575904,-0.91897 1.120409,-2.03086 z m 133.453254,0.19168 c 0,-0.33532 -0.19124,-0.48171 -0.62931,-0.48171 -0.62053,0 -0.70111,0.34494 -0.45103,1.93073 0.0652,0.41372 1.08034,-0.94779 1.08034,-1.44902 z M 54.276539,160.68925 c 0.46341,-0.78105 0.916628,-1.79041 1.007149,-2.24301 0.156066,-0.78033 0.116145,-0.83201 -0.771315,-0.9985 -1.046211,-0.19627 -4.994951,-0.0718 -5.231661,0.16491 -0.08378,0.0838 -0.02086,0.52942 0.139813,0.99032 0.160673,0.46091 0.340526,0.78962 0.399675,0.73047 0.05915,-0.0591 -0.0064,-0.40723 -0.145663,-0.77353 -0.33049,-0.86925 -0.04586,-0.97226 2.672359,-0.96717 2.852871,0.005 3.036773,0.14065 2.365725,1.74051 -0.457018,1.08959 -0.616114,1.24524 -1.208872,1.18272 -0.826463,-0.0871 -1.053909,0.21861 -0.829036,1.11457 0.235288,0.93746 0.62194,0.71024 1.601826,-0.94129 z m 113.812141,-0.30123 c -0.25758,-0.25565 -0.28753,-0.2257 -0.14601,0.14599 0.098,0.25721 0.24378,0.40196 0.32407,0.32166 0.0803,-0.0803 1.7e-4,-0.29074 -0.17806,-0.46765 z m -0.54376,-1.338 c -0.31716,-0.83419 -0.24414,-0.87523 2.09729,-1.17837 1.2931,-0.16742 1.43669,-0.22287 0.63091,-0.24361 -0.98928,-0.0254 -2.91258,0.30874 -3.15145,0.54762 -0.061,0.061 0.0205,0.48801 0.18121,0.94892 0.16067,0.46091 0.34053,0.78961 0.39968,0.73047 0.0591,-0.0591 -0.0118,-0.42141 -0.15764,-0.80503 z m 5.15047,0.0679 c -0.0651,-0.19533 -0.18333,-0.0771 -0.27556,0.27554 -0.11343,0.43381 -0.0794,0.53563 0.11404,0.3421 0.15155,-0.15155 0.22424,-0.42949 0.16152,-0.61764 z m 0.13325,-1.03399 c -0.1532,-0.15319 -0.55614,-0.22589 -0.89543,-0.16157 -0.56622,0.10737 -0.55798,0.11988 0.10033,0.15248 0.39446,0.0195 0.7172,0.17244 0.7172,0.33979 0,0.16735 0.0802,0.22408 0.17821,0.12606 0.098,-0.098 0.0528,-0.30356 -0.10031,-0.45676 z m 20.65814,-2.06372 c 0.26519,-0.42909 -0.10368,-1.20481 -0.72525,-1.52515 l -0.58107,-0.29947 0.58681,0.14935 c 0.32274,0.0821 0.5868,0.0943 0.5868,0.0271 0,-0.28132 -1.90449,-1.21694 -2.47713,-1.21694 -0.62015,0 -1.11279,0.39861 -0.69769,0.56453 0.12036,0.0481 0.65009,0.76596 1.17719,1.59521 0.83687,1.31662 1.02238,1.47347 1.46346,1.23741 0.27782,-0.14868 0.57791,-0.38811 0.66688,-0.53207 z m -0.75785,-0.30053 c 0.0739,-0.11953 0.24476,-0.21734 0.37973,-0.21734 0.13498,0 0.24541,0.0978 0.24541,0.21734 0,0.11953 -0.17088,0.21733 -0.37973,0.21733 -0.20885,0 -0.31928,-0.0978 -0.24541,-0.21733 z m 1.74385,0.30453 c 0.075,-0.28675 0.03,-0.58707 -0.1,-0.6674 -0.12997,-0.0803 -0.23631,-0.0313 -0.23631,0.10882 0,0.14016 -0.0713,0.4405 -0.15831,0.66739 -0.087,0.22689 -0.0421,0.41253 0.1,0.41253 0.14206,0 0.31964,-0.2346 0.39463,-0.52134 z m -5.13178,-0.84787 c -0.0383,-0.32274 -0.14522,-0.76284 -0.23743,-0.97801 -0.0922,-0.21516 -0.2829,-0.70688 -0.42377,-1.09271 -0.3256,-0.89181 -1.70331,-1.30645 -3.60017,-1.08351 -1.50793,0.17723 -1.87939,0.60971 -0.52761,0.61429 0.46618,0.002 1.28065,0.0744 1.80992,0.16198 0.8287,0.13701 1.02205,0.30863 1.39246,1.23593 0.23657,0.59226 0.55139,1.22353 0.69962,1.40284 0.44217,0.53489 0.9634,0.38164 0.88698,-0.26081 z m -1.98537,-0.63519 c 0,-0.26458 -1.09817,-1.38602 -1.35728,-1.38602 -0.12273,0 0.0372,0.35208 0.35531,0.7824 0.54213,0.73327 1.00197,1.01029 1.00197,0.60362 z m -40.39432,-0.82237 c -0.91573,-1.28604 -1.10972,-1.36249 -2.44077,-0.9619 -0.91433,0.27517 -1.23905,0.28855 -1.33422,0.055 -0.0692,-0.1698 -0.13506,0.0646 -0.14638,0.52074 -0.0238,0.95556 0.17899,1.03452 2.80079,1.09103 l 1.64776,0.0355 z m -4.46755,-0.10725 c -0.002,-0.32274 -0.0902,-0.46944 -0.19561,-0.326 -0.24304,0.33081 -1.10441,0.40991 -1.10441,0.10143 0,-0.12751 -0.17604,-0.23183 -0.3912,-0.23183 -0.21517,0 -0.39121,0.11736 -0.39121,0.2608 0,0.14345 -0.67482,0.28195 -1.4996,0.30778 -1.48865,0.0466 -1.48532,0.0482 0.4564,0.21382 1.0758,0.0918 2.22007,0.18798 2.54282,0.21382 0.44959,0.036 0.58586,-0.0902 0.58281,-0.53982 z m -6.19006,-0.12346 c -0.46618,-0.0579 -1.22902,-0.0579 -1.69521,0 -0.46618,0.0579 -0.0848,0.10519 0.84761,0.10519 0.93237,0 1.31379,-0.0473 0.8476,-0.10519 z m -32.4046,-0.88906 c 8.57366,-0.0233 12.81464,-0.11259 11.34487,-0.23884 -4.38686,-0.37684 -30.182095,-1.57969 -30.346694,-1.41509 -0.05462,0.0546 -0.01801,0.53269 0.08136,1.06237 l 0.18067,0.96306 2.523853,-0.16714 c 1.388119,-0.092 8.685292,-0.18389 16.215941,-0.20436 z m 46.56815,-0.98434 c -0.30374,-0.49145 -2.60469,-1.84972 -3.12419,-1.84423 -0.35671,0.004 -0.15681,0.18057 0.58456,0.51701 0.61964,0.2812 1.42765,0.74807 1.79558,1.03748 0.72054,0.56678 0.97698,0.66664 0.74405,0.28974 z m -4.83988,-1.02409 c 0,-0.11953 -0.17088,-0.21733 -0.37973,-0.21733 -0.20886,0 -0.31928,0.0978 -0.24542,0.21733 0.0739,0.11953 0.24477,0.21733 0.37974,0.21733 0.13497,0 0.24541,-0.0978 0.24541,-0.21733 z m 0.9128,-0.0435 c -0.0886,-0.14344 -0.27162,-0.2608 -0.40659,-0.2608 -0.13497,0 -0.24541,0.11736 -0.24541,0.2608 0,0.14344 0.18296,0.2608 0.40659,0.2608 0.22363,0 0.33407,-0.11736 0.24541,-0.2608 z M 20.442562,148.92679 c 0,-0.11291 -0.498782,-0.1936 -1.108407,-0.1793 -0.92309,0.0217 -0.999397,0.059 -0.456403,0.22391 0.81431,0.24719 1.56481,0.22579 1.56481,-0.0447 z m 4.752706,-2.19848 c 0.32655,-0.47964 0.769769,-0.87364 0.984931,-0.87558 0.215162,-0.002 0.743285,-0.23666 1.173608,-0.52166 0.430322,-0.28499 0.658135,-0.51894 0.506249,-0.51988 -0.151885,-9.5e-4 -0.503967,0.17058 -0.782405,0.38119 -0.655013,0.49543 -0.919043,0.49842 -0.730963,0.008 0.24181,-0.63015 -0.278331,-0.44882 -0.561048,0.1956 -0.146438,0.33378 -0.538583,0.62443 -0.909449,0.67408 -0.804557,0.10771 -1.348577,0.56473 -0.672231,0.56473 0.392916,0 0.419023,0.0678 0.150627,0.39119 -0.178568,0.21516 -0.456999,0.39121 -0.618737,0.39121 -0.161738,0 -0.294069,0.2863 -0.294069,0.63622 v 0.6362 l 0.57988,-0.54476 c 0.318932,-0.29963 0.847056,-0.9372 1.173607,-1.41684 z m 71.922985,1.76953 c 0,-0.24919 -2.501669,-0.55876 -4.515353,-0.55876 -1.961798,0 -1.342606,0.23647 1.27925,0.48855 3.303163,0.31757 3.236103,0.31612 3.236103,0.0702 z m -73.41567,-2.35134 c 0.547478,-1.10259 0.934413,-1.57904 1.288655,-1.58678 0.501132,-0.0109 0.501132,-0.007 0,0.39277 -0.429371,0.3425 -0.373853,0.33958 0.365591,-0.0192 0.479514,-0.23269 0.813496,-0.48141 0.742184,-0.55273 -0.221989,-0.22198 -6.96046,0.22886 -6.96046,0.4657 0,0.12321 0.09477,0.22403 0.210598,0.22403 0.115828,0 0.572468,0.51339 1.014755,1.14087 0.673184,0.95505 0.925602,1.12787 1.549814,1.06108 0.676191,-0.0724 0.70185,-0.0474 0.27543,0.26721 -0.347316,0.25628 -0.3814,0.37879 -0.130401,0.4687 0.508383,0.1821 0.784087,-0.13013 1.643834,-1.86163 z m -1.56481,-0.65833 c 0.498816,-0.41091 0.47723,-0.42216 -0.494104,-0.2573 -0.711889,0.12083 -0.962411,0.0862 -0.837531,-0.1159 0.26259,-0.42488 3.026845,-0.30453 3.026845,0.13178 0,0.18982 -0.20538,0.34672 -0.456402,0.34869 -0.251022,0.002 -0.749804,0.0753 -1.108408,0.16299 -0.63878,0.1562 -0.641425,0.15072 -0.1304,-0.27026 z m 5.411635,0.88938 c 0.681344,-0.59994 1.238808,-1.19158 1.238808,-1.31474 0,-0.12317 -0.381423,0.12892 -0.847606,0.5602 -0.466183,0.43128 -1.166667,0.97591 -1.55663,1.21031 -0.389965,0.23439 -0.768745,0.58179 -0.841737,0.772 -0.197525,0.51474 0.541965,0.0624 2.007165,-1.22777 z m -6.324441,-2.44623 c 0,-0.1408 -2.043407,-1.46906 -2.260016,-1.46906 -0.101633,0 0.15253,0.35207 0.564805,0.7824 0.611914,0.6387 1.695211,1.0775 1.695211,0.68666 z m 107.867093,-0.90604 c -0.0745,-0.12065 -0.91399,-0.24456 -1.86539,-0.27536 -1.16023,-0.0376 -1.67379,0.0347 -1.55963,0.21936 0.0936,0.15146 0.93303,0.27538 1.8654,0.27538 0.93236,0 1.63419,-0.0987 1.55962,-0.21938 z m -8.76246,-0.90207 c 0,-0.18647 -0.1077,-0.45053 -0.23934,-0.58681 -0.13164,-0.13626 -0.32012,-0.7993 -0.41884,-1.4734 -0.16358,-1.11695 -0.1156,-1.28487 0.54102,-1.8934 0.39629,-0.36727 0.67278,-0.70392 0.61445,-0.74812 -0.48987,-0.37109 -6.64822,-3.5909 -7.66933,-4.00981 -4.86581,-1.99615 -11.18052,-2.75881 -19.038527,-2.29938 l -3.390421,0.19823 1.330214,0.58866 c 1.651718,0.73094 1.737599,1.05548 1.391076,5.2567 -0.240059,2.91044 -0.225501,3.11366 0.251109,3.50536 0.560783,0.46088 1.115934,0.50874 13.327709,1.14872 4.23151,0.22176 7.98705,0.44166 8.34565,0.48867 0.3586,0.047 1.62023,0.10306 2.80362,0.12454 1.6116,0.0293 2.15161,-0.046 2.15161,-0.29996 z m -28.387078,-2.03439 c -0.479877,-0.43633 -0.944734,-0.72109 -1.033014,-0.63281 -0.182932,0.18293 1.24751,1.42176 1.644715,1.4244 0.143441,9.6e-4 -0.131825,-0.35525 -0.611701,-0.79159 z m 29.436878,-0.6394 c 0.60566,-1.25112 0.52568,-1.71852 -0.2147,-1.25461 -0.3941,0.24694 -0.8275,2.44183 -0.48216,2.44183 0.0672,0 0.38076,-0.53424 0.69686,-1.18722 z m 10.16468,0.42614 c 0,-0.67725 -0.3742,-1.06201 -1.00591,-1.03428 -0.47547,0.0209 -0.54178,0.0684 -0.21376,0.15321 0.26731,0.0691 0.41649,0.27691 0.34067,0.4745 -0.0742,0.19336 0.005,0.40855 0.17645,0.47821 0.50209,0.20425 0.70255,0.18382 0.70255,-0.0717 z m -49.945122,-0.54035 c 0.159038,-0.25733 -0.336054,-6.556 -0.530613,-6.75056 -0.267478,-0.26748 -13.170307,2.56571 -15.637496,3.43367 -1.19953,0.42199 -1.520006,1.13737 -0.604132,1.34858 0.56178,0.12954 13.042944,1.82088 15.078625,2.04332 0.502043,0.0548 1.052581,0.11852 1.223416,0.14148 0.170836,0.023 0.382426,-0.0744 0.4702,-0.21649 z m 10.564062,-2.90029 v -1.27512 h -0.912805 -0.912806 v 1.47087 c 0,1.09489 0.11666,1.55945 0.456403,1.81749 0.715866,0.54372 1.369208,-0.41694 1.369208,-2.01324 z m 33.51117,1.33589 c 0.0914,-0.14784 -0.0133,-0.19156 -0.24541,-0.1025 -0.45182,0.17338 -0.53448,0.36032 -0.15934,0.36032 0.13499,0 0.31711,-0.11602 0.40475,-0.25782 z m -32.550607,-0.83429 c -0.08325,-0.20805 -0.145054,-0.14626 -0.157568,0.15757 -0.01133,0.27492 0.05032,0.42896 0.136979,0.34229 0.08666,-0.0866 0.09593,-0.3116 0.02059,-0.49986 z M 89.0334,133.31949 c 0,-0.15152 0.374791,-0.61782 0.832869,-1.03621 1.0191,-0.9308 0.806916,-1.27894 -0.364181,-0.59752 -0.577796,0.33619 -0.886963,0.73143 -0.942413,1.20479 -0.04539,0.38744 0.04263,0.70444 0.195601,0.70444 0.152968,0 0.278124,-0.12397 0.278124,-0.2755 z m 93.6278,13.05478 c -0.47673,-0.30808 -0.065,-0.30808 0.65201,0 0.34393,0.1478 0.38835,0.22903 0.1304,0.23848 -0.21516,0.008 -0.56725,-0.0994 -0.78241,-0.23848 z m -2.39611,-0.69975 c 0.18827,-0.0753 0.41321,-0.066 0.49987,0.0206 0.0866,0.0866 -0.0673,0.1483 -0.34231,0.13697 -0.30381,-0.0125 -0.36561,-0.0743 -0.15756,-0.15756 z M 20.964166,139.59344 c 0,-0.14344 0.182967,-0.2608 0.406594,-0.2608 0.223626,0 0.334061,0.11736 0.24541,0.2608 -0.08865,0.14344 -0.271619,0.26079 -0.406595,0.26079 -0.134975,0 -0.245409,-0.11735 -0.245409,-0.26079 z m 45.853355,-11.73728 c 0.680491,-0.77551 0.705673,-0.7812 3.450299,-0.7812 1.520644,0 3.929745,-0.17299 5.353559,-0.38441 3.511815,-0.52148 10.993435,-1.18867 12.829501,-1.14412 1.063329,0.0258 0.704201,0.0976 -1.243091,0.24857 -7.715638,0.59813 -15.201775,1.59172 -20.513544,2.72266 -0.534831,0.11386 -0.528826,0.0816 0.123276,-0.6615 z"
       id="path1" /></g></svg>
