<?xml version="1.0" encoding="UTF-8" standalone="no"?>
<!-- Created with Inkscape (http://www.inkscape.org/) -->

<svg
   width="210mm"
   height="297mm"
   viewBox="0 0 210 297"
   version="1.1"
   id="svg1"
   xml:space="preserve"
   inkscape:version="1.4.4 (dcaf3e7, 2026-05-05)"
   sodipodi:docname="lamborghini.svg"
   xmlns:inkscape="http://www.inkscape.org/namespaces/inkscape"
   xmlns:sodipodi="http://sodipodi.sourceforge.net/DTD/sodipodi-0.dtd"
   xmlns="http://www.w3.org/2000/svg"
   xmlns:svg="http://www.w3.org/2000/svg"><sodipodi:namedview
     id="namedview1"
     pagecolor="#ffffff"
     bordercolor="#000000"
     borderopacity="0.25"
     inkscape:showpageshadow="2"
     inkscape:pageopacity="0.0"
     inkscape:pagecheckerboard="0"
     inkscape:deskcolor="#d1d1d1"
     inkscape:document-units="mm"
     inkscape:zoom="0.68862935"
     inkscape:cx="397.16576"
     inkscape:cy="559.80768"
     inkscape:window-width="1920"
     inkscape:window-height="991"
     inkscape:window-x="-9"
     inkscape:window-y="-9"
     inkscape:window-maximized="1"
     inkscape:current-layer="layer1" /><defs
     id="defs1" /><g
     inkscape:label="Layer 1"
     inkscape:groupmode="layer"
     id="layer1"><path
       style="fill:#000000;stroke-width:1.32466"
       d="M 45.203655,171.36422 C 43.2514,171.14418 28.696238,168.1658 26.752893,167.5887 c -2.153817,-0.63962 -4.107445,-1.90849 -4.274573,-2.77632 -0.06823,-0.3543 0.206682,-1.09151 0.610918,-1.63827 0.404235,-0.54676 0.734974,-1.0592 0.734974,-1.13875 0,-0.0795 -0.663599,-0.25076 -1.474662,-0.38044 -2.798607,-0.44752 -4.364799,-1.40696 -5.697452,-3.49024 -1.249506,-1.95329 -1.576706,-3.4888 -1.099589,-5.16027 0.220482,-0.7724 0.04313,-1.11636 -1.166627,-2.26273 -1.800407,-1.70607 -1.827836,-2.25821 -0.112318,-2.2611 1.106522,-0.001 1.413682,-0.17678 1.942859,-1.10634 0.482362,-0.84733 0.531539,-1.19326 0.211445,-1.48734 -0.307198,-0.28224 -0.351929,-0.26777 -0.169761,0.0548 0.149219,0.26431 0.04216,0.4381 -0.269858,0.4381 -0.284461,0 -0.609974,0.19715 -0.723362,0.43811 -0.113391,0.24095 -0.117484,-0.41719 -0.0091,-1.46256 0.246517,-2.37758 0.649944,-3.17007 1.500541,-2.94763 0.987822,0.25832 1.665063,-1.59504 1.136696,-3.11071 -0.262982,-0.75439 -0.278472,-1.18655 -0.04532,-1.26428 0.194835,-0.0649 -0.1149,-0.6186 -0.688312,-1.23036 -1.14387,-1.22037 -1.346757,-1.82849 -0.501875,-1.50428 0.311903,0.11975 0.452586,0.0609 0.329798,-0.13774 -0.117776,-0.19056 -0.441397,-0.34648 -0.71917,-0.34648 -0.798422,0 -0.588254,-0.67808 0.341463,-1.10167 0.465577,-0.21214 0.92196,-0.67426 1.014187,-1.02692 0.123272,-0.47141 0.641664,-0.70411 1.957359,-0.87865 0.984321,-0.13061 1.789675,-0.38109 1.789675,-0.5567 0,-0.17561 -0.313717,-0.93423 -0.69715,-1.68581 -0.620769,-1.21681 -0.965491,-1.45295 -3.146347,-2.15535 -1.347058,-0.43384 -2.361248,-0.87677 -2.253756,-0.98425 0.256762,-0.25676 5.568496,-1.03981 7.182475,-1.05883 1.381835,-0.0163 3.587669,0.91485 3.293779,1.39038 -0.101549,0.16431 1.6e-5,0.41288 0.22571,0.55237 0.275072,0.17 0.315774,0.10054 0.123458,-0.21058 -0.217693,-0.35224 -0.125088,-0.3967 0.38395,-0.1843 0.368962,0.15393 2.474421,0.41914 4.678798,0.58935 5.148785,0.39756 7.733211,1.42191 7.733211,3.0651 0,0.57759 0.128413,1.12952 0.28537,1.22653 0.156955,0.097 1.221546,-0.0301 2.365759,-0.28226 17.132526,-3.77683 26.392767,-5.22427 29.090792,-4.54712 0.803705,0.20172 0.472562,0.39429 -2.347637,1.36521 -1.805829,0.62169 -5.254791,1.92865 -7.664358,2.90434 l -4.381034,1.77399 -9.287791,0.20479 c -5.108285,0.11259 -9.918659,0.2826 -10.689721,0.3777 -1.343568,0.1657 -1.314387,0.13587 0.700965,-0.7165 1.156593,-0.48917 1.708603,-0.81252 1.22669,-0.71855 -0.481914,0.0939 -1.543639,0.27694 -2.359387,0.40662 -0.81575,0.12969 -1.408963,0.35586 -1.318253,0.50263 0.189283,0.30627 -1.022462,0.68521 -2.21363,0.69225 -0.445098,0.003 -0.713205,0.16022 -0.595791,0.3502 0.131141,0.21219 1.407113,0.2607 3.307997,0.12571 2.466575,-0.17508 3.248925,-0.11153 3.855423,0.3133 0.686814,0.48106 0.966971,0.46882 2.877359,-0.12571 1.610401,-0.50123 3.177467,-0.65674 6.553884,-0.65041 l 4.437429,0.008 -1.985084,0.81649 c -1.091795,0.44908 -2.984402,1.50993 -4.205791,2.35745 l -2.22071,1.54094 -3.299908,-0.0872 c -1.814951,-0.0479 -3.375168,-0.16241 -3.46715,-0.2544 -0.09199,-0.0919 0.03225,-0.40762 0.276099,-0.70143 0.295219,-0.35571 1.064335,-0.5342 2.30201,-0.5342 1.451622,0 2.49355,-0.30701 4.757683,-1.40192 l 2.899013,-1.40193 -1.909114,0.008 c -1.255917,0.005 -2.628615,0.31653 -4.012011,0.90912 -3.095944,1.32623 -3.409529,1.34792 -4.896548,0.3388 -1.41812,-0.96237 -1.656909,-1.01842 -2.909078,-0.68293 -0.643344,0.17238 -0.716322,0.30924 -0.38059,0.71377 0.816684,0.98405 -0.393205,1.41838 -4.956884,1.77945 -2.763564,0.21865 -4.536006,0.22392 -4.800786,0.0143 -0.266152,-0.21072 -0.65091,-0.20257 -1.051448,0.0222 -0.790389,0.44368 -1.050481,0.34665 5.852234,2.18341 2.987865,0.79506 5.51134,1.53021 5.607722,1.63366 0.09638,0.10346 -0.29791,0.0729 -0.876206,-0.0679 -0.578297,-0.14085 -2.865196,-0.46218 -5.081998,-0.71407 -2.216804,-0.2519 -4.330163,-0.57906 -4.696354,-0.72705 -0.580641,-0.23466 -0.636322,-0.1516 -0.435307,0.6493 0.581479,2.3168 0.87546,2.72771 1.787681,2.49876 0.708469,-0.17781 0.951336,-0.0472 1.288549,0.69289 0.228542,0.50159 0.547933,0.93171 0.709757,0.95581 0.161823,0.0241 0.412512,0.0764 0.557087,0.11617 0.144575,0.0399 0.736014,0.18735 1.314311,0.32785 0.578295,0.1405 1.325312,0.40364 1.660036,0.58476 0.952037,0.51516 1.484187,0.39656 2.34843,-0.52339 0.6592,-0.70168 0.954548,-0.79434 1.667677,-0.52321 0.979026,0.37223 1.508751,0.17125 1.508751,-0.57242 0,-0.27777 -0.322797,-0.50504 -0.717328,-0.50504 -0.699665,0 -0.701823,-0.0219 -0.08763,-0.88564 0.489115,-0.68791 0.878535,-0.86077 1.744191,-0.77421 0.612966,0.0613 1.043279,-0.004 0.956252,-0.1446 -0.08703,-0.14082 0.121179,-0.23937 0.462688,-0.21901 0.341507,0.0204 1.803799,-0.24338 3.249539,-0.58608 3.7725,-0.89427 10.419054,-0.93344 12.96786,-0.0764 3.020696,1.01565 6.385234,2.74811 6.304483,3.24627 -0.0266,0.16413 0.143132,0.36223 0.377186,0.44025 0.271718,0.0906 0.323785,-0.0228 0.144033,-0.31367 -0.197928,-0.32024 -0.120597,-0.39375 0.260425,-0.24753 0.298071,0.11431 2.80799,-0.49465 5.577597,-1.35338 5.333516,-1.65368 10.69079,-2.96971 15.024407,-3.69081 l 2.62862,-0.43737 -5.082,-0.71379 c -2.795099,-0.39258 -4.63518,-0.76813 -4.089069,-0.83455 0.54611,-0.0665 2.911867,0.12412 5.257239,0.4234 2.345371,0.29929 5.052898,0.62186 6.016725,0.71681 0.963828,0.095 9.32284,1.13091 18.575586,2.30215 9.25274,1.17123 19.26034,2.43782 22.23911,2.81466 2.97877,0.37684 6.76398,0.92099 8.41158,1.20921 4.3323,0.75785 4.6509,0.71403 3.28514,-0.45181 -1.81888,-1.55262 -3.18176,-2.24986 -3.47388,-1.7772 -0.15829,0.25614 -0.1016,0.31628 0.15112,0.16013 0.22254,-0.13756 0.40463,-0.0986 0.40463,0.0868 0,0.43584 -1.92872,1.10641 -3.18233,1.10641 -1.36275,0 -3.51055,-1.41186 -3.33234,-2.19051 0.0772,-0.33734 0.0199,-0.61334 -0.12743,-0.61334 -0.3301,0 -17.32433,-2.2362 -22.66573,-2.98249 -2.14386,-0.29953 -5.77136,-0.77018 -8.061107,-1.04588 -3.686945,-0.44395 -9.17951,-1.1477 -18.182501,-2.32965 -1.709598,-0.22445 -5.265954,-0.27586 -9.11255,-0.13167 -4.150585,0.1555 -6.188793,0.11802 -5.958205,-0.10955 0.837232,-0.82618 16.402183,-5.98939 18.25033,-6.05401 1.008408,-0.0352 1.004928,-0.0413 -0.200473,-0.3511 -0.674679,-0.17339 -2.567286,-0.53625 -4.205792,-0.80639 l -2.979102,-0.49115 3.504826,-0.0792 c 1.927656,-0.0436 4.293413,-0.047 5.25724,-0.008 2.506243,0.10213 10.069396,0.98899 10.789272,1.26524 0.661041,0.25366 0.666251,0.27239 1.359268,4.8873 l 0.473688,3.15434 1.925226,0.21828 c 1.05887,0.12002 5.90254,0.7303 10.76369,1.35612 4.86115,0.62581 9.04178,1.05982 9.29027,0.96446 0.24851,-0.0954 0.75964,-1.29705 1.13586,-2.67043 0.43928,-1.60361 0.86226,-2.49705 1.18216,-2.49705 0.49513,0 0.44906,1.39934 -0.1269,3.85531 -0.18847,0.80361 -0.0489,0.92702 1.6841,1.48955 2.05413,0.66676 3.4061,0.78921 3.4061,0.30852 0,-0.16765 -0.3134,-1.28585 -0.69644,-2.48488 -0.5327,-1.66747 -0.60748,-2.34629 -0.31802,-2.88714 0.20814,-0.3889 0.24553,-0.83638 0.0831,-0.9944 -0.39428,-0.38355 -5.41792,-1.61823 -7.83071,-1.92457 -1.98534,-0.25206 -2.94039,-0.71322 -2.60406,-1.25741 0.10557,-0.17092 0.0155,-0.31077 -0.20026,-0.31077 -0.23904,0 -0.34983,-0.51352 -0.28355,-1.3143 0.10531,-1.27309 0.15496,-1.31767 1.58118,-1.42126 0.85549,-0.0621 1.80999,0.10518 2.27814,0.39932 0.44315,0.27844 1.30329,0.48427 1.9114,0.45742 0.60812,-0.0269 1.04302,0.0525 0.96644,0.17634 -0.0766,0.12385 1.16076,0.57116 2.74964,0.99406 4.63331,1.23319 11.81248,3.40346 15.11846,4.57033 1.82401,0.64379 3.36719,0.99223 3.82545,0.86377 0.63158,-0.17704 0.67467,-0.14353 0.2424,0.18852 -0.43456,0.33382 -0.38927,0.37395 0.26121,0.23145 0.43281,-0.0949 1.53099,0.11008 2.4404,0.45524 1.0781,0.40924 1.433,0.67208 1.01989,0.75535 -0.36199,0.073 0.69529,0.65156 2.46636,1.34976 l 3.09994,1.22208 -1.92766,0.29114 c -1.06022,0.16013 -4.37228,0.82537 -7.36014,1.47832 -2.98787,0.65295 -6.02392,1.22654 -6.74679,1.27466 -0.72288,0.0481 -1.31431,0.21296 -1.31431,0.36633 0,0.15337 0.13762,0.27884 0.30581,0.27884 0.16819,0 1.29603,0.79156 2.50632,1.75903 1.21027,0.96746 2.61041,1.84808 3.1114,1.95693 0.50098,0.10889 1.12889,0.26664 1.39534,0.35066 0.26646,0.084 1.21275,-0.31414 2.1029,-0.88477 0.89014,-0.57065 2.24929,-1.19805 3.02036,-1.39422 0.77106,-0.19618 2.26432,-0.59979 3.31834,-0.89691 5.50119,-1.55076 10.41397,-0.11194 16.95046,4.96454 1.45732,1.13179 2.16531,1.39738 5.082,1.90645 9.67956,1.68941 13.74149,2.42399 15.55654,2.81332 2.06945,0.44389 2.7058,0.29491 2.16436,-0.50673 -0.17205,-0.25472 0.003,-0.11604 0.38815,0.30818 0.63117,0.6945 1.56025,0.95771 4.54705,1.28816 0.38046,0.0421 0.96888,0.30616 1.30761,0.5868 0.58404,0.48388 0.57779,0.55081 -0.12094,1.29456 -0.99536,1.0595 -2.7974,1.87524 -4.14259,1.87524 -1.59347,0 -1.05663,0.54819 1.88603,1.9259 2.87185,1.34454 3.78351,2.13832 2.86205,2.49192 -0.44497,0.17075 -0.48362,0.32939 -0.17181,0.70512 0.48545,0.58491 1.16219,0.65198 0.80877,0.0801 -0.14704,-0.23792 -0.097,-0.30999 0.1216,-0.1749 0.20445,0.12638 0.29181,0.53536 0.19415,0.90888 -0.17712,0.6773 -2.52223,1.42307 -4.47493,1.42307 -0.77488,0 -0.80286,0.068 -0.43211,1.05018 0.57642,1.52712 -0.0223,1.91537 -4.3126,2.79698 -2.82986,0.58149 -5.78536,0.82851 -12.79262,1.06921 -6.34461,0.21794 -10.54974,0.54478 -13.84406,1.07604 -3.81315,0.61492 -5.81996,0.73902 -10.33924,0.63941 -10.43282,-0.22995 -20.61928,-0.13547 -36.97592,0.34293 -13.34317,0.39027 -19.728205,0.39889 -35.223501,0.0476 -16.857298,-0.3822 -19.496098,-0.36803 -24.140998,0.12956 -4.888945,0.52377 -8.932724,0.62955 -11.783475,0.30826 z m 93.578865,-12.05597 c 0,-0.17104 -0.10942,-0.31098 -0.24309,-0.31098 -0.13371,0 -4.58921,-0.3906 -9.90114,-0.86801 -5.31191,-0.47741 -12.33923,-1.10904 -15.61624,-1.40363 -9.78409,-0.87956 -14.278788,-1.22575 -15.964204,-1.22957 l -1.594417,-0.004 0.08275,1.31431 0.08275,1.3143 -0.240747,-1.22668 -0.240748,-1.22669 -2.453379,-0.0619 c -1.53036,-0.0387 -2.123729,0.036 -1.577172,0.19852 0.481913,0.14325 0.839514,0.48655 0.794668,0.76289 -0.04484,0.27634 0.428305,0.79868 1.051448,1.16076 0.964195,0.56024 2.307814,0.70468 9.018841,0.96952 4.33723,0.17117 13.16939,0.34806 19.62704,0.39313 6.45764,0.045 11.11029,0.18178 10.33923,0.30383 -0.81792,0.12956 0.3136,0.22252 2.71624,0.22336 2.265,7.9e-4 4.11817,-0.13851 4.11817,-0.30954 z"
       id="path1" /></g></svg>
