<?xml version="1.0" encoding="UTF-8" standalone="no"?>
<!-- Created with Inkscape (http://www.inkscape.org/) -->

<svg
   width="210mm"
   height="297mm"
   viewBox="0 0 210 297"
   version="1.1"
   id="svg1"
   xml:space="preserve"
   inkscape:version="1.4.4 (dcaf3e7, 2026-05-05)"
   sodipodi:docname="audi.svg"
   xmlns:inkscape="http://www.inkscape.org/namespaces/inkscape"
   xmlns:sodipodi="http://sodipodi.sourceforge.net/DTD/sodipodi-0.dtd"
   xmlns="http://www.w3.org/2000/svg"
   xmlns:svg="http://www.w3.org/2000/svg"><sodipodi:namedview
     id="namedview1"
     pagecolor="#ffffff"
     bordercolor="#000000"
     borderopacity="0.25"
     inkscape:showpageshadow="2"
     inkscape:pageopacity="0.0"
     inkscape:pagecheckerboard="0"
     inkscape:deskcolor="#d1d1d1"
     inkscape:document-units="mm"
     inkscape:zoom="0.68862935"
     inkscape:cx="397.16576"
     inkscape:cy="559.80768"
     inkscape:window-width="1920"
     inkscape:window-height="991"
     inkscape:window-x="-9"
     inkscape:window-y="-9"
     inkscape:window-maximized="1"
     inkscape:current-layer="layer1" /><defs
     id="defs1" /><g
     inkscape:label="Layer 1"
     inkscape:groupmode="layer"
     id="layer1"><path
       style="fill:#000000;stroke-width:1.20298"
       d="m 41.557903,181.06082 c -0.700237,-0.14503 -1.914422,-0.27195 -2.698189,-0.28204 -0.783767,-0.01 -2.502531,-0.23324 -3.819475,-0.4959 -1.316944,-0.26264 -4.208029,-0.82838 -6.424632,-1.25718 -5.11001,-0.98852 -6.396513,-1.49755 -6.257655,-2.47597 0.07451,-0.52506 0.685478,-1.02918 2.233438,-1.84286 l 2.130862,-1.12007 -3.08573,-0.59489 c -4.613222,-0.88936 -7.793365,-1.76854 -8.410409,-2.32518 -0.682465,-0.61562 -1.770699,-3.45025 -2.291221,-5.96816 -0.315314,-1.52526 -0.312423,-2.05207 0.01473,-2.68264 0.223898,-0.43156 0.318666,-0.92773 0.210595,-1.10258 -0.108076,-0.17487 -0.236432,-0.85394 -0.28525,-1.50908 -0.07206,-0.96699 0.05783,-1.28718 0.690215,-1.70153 0.428435,-0.28072 0.793372,-0.39968 0.810971,-0.26435 0.0176,0.13533 0.301195,-1.45167 0.630214,-3.52666 0.445101,-2.80707 0.510217,-3.93715 0.254406,-4.41515 -0.28072,-0.52452 -0.123516,-1.07064 0.856655,-2.97599 0.707713,-1.37571 1.34138,-2.2493 1.543763,-2.12827 0.188812,0.11296 0.152423,-0.0302 -0.08086,-0.31796 -0.594014,-0.73279 -0.182831,-1.91098 0.582186,-1.66817 0.76391,0.24245 1.202652,-0.47288 0.523238,-0.85309 -0.287167,-0.16071 -0.522121,-0.64316 -0.522121,-1.0721 0,-0.42896 -0.143231,-0.77992 -0.31829,-0.77992 -0.175059,0 -0.31829,-0.21485 -0.31829,-0.47744 0,-0.26525 0.282924,-0.47744 0.63658,-0.47744 0.350117,0 0.636578,0.15855 0.636578,0.35234 0,0.20987 0.225236,0.26054 0.557007,0.1253 0.306354,-0.12488 1.559619,-0.34895 2.785033,-0.49794 2.53005,-0.30759 7.395189,0.37045 8.737238,1.21769 0.429,0.27083 1.288382,0.48203 1.909738,0.46934 0.89476,-0.0183 0.666322,0.1102 -1.098289,0.6179 -1.225415,0.35255 -2.402919,0.67086 -2.616676,0.70737 -0.213757,0.0365 -0.500217,0.17796 -0.636579,0.31432 -0.136361,0.13635 -0.104696,0.21903 0.07036,0.18371 0.17506,-0.0354 0.533135,-0.0372 0.795724,-0.004 0.340906,0.0429 0.295397,0.13829 -0.159144,0.33361 -0.554507,0.23828 -0.513471,0.28116 0.318289,0.33253 0.875667,0.0541 0.849266,0.0808 -0.318289,0.32231 -0.700238,0.14484 -1.84608,0.28167 -2.546317,0.30406 -1.880513,0.0602 -0.487355,0.57229 1.750592,0.64356 l 1.750592,0.0557 -1.264777,0.39087 -1.26478,0.39086 1.218479,0.19772 c 0.670163,0.10875 1.655469,0.11031 2.189566,0.004 0.691134,-0.13824 0.905525,-0.0882 0.743668,0.17375 -0.125081,0.20239 -0.648659,0.36798 -1.163505,0.36798 -1.136956,0 -1.237799,0.54871 -0.150974,0.82149 0.43181,0.10839 0.754078,0.35837 0.716151,0.55552 -0.03793,0.19715 0.289118,0.39391 0.726766,0.43724 0.437648,0.0433 0.615793,-0.001 0.395878,-0.0992 -0.700776,-0.31192 -0.07856,-0.76018 1.055209,-0.76018 1.473823,0 1.398484,-0.56501 -0.09836,-0.73763 -0.656472,-0.0757 0.02387,-0.10166 1.511876,-0.0575 2.568375,0.076 4.863398,0.73418 5.464031,1.56687 0.220524,0.30571 2.656406,0.30515 5.676103,-10e-4 1.275897,-0.1295 1.62113,-0.0867 1.273158,0.15769 -0.514335,0.36128 -0.08251,0.44895 2.172253,0.441 0.692483,-0.002 0.912502,0.0887 0.636578,0.26361 -0.300183,0.19031 -0.215344,0.26874 0.294493,0.27221 0.393883,0.002 0.716151,-0.1287 0.716151,-0.29197 0,-0.44707 1.249373,-0.75291 1.686294,-0.41281 0.210423,0.1638 2.479966,0.30566 5.043429,0.31523 2.72596,0.01 4.930505,0.16173 5.310424,0.36506 0.850588,0.45522 1.102519,0.43957 0.808266,-0.0502 -0.179178,-0.29825 -0.111288,-0.29437 0.271169,0.0155 0.352657,0.2857 0.575498,0.30766 0.721678,0.0711 0.116317,-0.18821 0.37972,-0.32142 0.585343,-0.29603 0.934531,0.11537 1.264812,-0.11512 0.533005,-0.37202 -0.559165,-0.19627 -0.275295,-0.23162 0.954869,-0.11886 5.180953,0.4747 8.275529,0.53503 8.275529,0.16132 0,-0.2852 1.142646,-0.36219 4.448867,-0.29977 2.446877,0.0462 4.536795,-0.004 4.644261,-0.11139 0.409695,-0.4097 -0.209214,-1.48545 -0.754321,-1.31112 -0.406886,0.13012 -0.436166,0.098 -0.118301,-0.12977 0.410302,-0.29402 0.338307,-0.87512 -0.446744,-3.60579 -0.127467,-0.44337 -1.364281,-0.53044 -9.937944,-0.69957 -5.385797,-0.10622 -10.038359,-0.28759 -10.339024,-0.40295 -0.300667,-0.11537 -0.546666,-0.42523 -0.546666,-0.68857 0,-0.89244 2.504778,-3.505 3.900104,-4.06791 0.743421,-0.29991 1.709749,-0.69256 2.147397,-0.87254 0.437648,-0.17999 1.225415,-0.38213 1.750592,-0.44919 0.525177,-0.0671 1.00291,-0.26359 1.061627,-0.43673 0.05872,-0.17314 0.221313,-0.24399 0.361324,-0.15746 0.313724,0.19388 8.327313,-1.74274 8.7464,-2.11373 0.187019,-0.16555 0.138846,-0.41946 -0.126266,-0.66554 -0.348602,-0.32357 -0.378797,-0.30871 -0.161704,0.0795 0.230061,0.41148 0.192542,0.4171 -0.271596,0.0405 -0.296192,-0.24025 -0.538532,-0.30087 -0.538532,-0.1347 0,0.16618 -0.465499,0.24518 -1.034441,0.17556 -0.828337,-0.10129 -0.939316,-0.0539 -0.557007,0.2381 0.374881,0.28632 0.226381,0.32325 -0.691331,0.17193 -0.642821,-0.10598 -1.251692,-0.0586 -1.353048,0.10538 -0.101352,0.164 -0.506407,0.22758 -0.900116,0.1413 -0.57706,-0.12645 -0.623277,-0.0902 -0.238401,0.18688 0.355622,0.25604 0.07138,0.29699 -1.114014,0.1605 -1.255263,-0.14454 -1.490592,-0.10406 -1.114012,0.19132 0.406387,0.31883 0.390672,0.34642 -0.10561,0.1854 -0.320671,-0.10405 -0.65317,-0.18917 -0.738886,-0.18917 -0.08571,0 0.04783,-0.20367 0.296773,-0.45262 0.248941,-0.24894 1.297592,-0.53836 2.330335,-0.64315 3.300867,-0.33493 5.226292,-0.83308 5.612921,-1.45217 0.341662,-0.54708 0.39729,-0.55082 0.806235,-0.0542 0.241588,0.29334 0.348562,0.35431 0.237719,0.13549 -0.130308,-0.25726 0.0582,-0.41319 0.533403,-0.44123 2.523358,-0.14887 3.980135,-0.40304 6.22543,-1.08615 0.412263,-0.12544 0.716152,-0.0822 0.716152,0.10213 0,0.17598 -0.537114,0.41442 -1.193586,0.52984 -2.382333,0.41885 -4.574211,1.17273 -5.18474,1.78326 -0.489546,0.48954 -0.624044,0.52114 -0.624044,0.14662 0,-0.2626 -0.129821,-0.47744 -0.288491,-0.47744 -0.158671,0 -0.210799,0.2971 -0.115835,0.66022 0.131332,0.50221 0.34602,0.6167 0.897102,0.47838 2.079392,-0.52189 12.935996,-2.11262 16.535725,-2.42285 4.397002,-0.37893 16.748472,-0.31107 16.501252,0.0907 -0.0808,0.13129 0.20099,0.23872 0.6262,0.23872 1.51287,0 7.3281,1.95732 10.40982,3.5038 3.4309,1.72171 9.06368,5.18184 12.47659,7.66418 1.20019,0.87295 2.29642,1.51656 2.43608,1.43024 0.13965,-0.0863 0.25422,0.0158 0.2546,0.22695 5.1e-4,0.28134 -0.87787,0.35713 -3.28908,0.28381 l -3.28978,-0.10009 -0.33698,0.88631 c -0.27725,0.72923 -0.23905,0.95791 0.21557,1.29034 0.62671,0.45827 0.62411,0.46271 -0.67412,1.15161 -0.92426,0.49043 -0.84002,0.50709 2.62588,0.51942 2.16648,0.007 3.58076,0.13847 3.58076,0.33104 0,0.17506 -0.16711,0.31828 -0.37134,0.31828 -0.20423,0 -0.26605,0.10527 -0.13738,0.23397 0.12868,0.12867 0.52396,-0.12198 0.87841,-0.55701 0.41185,-0.5055 0.58058,-0.59169 0.46751,-0.23882 -0.11019,0.34386 0.0474,0.67224 0.41785,0.87047 0.54999,0.29434 0.58806,0.19288 0.50592,-1.34789 -0.0488,-0.91639 -0.1807,-1.95263 -0.293,-2.30275 -0.11223,-0.35013 0.0288,-0.13528 0.31332,0.47743 0.35379,0.76164 0.50384,1.89427 0.47435,3.58075 l -0.0432,2.46675 h 1.14055 c 0.6341,0 1.05811,-0.1334 0.95489,-0.30041 -0.16932,-0.27396 3.47954,-0.17332 5.0328,0.1388 0.6539,0.1314 3.70912,-0.77184 3.70912,-1.09655 0,-0.11368 -1.07423,-0.39746 -2.38718,-0.63076 -1.31293,-0.23328 -2.38716,-0.55274 -2.38716,-0.7099 0,-0.43144 0.98942,-0.72232 1.22571,-0.36036 0.11356,0.17408 1.05654,0.41414 2.09537,0.53349 1.03882,0.11934 2.04143,0.34319 2.22802,0.4974 0.18658,0.15422 0.74939,0.20168 1.25066,0.1055 l 0.9114,-0.17494 -1.22969,-0.60162 -1.2297,-0.60161 1.16006,0.12869 c 0.63804,0.0707 1.31689,0.22561 1.50856,0.34405 0.19166,0.1185 1.92705,0.27724 3.85642,0.35284 2.98737,0.11705 3.92289,0.29331 6.30415,1.18775 1.82014,0.68368 3.0689,0.98082 3.57734,0.85124 0.42961,-0.10948 0.95939,-0.0617 1.17727,0.10622 0.2179,0.16792 0.68359,0.23015 1.03488,0.13828 0.3513,-0.0919 0.55845,-0.0372 0.46035,0.12159 -0.26126,0.42273 0.30475,0.35232 0.75041,-0.0934 0.24715,-0.24716 0.38195,-0.26134 0.38195,-0.0402 0,0.218 0.37458,0.26296 1.03444,0.12418 0.56894,-0.1197 1.46413,-0.115 1.98931,0.0108 3.15679,0.75378 4.12581,0.92735 5.33592,0.95584 0.74149,0.0174 1.70624,0.14856 2.14388,0.29134 0.47286,0.15427 -0.14058,0.18742 -1.51187,0.0817 -1.26918,-0.0978 -2.3076,-0.0849 -2.3076,0.0286 0,0.11356 0.53671,1.06519 1.19268,2.1146 1.20219,1.92322 1.76858,2.30809 2.10532,1.43057 0.10081,-0.2626 0.36674,-0.47525 0.59105,-0.47256 0.28519,0.004 0.26426,0.0977 -0.0695,0.31341 -0.28686,0.18539 -0.32613,0.31049 -0.0984,0.31342 0.20848,0.002 0.48101,-0.16005 0.60559,-0.36164 0.16106,-0.26059 0.33181,-0.22251 0.59087,0.13179 0.20039,0.27405 0.78726,0.56075 1.30414,0.6371 0.51689,0.0764 -0.0269,0.16029 -1.20866,0.18651 -1.18832,0.0264 -2.14846,0.18994 -2.14846,0.36598 0,0.2805 1.59044,0.36072 9.15083,0.46152 0.65648,0.008 1.2652,0.10418 1.35273,0.21202 0.0876,0.10791 0.98272,0.26287 1.98931,0.34448 1.38647,0.11236 1.83016,0.0456 1.83016,-0.27568 0,-0.23323 0.11934,-0.42405 0.26525,-0.42405 0.14589,0 0.26659,0.17904 0.26825,0.39786 0.001,0.21883 0.11248,0.73807 0.2463,1.15388 0.18912,0.58771 0.14711,0.70132 -0.18869,0.51031 -0.34833,-0.19813 -0.35494,-0.16272 -0.0342,0.18295 0.27106,0.29202 0.39786,1.61202 0.39786,4.14152 0,3.10901 0.0947,3.83636 0.5824,4.47198 1.36922,1.78455 1.22208,1.99965 -1.6099,2.35348 -1.43062,0.17875 -1.84364,0.3694 -2.18597,1.00904 -0.23214,0.43377 -0.76631,0.96903 -1.18704,1.18947 -0.7636,0.40009 -0.7623,0.40236 0.72141,1.27188 0.8175,0.47909 1.65233,1.23529 1.85514,1.68044 0.32127,0.70508 0.2747,0.88551 -0.3614,1.40061 -1.62238,1.31372 -6.88645,2.04996 -17.86688,2.49886 -4.28895,0.17535 -9.23039,0.55645 -10.98098,0.8469 -4.52514,0.75077 -12.15598,0.74623 -18.58305,-0.0108 -5.04402,-0.59434 -6.12619,-0.60085 -33.02944,-0.19868 -17.309865,0.25876 -33.792313,0.32756 -43.642569,0.18218 -10.665577,-0.15742 -16.814229,-0.12247 -18.851759,0.10719 -4.314609,0.48623 -9.811317,0.65491 -11.299279,0.34675 z m 3.911575,-3.33813 c -0.259667,-0.25966 -1.800718,-0.49866 -3.638125,-0.56421 l -1.636288,-0.0583 0.620445,-1.21738 c 0.341246,-0.66954 0.572098,-1.3624 0.513007,-1.53967 -0.05909,-0.17727 -0.435585,0.33473 -0.836652,1.13779 -0.401068,0.80306 -0.898202,1.46918 -1.104746,1.48029 -0.206543,0.0108 -0.04143,0.15408 0.366904,0.31775 0.40834,0.16367 1.124492,0.21462 1.591448,0.1132 0.657707,-0.14281 0.741432,-0.1079 0.371577,0.1548 -0.356847,0.2535 0.0786,0.34039 1.724068,0.34403 1.210827,0.002 2.123589,-0.073 2.028362,-0.16826 z m 115.234362,-1.86777 -0.0535,-1.93771 -0.18521,1.75059 c -0.18057,1.70668 -0.2108,1.75173 -1.20479,1.79591 l -1.01959,0.0454 -0.1138,-1.79591 -0.1138,-1.79592 -0.0601,1.99189 -0.0601,1.99188 1.43231,-0.0541 1.4323,-0.0541 z m -114.053305,1.40433 c -0.108196,-0.17505 -0.510528,-0.31609 -0.89408,-0.31341 -0.566948,0.004 -0.608079,0.0626 -0.219932,0.31341 0.627067,0.40524 1.364466,0.40524 1.114012,0 z m 110.490945,0.0747 c 0.21168,-0.13645 -0.28543,-0.44282 -1.19359,-0.73562 -1.22788,-0.39589 -1.55632,-0.41481 -1.55632,-0.0895 0,0.25371 0.20365,0.33407 0.52965,0.20899 0.38705,-0.14854 0.45869,-0.0884 0.26606,0.22321 -0.19156,0.30998 -0.12167,0.37202 0.25589,0.22713 0.2857,-0.10959 0.60412,-0.0623 0.70758,0.10503 0.22347,0.36158 0.49802,0.37843 0.99073,0.0607 z m 5.20733,-0.0647 c 0,-0.14779 0.30885,-0.18794 0.68635,-0.0893 0.51482,0.13464 0.62108,0.0739 0.42521,-0.24303 -0.18984,-0.30718 -0.11656,-0.36703 0.26852,-0.21927 0.29131,0.11176 0.52965,0.0561 0.52965,-0.12384 0,-0.1799 0.14203,-0.2393 0.31563,-0.13202 0.17359,0.10731 0.67489,-0.16421 1.11401,-0.60333 0.43911,-0.43912 0.79839,-0.70519 0.79839,-0.59128 0,0.11392 0.49573,-0.27337 1.10163,-0.86062 0.60589,-0.58726 1.0265,-1.18929 0.93469,-1.33785 -0.0918,-0.14855 0.0562,-0.35571 0.32885,-0.46034 0.27268,-0.10466 0.41653,-0.31848 0.31968,-0.47519 -0.0968,-0.15672 -0.016,-0.28494 0.17975,-0.28494 0.19573,0 0.26733,-0.14327 0.15911,-0.31836 -0.10827,-0.17509 -0.66985,0.29041 -1.24809,1.03445 -0.57823,0.74403 -1.23854,1.3089 -1.46735,1.25526 -0.34051,-0.0799 -0.3414,-0.007 -0.005,0.39787 0.22613,0.27246 0.32198,0.49538 0.21301,0.49538 -0.45382,0 -0.70794,0.0808 -1.31213,0.41731 -0.35011,0.19498 -0.73884,0.3258 -0.86384,0.29071 -0.12499,-0.0351 -0.15095,0.13506 -0.0576,0.3781 0.0941,0.24506 -0.0174,0.42854 -0.25017,0.4119 -0.59298,-0.0423 -3.4435,0.82397 -3.4435,1.04658 0,0.10154 0.28646,0.20612 0.63657,0.23249 0.35012,0.0264 0.63659,-0.073 0.63659,-0.22076 z M 39.133214,176.65259 c 0.343549,-0.21758 0.285347,-0.32767 -0.26569,-0.50257 -0.577235,-0.1832 -0.667053,-0.37757 -0.493683,-1.06832 l 0.211923,-0.84437 -0.761816,0.7948 c -0.559533,0.58378 -0.675118,0.90972 -0.435302,1.22758 0.20021,0.26536 0.36975,0.30305 0.438284,0.0974 0.06147,-0.18442 0.329371,-0.25181 0.595328,-0.14975 0.392447,0.1506 0.403567,0.23627 0.05901,0.45468 -0.233502,0.14802 -0.281319,0.26912 -0.10626,0.26912 0.17506,0 0.516252,-0.12537 0.758206,-0.27862 z m 4.640572,-2.23089 c -0.688579,-2.03526 -0.740772,-2.48326 -0.415709,-3.56822 0.581625,-1.94129 1.005188,-2.07848 2.14561,-0.69495 0.601951,0.73027 0.994868,1.57394 1.006047,2.16018 0.01011,0.52906 0.143995,1.53485 0.297572,2.23508 0.229796,1.04776 0.263245,0.83774 0.188942,-1.18645 -0.08379,-2.28237 -0.174032,-2.5671 -1.252442,-3.95128 -1.317003,-1.69043 -1.346435,-1.7929 -0.67504,-2.35011 0.40584,-0.33681 0.719881,-0.23711 1.882199,0.59761 1.342197,0.96389 1.515788,1.00188 4.578996,1.00188 2.238905,0 3.237352,0.11813 3.363966,0.39786 0.09903,0.21882 0.146775,0.12723 0.106091,-0.20353 -0.06737,-0.54782 -0.346775,-0.59587 -3.135731,-0.5392 l -3.061771,0.0622 -1.149874,-1.08447 c -0.632431,-0.59646 -1.189959,-1.06998 -1.238949,-1.05226 -0.049,0.0177 0.127485,-0.15627 0.39217,-0.38663 0.408932,-0.35591 0.345701,-0.38559 -0.420802,-0.1975 -0.496126,0.12174 -1.241575,0.56088 -1.656553,0.97586 -0.855884,0.85589 -1.331197,0.92231 -2.150963,0.30061 -0.525223,-0.39832 -1.20561,-0.38815 -2.451951,0.0367 -0.356714,0.12159 -0.291349,0.2344 0.258508,0.4462 l 0.735942,0.28349 -0.800767,1.34283 c -0.556976,0.93401 -1.313997,1.60864 -2.486535,2.21594 -2.098057,1.08666 -1.859725,1.15619 0.454667,0.13265 1.305127,-0.57718 2.033599,-1.17607 2.903681,-2.38716 1.773388,-2.46843 2.574309,-1.95615 1.707203,1.09195 -0.484468,1.70301 -0.478871,1.75258 0.484294,4.28771 0.535934,1.41063 1.020373,2.51883 1.076532,2.46268 0.05616,-0.0562 -0.252244,-1.14948 -0.685339,-2.4296 z m 4.434768,2.14689 c -0.158112,-0.25584 -0.05133,-0.30377 0.34117,-0.15316 0.741557,0.28457 2.495802,-1.03625 3.169248,-2.3862 0.499947,-1.00217 0.49926,-1.00426 -0.140043,-0.4257 -0.626242,0.56674 -0.666327,0.55855 -1.588517,-0.32497 -0.520336,-0.49851 -1.029853,-0.8226 -1.132262,-0.72019 -0.10241,0.10237 0.322095,0.64873 0.943341,1.21406 0.621247,0.56532 1.05172,1.15377 0.956609,1.30766 -0.09511,0.15389 -0.328395,0.18373 -0.518406,0.0663 -0.212949,-0.13161 -0.253308,-0.0644 -0.105213,0.17524 0.149621,0.2421 0.07811,0.35257 -0.189539,0.29282 -0.236391,-0.0528 -0.904967,0.10225 -1.485724,0.34452 -0.761463,0.31762 -0.938982,0.5146 -0.636579,0.70634 0.571493,0.36239 0.656491,0.34109 0.385912,-0.0967 z m 0.510864,-0.3893 c 0,-0.0688 0.222285,-0.21039 0.493966,-0.31464 0.283253,-0.10875 0.411014,-0.0553 0.299504,0.12508 -0.186917,0.30245 -0.79347,0.44735 -0.79347,0.18956 z m 105.247062,0.23049 c -0.11705,-0.11705 0.038,-0.50113 0.34481,-0.85343 0.55684,-0.63956 0.55641,-0.63961 -0.28312,-0.0259 -0.55781,0.40781 -0.7185,0.69343 -0.47743,0.84856 0.45702,0.2941 0.69684,0.3118 0.41574,0.0307 z M 36.757269,175.39205 c 0.09374,-0.15166 -0.137279,-0.54555 -0.513361,-0.8753 -0.422577,-0.37051 -0.573557,-0.41716 -0.395231,-0.1221 0.158706,0.26259 0.308653,0.58485 0.333216,0.71615 0.08951,0.47846 0.126824,0.557 0.264593,0.557 0.07719,0 0.21705,-0.12408 0.310783,-0.27575 z m 115.087981,-0.67912 c -0.18738,-0.35011 -0.4123,-0.63658 -0.49983,-0.63658 -0.0876,0 -0.006,0.28647 0.18154,0.63658 0.18738,0.35012 0.4123,0.63659 0.49983,0.63659 0.0876,0 0.006,-0.28647 -0.18154,-0.63659 z m 6.37067,-4.76237 c 0.006,-1.71736 0.33422,-2.34373 1.14727,-2.18804 0.45418,0.087 0.67518,0.554 0.91673,1.93739 0.2542,1.45568 0.55867,2.06284 1.51188,3.01474 1.4219,1.41995 1.60039,1.20981 0.23872,-0.28103 -0.74918,-0.82025 -0.95487,-1.3387 -0.95487,-2.40681 0,-0.9443 0.13436,-1.36137 0.43856,-1.36137 0.87028,0 2.7021,0.95633 2.88557,1.50646 0.10322,0.30933 0.47977,0.9205 0.83688,1.35814 0.63863,0.78262 0.63836,0.77327 -0.0173,-0.56793 -0.36664,-0.75 -0.57895,-1.50551 -0.47178,-1.6789 0.10718,-0.17339 0.0768,-0.28591 -0.0675,-0.25002 -0.45694,0.11356 -2.62956,-1.09748 -2.46025,-1.37143 0.0891,-0.14421 -0.0515,-0.18023 -0.31258,-0.08 -0.27567,0.10575 -0.64031,-0.0831 -0.86984,-0.45068 -0.35966,-0.57589 -0.4597,-0.59057 -1.11201,-0.16316 -0.54781,0.35894 -0.87018,0.38758 -1.36742,0.12145 -0.52066,-0.27865 -0.76923,-0.2296 -1.24432,0.24548 -0.32651,0.32652 -1.15723,0.86291 -1.84601,1.19199 -0.94753,0.45268 -1.41963,0.96845 -1.93964,2.11907 -0.83834,1.85495 -0.67358,2.01287 0.23727,0.22745 0.47826,-0.93746 1.02742,-1.45182 1.99579,-1.86931 0.73478,-0.31678 1.44339,-0.51409 1.57468,-0.43847 0.48679,0.28036 0.24629,2.93199 -0.31828,3.50913 -1.56521,1.60004 -1.91661,2.27083 -0.4713,0.89966 1.52806,-1.44967 1.66528,-1.69818 1.66976,-3.02375 z m -60.877772,3.26981 c -0.306352,-0.0801 -0.80766,-0.0801 -1.114014,0 -0.306354,0.0801 -0.0557,0.14556 0.557008,0.14556 0.612704,0 0.863357,-0.0654 0.557006,-0.14556 z m 3.660332,0.008 c -0.21882,-0.0883 -0.5769,-0.0883 -0.79573,0 -0.218831,0.0883 -0.0398,0.16054 0.39786,0.16054 0.43767,0 0.6167,-0.0722 0.39787,-0.16054 z m 65.20929,-0.51066 c -0.31435,-0.31201 -0.35091,-0.27546 -0.17817,0.17818 0.11958,0.3139 0.2975,0.49055 0.39549,0.39256 0.0981,-0.0981 2.1e-4,-0.35484 -0.21732,-0.57074 z M 53.468333,172.40514 c 0.399606,-0.64167 0.394222,-0.67338 -0.05177,-0.30488 -0.425406,0.35147 -0.740166,0.16643 -2.165541,-1.27317 -0.936056,-0.94539 -1.47341,-1.3353 -1.224757,-0.88869 0.483103,0.8677 2.53357,3.18289 2.818948,3.18289 0.09742,0 0.377825,-0.32227 0.623118,-0.71615 z m 48.060637,0.19638 c 0.28812,-0.25375 -2.388704,-0.0893 -2.801448,0.1721 -0.26948,0.17066 0.163462,0.21416 1.114012,0.11187 0.855156,-0.092 1.614496,-0.21979 1.687436,-0.28402 z m -24.243065,-0.0337 c -1.00659,-0.0631 -1.830165,-0.25093 -1.830165,-0.41725 0,-0.35351 -1.092461,-0.38859 -2.228026,-0.0716 l -0.795724,0.22216 0.954869,0.21327 c 0.525177,0.11729 2.029095,0.20314 3.342039,0.19075 2.067635,-0.0195 2.142194,-0.0379 0.557007,-0.13737 z m 9.30997,-0.0714 c -0.556691,-0.37327 -2.759127,-0.44078 -2.973206,-0.0912 -0.0804,0.13129 0.663113,0.27754 1.652236,0.32499 1.287818,0.0618 1.662856,-0.005 1.32097,-0.23384 z M 150.2538,170.5856 c 1.79333,-0.69351 1.76867,-0.91413 -0.0562,-0.50312 -0.93191,0.20988 -1.65856,0.47819 -1.61479,0.59625 0.0438,0.11801 0.0818,0.3937 0.0845,0.61252 0.004,0.26278 0.0843,0.28367 0.23872,0.0615 0.12861,-0.185 0.73514,-0.53022 1.34785,-0.76716 z m 19.97551,-0.0816 c -0.0606,-0.18203 -0.54021,-0.36479 -1.06564,-0.40612 -0.52541,-0.0414 -1.30691,-0.1674 -1.73664,-0.28014 -0.42973,-0.11272 -0.0652,0.13439 0.81013,0.5492 1.5676,0.74289 2.2088,0.787 1.99215,0.13706 z m -136.946935,0.0711 c 0.108196,-0.17506 0.05348,-0.3183 -0.121576,-0.3183 -0.17506,0 -0.406811,0.14324 -0.515004,0.3183 -0.108196,0.17506 -0.05348,0.31829 0.121576,0.31829 0.17506,0 0.406811,-0.14323 0.515004,-0.31829 z m 21.474796,-0.79573 c 0,-0.17505 -0.138843,-0.10345 -0.308541,0.15915 -0.169698,0.26258 -0.308542,0.62066 -0.308542,0.79572 0,0.17506 0.138844,0.10346 0.308542,-0.15914 0.169698,-0.26259 0.308541,-0.62067 0.308541,-0.79573 z m -20.320184,-0.0795 c 0.395912,-0.50482 0.384653,-0.51608 -0.120166,-0.12018 -0.306354,0.24026 -0.557007,0.49091 -0.557007,0.557 0,0.26197 0.261375,0.0934 0.677178,-0.43684 z m 156.876163,-0.24944 c -2.01318,-0.22053 -4.16163,-0.50795 -4.77434,-0.6387 -0.61271,-0.13075 -1.02528,-0.14037 -0.91682,-0.0214 0.42625,0.46775 4.39158,1.09666 6.80517,1.07931 l 2.54632,-0.0183 z m -60.70767,-0.0389 c -0.21549,-0.0872 -0.64518,-0.0925 -0.95487,-0.012 -0.30968,0.0807 -0.13337,0.15205 0.3918,0.15853 0.52518,0.006 0.77856,-0.0596 0.56307,-0.14673 z m 68.17156,-0.0812 c -0.1663,-0.15948 -1.3766,-0.35471 -2.68955,-0.43388 -1.31293,-0.0792 -1.89406,-0.0816 -1.29137,-0.006 0.81237,0.10262 0.97702,0.21359 0.63658,0.42899 -0.30483,0.19286 0.23102,0.29219 1.59375,0.29543 1.24382,0.002 1.9338,-0.10935 1.75059,-0.28507 z M 37.023486,167.81721 c 0.482078,-0.38729 0.768539,-0.7595 0.636578,-0.82715 -0.131959,-0.0676 -0.812846,0.44673 -1.513083,1.14306 -1.240051,1.23311 -0.89832,1.10995 0.876505,-0.31591 z m 90.711324,1.27737 c 1.18166,-0.11164 2.14846,-0.32897 2.14846,-0.48305 0,-0.70349 -1.46258,-0.89798 -22.43941,-2.98395 -7.27117,-0.72306 -13.814082,-1.37876 -15.717094,-1.57509 l -1.712333,-0.17667 0.177299,0.88293 c 0.424381,2.11337 0.795333,2.63306 1.886759,2.64328 0.573276,0.005 2.832698,0.14579 5.020936,0.31206 4.095153,0.31117 17.969373,1.18595 21.643703,1.36464 4.27641,0.20799 6.90815,0.21263 8.99168,0.0159 z m 3.97483,-0.33063 c -0.29592,-0.29594 -0.62743,-0.44869 -0.73665,-0.33946 -0.31325,0.31325 0.16764,0.87752 0.74786,0.87752 0.48586,0 0.48499,-0.0419 -0.0108,-0.53806 z m 17.271,-0.45232 c 0.43765,-0.27403 1.49893,-0.7644 2.35839,-1.08973 0.85948,-0.32532 1.40718,-0.64332 1.21714,-0.70667 -0.19006,-0.0634 -0.99283,0.17968 -1.78393,0.54007 -0.79111,0.3604 -1.58947,0.65527 -1.77413,0.65527 -0.18467,0 -0.33575,0.13873 -0.33575,0.3083 0,0.16956 -0.21486,0.22585 -0.47744,0.12508 -0.34181,-0.13116 -0.47605,0.03 -0.47256,0.56701 0.002,0.41261 0.11007,0.60365 0.23872,0.42455 0.12861,-0.1791 0.59192,-0.54984 1.02956,-0.82388 z m 21.96198,-0.12363 c 0,-0.30603 -0.31424,-0.48132 -0.87529,-0.48823 -0.48142,-0.006 -1.44822,-0.28754 -2.14846,-0.62579 -0.70024,-0.33824 -1.488,-0.61719 -1.75059,-0.61991 -0.26259,-0.002 0.59679,0.4911 1.90974,1.09736 2.72357,1.25759 2.8646,1.28893 2.8646,0.63657 z m -23.336,-1.1737 c -0.10165,-0.25391 -0.17702,-0.17848 -0.1923,0.1923 -0.0138,0.33554 0.0615,0.52353 0.16718,0.41776 0.10574,-0.10574 0.11705,-0.38029 0.0251,-0.61006 z m -108.117599,0.12789 c 0,-0.13755 -0.28646,-0.25008 -0.636579,-0.25008 -0.350119,0 -0.63658,0.11247 -0.63658,0.25008 0,0.13754 0.286461,0.25008 0.63658,0.25008 0.350119,0 0.636579,-0.11248 0.636579,-0.25008 z m -7.517504,-0.88046 c 0.108701,-0.28325 0.05534,-0.41101 -0.125091,-0.29951 -0.173055,0.10695 -0.314645,0.32925 -0.314645,0.49397 0,0.45783 0.22814,0.35695 0.439736,-0.19446 z m 2.584016,0.17567 c -0.350119,-0.15044 -0.994655,-0.27354 -1.432303,-0.27354 -0.725323,0 -0.739403,0.0242 -0.159146,0.27354 0.350119,0.15046 0.994655,0.27355 1.432304,0.27355 0.725322,0 0.739403,-0.0242 0.159145,-0.27355 z m 118.854647,-0.42238 c -0.31206,-0.24495 -3.17095,-1.48602 -3.39163,-1.47233 -0.1332,0.008 0.54558,0.42398 1.50841,0.92382 0.96282,0.49984 1.81027,0.85116 1.88322,0.7807 0.0729,-0.0705 0.0729,-0.17494 0,-0.23219 z m 4.34572,0.14016 c -0.23356,-0.3779 0.60244,-1.04921 0.93332,-0.74946 0.14325,0.12978 0.15743,0.0569 0.0315,-0.1619 -0.36511,-0.63443 0.99714,-0.48248 1.66538,0.18576 0.41837,0.41836 0.77888,0.5114 1.27316,0.32854 0.37925,-0.14029 0.68954,-0.13477 0.68954,0.0123 0,0.14705 0.56732,0.35807 1.26071,0.46895 0.98728,0.15787 1.64543,0.0195 3.03447,-0.63823 0.97556,-0.46191 1.71118,-0.90239 1.63474,-0.97884 -0.0765,-0.0765 -0.75105,0.17321 -1.49909,0.55484 -1.55302,0.79228 -3.97213,0.72676 -4.59456,-0.12446 -0.22049,-0.30154 -0.6246,-0.42572 -1.03564,-0.31823 -0.37072,0.097 -1.10258,-0.0375 -1.62635,-0.2988 -0.84679,-0.42244 -0.97278,-0.42171 -1.13708,0.006 -0.13116,0.34181 -0.45201,0.42806 -1.10595,0.29727 -0.64236,-0.12847 -0.97503,-0.0439 -1.09912,0.27949 -0.10153,0.26457 0.006,0.46371 0.25053,0.46371 0.23565,0 0.60678,0.21485 0.82471,0.47744 0.42863,0.51648 0.78409,0.65534 0.49972,0.19521 z M 55.366577,165.40297 c -0.0281,-0.54499 -0.07189,-0.5821 -0.183234,-0.15525 -0.08047,0.3085 -0.300833,0.4654 -0.48969,0.34868 -0.204152,-0.12617 -0.251295,-0.0632 -0.116269,0.15525 0.378078,0.61174 0.828453,0.41276 0.789196,-0.34868 z m -11.698816,-0.55701 c 0.257558,0 0.616292,0.148 0.797187,0.3289 0.226339,0.22634 0.328899,0.17672 0.328899,-0.15915 0,-0.26842 -0.07037,-0.41767 -0.156384,-0.33166 -0.08601,0.086 -0.312792,0.0355 -0.503958,-0.11236 -0.57294,-0.4429 -2.423357,0.20416 -2.205724,0.77131 0.166446,0.43375 0.243812,0.43312 0.728952,-0.006 0.298508,-0.27014 0.753472,-0.49116 1.011028,-0.49116 z m 9.189421,0.57678 c -0.612708,-0.1722 -1.670697,-0.51182 -2.351088,-0.75471 -0.818879,-0.29231 -1.410671,-0.34016 -1.750593,-0.14152 -0.421572,0.24636 -0.371043,0.30434 0.282206,0.32382 0.437648,0.0131 1.511876,0.22257 2.387172,0.46563 0.875296,0.24305 1.806294,0.43694 2.068882,0.43089 0.262589,-0.006 -0.02387,-0.15191 -0.636579,-0.32411 z m 94.749438,-0.95476 c -0.10165,-0.2539 -0.17702,-0.17848 -0.1923,0.19231 -0.0138,0.33553 0.0615,0.52352 0.16718,0.41775 0.10574,-0.10574 0.11705,-0.38029 0.0251,-0.61006 z M 36.877653,163.72825 c 0.05175,-0.0431 -0.916058,-0.0879 -2.150687,-0.0995 -1.234628,-0.012 -2.387005,-0.10899 -2.560837,-0.21645 -0.173832,-0.10743 -0.316057,-0.0519 -0.316057,0.12343 0,0.50255 4.450897,0.67299 5.027581,0.19253 z m 1.14083,0.0832 c -0.691673,-1.17127 -1.891515,-2.53591 -2.477911,-2.81824 l -0.66675,-0.32102 0.644608,0.57498 c 0.354535,0.31623 1.051879,1.11209 1.549653,1.76856 0.869298,1.14644 1.43936,1.62372 0.9504,0.79572 z m 14.938849,-1.6031 c 0.457777,-0.29994 0.976096,-0.54536 1.151821,-0.54536 0.175723,0 0.237101,-0.21472 0.136394,-0.47715 -0.152324,-0.39695 -0.330748,-0.35683 -1.061384,0.23871 -0.483055,0.39374 -1.148121,0.88211 -1.477928,1.08527 -0.463751,0.28568 -0.484247,0.35517 -0.09044,0.30664 0.280065,-0.0345 0.883755,-0.30815 1.341532,-0.60811 z m 102.070808,0.25037 c -0.23089,-0.2782 -0.87804,-0.46383 -1.55084,-0.44485 l -1.15462,0.0326 1.0506,0.24881 c 0.57782,0.13685 1.1388,0.33704 1.24663,0.44487 0.41939,0.41938 0.78226,0.16927 0.40823,-0.28141 z m 11.45843,-0.5301 c 0.65224,-0.2183 0.60203,-0.23757 -0.27851,-0.10682 -0.59082,0.0877 -1.41439,0.1595 -1.83016,0.1595 -0.41576,0 -0.75594,0.13965 -0.75594,0.31034 0,0.3139 1.35538,0.14215 2.86461,-0.363 z M 48.202261,159.7533 c 0.138674,-0.76475 0.114669,-0.91444 -0.07656,-0.47743 -0.153212,0.35011 -0.369469,1.13788 -0.480572,1.75059 -0.138675,0.76475 -0.114668,0.91444 0.07656,0.47743 0.153212,-0.35012 0.369469,-1.13788 0.480572,-1.75059 z m 101.041399,0.54383 c 0.32969,-0.73676 0.9075,-1.61313 1.28402,-1.94751 0.68141,-0.60515 0.68982,-0.6022 1.81492,0.63657 l 1.13035,1.24455 -0.81385,-1.46027 c -0.9846,-1.76664 -0.98467,-1.76795 -0.12882,-2.22599 0.6056,-0.32412 0.80715,-0.22395 1.73863,0.86409 1.23066,1.43751 1.44319,1.0543 0.28553,-0.51481 -0.4356,-0.59043 -0.74243,-1.12305 -0.68185,-1.18363 0.0606,-0.0606 0.88247,-0.38794 1.82643,-0.72747 0.94397,-0.33952 1.42983,-0.62237 1.07972,-0.62855 -1.15985,-0.0204 -4.5474,1.82742 -5.89425,3.21525 -1.23015,1.26759 -3.3151,4.7316 -2.57115,4.27181 0.18198,-0.11248 0.60063,-0.8073 0.93032,-1.54404 z m 2.68117,1.4734 c -0.21884,-0.0883 -0.57691,-0.0883 -0.79573,0 -0.21882,0.0883 -0.0398,0.16054 0.39786,0.16054 0.43765,0 0.61669,-0.0723 0.39787,-0.16054 z m -1.75723,-0.29979 c -0.10574,-0.10575 -0.3803,-0.11705 -0.61005,-0.0251 -0.25392,0.10166 -0.17849,0.17704 0.19229,0.19231 0.33553,0.0138 0.52352,-0.0614 0.41776,-0.16717 z m 18.46079,0 c -0.10574,-0.10575 -0.38028,-0.11705 -0.61005,-0.0251 -0.25392,0.10166 -0.17849,0.17704 0.19229,0.19231 0.33554,0.0138 0.52353,-0.0614 0.41776,-0.16717 z m 1.51851,-0.12599 c -0.10815,-0.17506 -0.43891,-0.30822 -0.73494,-0.29592 -0.43875,0.0183 -0.42058,0.0729 0.0984,0.29592 0.85173,0.36599 0.86278,0.36599 0.63659,0 z M 40.762179,160.74033 c 0,-0.15738 -0.608729,-0.59836 -1.35273,-0.97996 l -1.352731,-0.6938 1.114013,0.96702 c 1.155244,1.00281 1.591448,1.19653 1.591448,0.70674 z m 120.351501,-2.10102 c -0.15329,-1.05035 -0.29459,-1.48004 -0.31401,-0.95487 -0.0422,1.14118 0.33987,3.62878 0.4884,3.17985 0.0574,-0.17339 -0.0212,-1.17462 -0.17439,-2.22498 z m -126.593009,1.34386 c 0.671267,0.56573 0.671286,0.5657 0.07189,-0.14277 -0.663653,-0.78441 -0.986054,-0.7127 -1.47682,0.32852 -0.318271,0.67524 -0.311563,0.67436 0.202145,-0.0266 0.51346,-0.70062 0.553932,-0.70597 1.20278,-0.15914 z m 17.08695,0.0764 c 0.699267,-0.35673 1.445519,-0.54408 1.65834,-0.41634 0.477429,0.2866 -0.184774,-0.62151 -1.506189,-2.06552 -0.534309,-0.58388 -1.365355,-1.2679 -1.846769,-1.52004 -0.768897,-0.40273 -0.875296,-0.40064 -0.875296,0.0172 0,0.27928 0.185897,0.40427 0.450335,0.3028 0.411294,-0.15783 3.052614,1.90209 3.049555,2.37829 -7.12e-4,0.11092 -0.681056,0.59145 -1.511876,1.06784 -1.75559,1.00667 -1.294977,1.19333 0.5819,0.23581 z m 105.929189,-0.54496 c -0.037,-1.17352 -0.0414,-1.17754 -0.26152,-0.23872 -0.212,0.90431 -0.15345,1.4323 0.15881,1.4323 0.0772,0 0.12341,-0.53711 0.10273,-1.19358 z m -112.838012,-0.3183 0.553336,-1.19357 -0.801228,0.95486 c -0.833611,0.99347 -1.006654,1.4323 -0.564783,1.4323 0.142637,0 0.508341,-0.53711 0.812675,-1.19359 z m 121.632952,-0.40409 c 0.86438,-1.24732 0.9034,-1.26544 1.55516,-0.72295 0.36769,0.30607 0.17172,0.0191 -0.43552,-0.63773 -1.66343,-1.79927 -4.59742,-3.10002 -7.48497,-3.31841 -1.61893,-0.12244 -2.39196,-0.0693 -2.39196,0.16454 0,0.19 0.14323,0.43398 0.31829,0.54216 0.17506,0.10815 0.31829,0.036 0.31829,-0.16052 0,-0.21131 0.42258,-0.3165 1.03444,-0.2575 0.90547,0.0873 1.05899,0.23863 1.23127,1.21375 l 0.1968,1.11401 0.0419,-1.17137 c 0.0416,-1.16502 0.0475,-1.16977 1.07634,-0.8777 0.56894,0.16153 1.42499,0.45398 1.90233,0.64992 l 0.86788,0.35622 -0.82342,1.47634 -0.8234,1.47633 1.13961,-1.21805 c 0.8564,-0.91535 1.30017,-1.1671 1.78569,-1.013 0.8155,0.25884 0.8187,1.00921 0.01,2.23105 -0.59283,0.89514 -0.78812,1.43231 -0.52073,1.43231 0.0638,0 0.51485,-0.57574 1.00249,-1.2794 z m -3.66466,-0.0717 c 0,-0.17755 -0.2111,-0.14308 -0.47743,0.078 -0.26259,0.21794 -0.47744,0.53947 -0.47744,0.71453 0,0.17756 0.21111,0.14309 0.47744,-0.078 0.26259,-0.21794 0.47743,-0.53947 0.47743,-0.71453 z m -144.503469,0.078 c 0,-0.17505 -0.492853,-0.31828 -1.095229,-0.31828 -0.602377,0 -1.18375,0.14323 -1.291943,0.31828 -0.118807,0.19223 0.314985,0.3183 1.095229,0.3183 0.710568,0 1.291943,-0.14324 1.291943,-0.3183 z m 18.157994,-0.73342 0.780235,0.53029 -0.588187,-0.67411 c -0.323503,-0.37074 -0.494088,-0.82634 -0.379078,-1.01243 0.408761,-0.66139 -0.0373,-0.32159 -1.118752,0.85222 -0.603283,0.65481 -0.731833,0.87178 -0.285665,0.48216 0.771715,-0.67393 0.849203,-0.6826 1.591447,-0.17813 z m 3.963233,-1.49384 c -0.202087,-1.46935 -0.161872,-1.6135 0.52714,-1.88956 1.056558,-0.42335 0.251919,-0.41129 -0.969542,0.0146 -0.832857,0.29033 -0.933294,0.41869 -0.560387,0.71615 0.249886,0.19932 0.548399,0.89953 0.663363,1.556 0.310824,1.7749 0.592784,1.44502 0.339426,-0.3971 z m 117.514232,-0.39868 c -0.0759,-0.39388 -0.13793,-0.0716 -0.13793,0.71615 0,0.78777 0.0621,1.11004 0.13793,0.71616 0.0759,-0.3939 0.0759,-1.03843 0,-1.43231 z m -115.080023,-0.50492 -0.297764,-1.32524 1.159752,-0.0433 c 0.802155,-0.0299 0.928953,-0.0872 0.411227,-0.18552 -0.411689,-0.0782 -1.073781,-0.0605 -1.471317,0.0392 -0.722646,0.18138 -0.722688,0.18176 -0.206343,1.94809 0.57359,1.96215 0.871056,1.64353 0.404445,-0.4332 z m 3.454044,0.90278 c 0.187378,-0.35012 0.269073,-0.63658 0.181542,-0.63658 -0.08753,0 -0.312453,0.28646 -0.499831,0.63658 -0.187378,0.35012 -0.269072,0.63658 -0.181542,0.63658 0.08753,0 0.312454,-0.28646 0.499831,-0.63658 z m 1.550661,-1.40263 c 0.285022,0.0765 0.08853,-0.0715 -0.436647,-0.3288 -0.525177,-0.25734 -1.169715,-0.46527 -1.432303,-0.46207 -0.262589,0.004 -0.145964,0.13877 0.259166,0.30124 0.461146,0.18495 0.651979,0.44522 0.510312,0.69599 -0.174394,0.3087 -0.133694,0.31501 0.177481,0.0275 0.222073,-0.20515 0.636969,-0.31041 0.921991,-0.23392 z m -25.011864,-1.78026 c -0.140739,-0.53819 -8.48e-4,-0.64328 0.905094,-0.67993 0.878374,-0.0355 0.928105,-0.07 0.275841,-0.19124 -0.437648,-0.0813 -0.891693,-0.3024 -1.008988,-0.49126 -0.41231,-0.66385 -1.252145,-0.50168 -1.557209,0.3007 -0.348785,0.91737 -0.05804,1.68719 0.383779,1.01614 0.2308,-0.35055 0.34613,-0.32699 0.612609,0.12515 0.434893,0.7379 0.594128,0.70533 0.388874,-0.0795 z m 2.297201,-2.22439 c -0.115715,-0.18723 0.02793,-0.2293 0.354764,-0.10382 0.428209,0.16432 0.501982,0.0877 0.33482,-0.34797 -0.117916,-0.30729 -0.214403,-0.6987 -0.214403,-0.86976 0,-0.17108 -0.107426,-0.24495 -0.238716,-0.16417 -0.344221,0.2118 -0.295052,-3.18461 0.05072,-3.50307 0.169437,-0.15605 0.20819,-0.0398 0.09347,0.28025 -0.107775,0.30075 -0.04369,0.64091 0.142413,0.75593 0.235581,0.1456 0.229981,0.27612 -0.01843,0.42965 -0.396371,0.24496 0.432157,2.24622 0.929948,2.24622 0.571252,0 0.675831,-0.69723 0.185797,-1.2387 -0.279738,-0.30911 -0.508614,-0.8897 -0.508614,-1.29021 0,-0.62264 0.126869,-0.70401 0.875296,-0.56135 l 0.875296,0.16684 -0.954869,-0.76474 c -0.525177,-0.4206 -1.190681,-0.76544 -1.478895,-0.76631 -0.288216,-8.7e-4 -1.577288,-0.43079 -2.864607,-0.95536 -2.694348,-1.09794 -2.499722,-1.04829 -2.499722,-0.63767 0,0.17506 0.223297,0.31829 0.496218,0.31829 0.27292,0 0.407072,0.14424 0.298116,0.32053 -0.108955,0.1763 -0.01,0.3869 0.219933,0.468 2.189996,0.77247 2.302457,0.84184 1.839553,1.13461 -0.369657,0.2338 -0.321702,0.29615 0.230718,0.30001 0.383552,0.002 0.800931,0.17245 0.92751,0.37725 0.14629,0.2367 0.06615,0.3106 -0.219933,0.20283 -1.515811,-0.57105 -1.805542,-0.55583 -2.602116,0.13675 -1.14503,0.99556 -1.4248,2.27038 -0.621699,2.8329 0.340609,0.23857 0.635028,0.577 0.654262,0.75206 0.02986,0.27179 0.65528,0.40538 3.490993,0.74571 0.229155,0.0275 0.329139,-0.0915 0.222185,-0.26464 z m -1.417829,-0.62988 c -0.60241,-0.37231 0.175216,-0.74926 0.811316,-0.39328 0.433743,0.24274 0.442123,0.31599 0.05323,0.46522 -0.253861,0.0974 -0.642906,0.0651 -0.864545,-0.0719 z m 106.24736,0.45869 c 0.0829,-0.0829 -4.51966,-0.15074 -10.22794,-0.15074 -6.34138,0 -10.45269,0.1197 -10.56895,0.30785 -0.19118,0.30935 20.48665,0.15313 20.79689,-0.15711 z m 5.13727,0.16754 c -0.26259,-0.16969 -1.48004,-0.28738 -2.70545,-0.26152 l -2.22804,0.047 1.7506,0.21453 c 2.88604,0.35368 3.73016,0.35368 3.18289,0 z m 2.22803,-0.44337 c 0,-0.0688 -0.21485,-0.20754 -0.47744,-0.3083 -0.26258,-0.10081 -0.47743,-0.0445 -0.47743,0.12509 0,0.16957 0.21485,0.3083 0.47743,0.3083 0.26259,0 0.47744,-0.0563 0.47744,-0.12509 z m 4.13776,-0.82978 c 0,-0.79772 -0.12667,-0.95487 -0.76969,-0.95487 -0.42333,0 -1.03205,-0.0832 -1.35273,-0.18513 -0.52059,-0.1653 -0.51485,-0.12752 0.0535,0.35262 0.60904,0.51448 0.56965,0.52831 -0.91006,0.31956 -1.21339,-0.17118 -1.51663,-0.12714 -1.40737,0.20439 0.0766,0.23242 0.48612,0.47051 0.91006,0.5291 0.42393,0.0586 0.90686,0.23762 1.07317,0.39786 0.1663,0.16024 0.77504,0.29134 1.35273,0.29134 0.95487,0 1.05035,-0.0869 1.05035,-0.95487 z m -106.945302,-0.0291 c 0.359289,-0.2541 0.378979,-0.37761 0.07958,-0.4991 -0.87913,-0.3567 -0.317547,-0.75144 0.954869,-0.67116 1.118969,0.0706 1.34519,-0.0108 1.309094,-0.46823 -0.024,-0.30448 0.08289,-0.4754 0.237521,-0.37982 0.575571,0.35572 1.663608,0.42752 2.159037,0.14246 0.411425,-0.23672 0.307698,-0.33645 -0.52938,-0.509 -0.572585,-0.11801 -1.118152,-0.33932 -1.212371,-0.49176 -0.228651,-0.36997 -2.043474,-0.35701 -2.043474,0.0145 0,0.16048 0.179038,0.36401 0.397862,0.45231 0.218825,0.0883 -0.246675,0.17404 -1.03444,0.19054 -1.108243,0.0232 -1.324284,0.10719 -0.954869,0.37103 0.38357,0.27398 0.336638,0.31017 -0.238718,0.18407 -0.393883,-0.0864 -0.716151,-0.01 -0.716151,0.17051 0,0.19386 -0.19479,0.1658 -0.477434,-0.0688 -0.397326,-0.32975 -0.477434,-0.28939 -0.477434,0.2405 0,0.60794 1.078142,1.62269 1.750592,1.64766 0.175059,0.006 0.533135,-0.14011 0.795723,-0.32581 z m -6.047502,-0.096 c 0,-0.0688 -0.214846,-0.20754 -0.477434,-0.3083 -0.262589,-0.10081 -0.477434,-0.0445 -0.477434,0.12509 0,0.16957 0.214845,0.3083 0.477434,0.3083 0.262588,0 0.477434,-0.0563 0.477434,-0.12509 z m 26.20584,-0.55484 c 0.815496,-0.0266 1.034368,-0.0985 0.568362,-0.18674 -1.15774,-0.21908 -3.125354,0.21359 -2.562175,0.56339 0.274322,0.17039 0.497603,0.16036 0.56151,-0.0253 0.05836,-0.16945 0.702889,-0.3276 1.432303,-0.35144 z m 70.235914,0.0433 c 0.41145,-0.2659 0.40305,-0.30922 -0.0607,-0.31342 -0.29603,-0.002 -0.62674,0.13836 -0.73494,0.31342 -0.24896,0.40283 0.17239,0.40283 0.79573,0 z m 2.14182,0.126 c -0.10574,-0.10574 -0.38029,-0.11705 -0.61006,-0.0251 -0.2539,0.10165 -0.17849,0.17701 0.19231,0.19229 0.33552,0.0138 0.52351,-0.0615 0.41775,-0.16716 z m -97.946994,-0.60343 c 0.324518,-0.39102 0.302768,-0.47744 -0.120178,-0.47744 -0.284024,0 -0.516408,0.21485 -0.516408,0.47744 0,0.26259 0.05407,0.47743 0.120166,0.47743 0.06609,0 0.298479,-0.21484 0.516408,-0.47743 z m 30.802927,0.24607 c -0.651844,-0.0683 -1.797687,-0.0693 -2.546316,-0.002 -0.748629,0.0673 -0.215301,0.1232 1.185172,0.12436 1.400474,0.001 2.012989,-0.0539 1.361144,-0.12225 z m -7.567789,-0.72351 c 0,-0.17506 -0.134778,-0.31829 -0.299506,-0.31829 -0.164728,0 -0.388026,0.14323 -0.496219,0.31829 -0.108197,0.17506 0.02659,0.3183 0.299506,0.3183 0.272919,0 0.496219,-0.14324 0.496219,-0.3183 z m -21.96198,-0.94483 c 0,-0.16957 -0.214846,-0.22586 -0.477435,-0.12509 -0.262588,0.10081 -0.477434,0.2395 -0.477434,0.3083 0,0.0688 0.214846,0.1251 0.477434,0.1251 0.262589,0 0.477435,-0.13874 0.477435,-0.30831 z m 95.908846,-0.66472 1.01034,-0.61604 -1.4323,-0.0632 c -0.78777,-0.0348 -2.25588,-0.0486 -3.26247,-0.0309 -1.0066,0.0177 -1.83017,-0.10021 -1.83017,-0.26192 0,-0.16555 1.67551,-0.27948 3.83279,-0.26062 3.85828,0.0337 4.76103,-0.18913 4.76103,-1.17534 0,-0.28733 -0.37686,-0.43846 -1.09329,-0.43846 -0.60131,0 -1.4965,-0.16612 -1.98931,-0.36915 -0.49443,-0.20369 -3.60646,-0.46392 -6.94352,-0.58061 -5.13741,-0.17965 -5.48469,-0.21989 -2.30761,-0.26743 2.98807,-0.0448 3.73991,-0.14662 3.73991,-0.50688 0,-0.70799 0.72132,-0.77311 1.59145,-0.1437 0.43765,0.31658 1.36865,0.6637 2.06888,0.77138 l 1.27317,0.19577 0.0854,-1.2177 c 0.10562,-1.50631 1.12628,-2.70206 1.74122,-2.03995 0.23675,0.2549 0.25188,0.34849 0.0369,0.22817 -0.20047,-0.11224 -0.44585,0.008 -0.54527,0.26706 -0.12639,0.32938 0.0312,0.46906 0.52366,0.46439 0.38743,-0.004 2.13672,0.0902 3.88732,0.20863 l 3.18289,0.21532 -1.35469,-1.31966 c -1.26259,-1.22995 -1.47901,-1.32084 -3.18291,-1.33667 -2.4991,-0.0232 -3.57879,-0.26486 -3.57879,-0.80092 0,-0.24868 -0.17903,-0.47247 -0.39786,-0.49732 -0.21883,-0.0249 0.17507,-0.1378 0.8753,-0.25101 1.41909,-0.22945 2.15523,-0.10105 1.88912,0.32953 -0.0968,0.15672 0.15462,0.28175 0.55883,0.27787 l 0.73494,-0.007 -0.79572,-0.6542 c -1.11983,-0.92064 -6.84294,-3.61457 -9.27459,-4.36562 -4.09448,-1.26467 -7.5184,-1.70782 -13.11904,-1.69803 -2.95083,0.005 -5.43097,0.0752 -5.51144,0.15569 -0.0805,0.0805 0.74661,0.3398 1.83793,0.57628 1.09133,0.23648 2.05023,0.62863 2.13089,0.87144 0.12198,0.36722 -0.46254,0.40609 -3.47517,0.23111 -1.992016,-0.11573 -4.858992,-0.36832 -6.371076,-0.56136 -2.002491,-0.25565 -3.289941,-0.25575 -4.739855,-3.5e-4 -1.094833,0.19285 -2.048904,0.40894 -2.120157,0.48019 -0.07125,0.0712 -0.03761,0.49591 0.07478,0.94367 0.174249,0.69425 0.311437,0.77339 0.931866,0.53751 0.400143,-0.15215 0.99551,-0.22609 1.323035,-0.16434 0.327526,0.0617 1.127094,0.12324 1.776819,0.13663 1.109468,0.0229 1.202949,0.10466 1.536952,1.34508 0.290526,1.07893 0.260747,1.56919 -0.16267,2.67788 -0.461371,1.20809 -0.46721,1.47945 -0.05316,2.47043 0.446162,1.06781 0.547477,1.1214 2.482543,1.31332 1.109561,0.11007 4.738773,0.32605 8.064903,0.48004 5.27468,0.24417 4.72557,0.26189 -4.29693,0.13858 -5.689419,-0.0777 -11.884129,-0.22585 -13.766017,-0.32911 -1.881887,-0.10322 -3.411142,-0.0639 -3.398343,0.0876 0.09,1.06466 1.481525,4.39913 1.808441,4.33349 0.217974,-0.0438 0.396316,0.0636 0.396316,0.23872 0,0.17506 -0.14323,0.31829 -0.318289,0.31829 -0.17506,0 -0.318289,0.13293 -0.318289,0.2954 0,0.18022 7.890677,0.23473 20.235501,0.13981 19.30011,-0.1484 20.28219,-0.18407 21.24583,-0.77165 z m -39.332878,0.44394 c 0.218824,-0.0883 0.576899,-0.0883 0.795723,0 0.218824,0.0883 0.03978,0.16054 -0.397861,0.16054 -0.437648,0 -0.616686,-0.0723 -0.397862,-0.16054 z m 32.167158,-1.27979 c 0.22976,-0.0919 0.50429,-0.0806 0.61006,0.0251 0.10574,0.10574 -0.0822,0.18099 -0.41776,0.16717 -0.37079,-0.0153 -0.44622,-0.0907 -0.1923,-0.1923 z m -4.47595,-0.62995 c 0.21882,-0.0883 0.57689,-0.0883 0.79571,0 0.21883,0.0883 0.0398,0.16054 -0.39786,0.16054 -0.43765,0 -0.61669,-0.0723 -0.39785,-0.16054 z m -86.733921,-2.22803 c -0.218824,-0.0883 -0.576899,-0.0883 -0.795723,0 -0.218824,0.0883 -0.03978,0.16054 0.397862,0.16054 0.437648,0 0.616685,-0.0723 0.397861,-0.16054 z m 0.07958,-1.51486 c 0.627305,0.0925 0.627578,0.0872 0.01877,-0.36335 -0.486357,-0.35997 -0.671557,-0.37261 -0.870423,-0.0594 -0.319613,0.50337 -0.337775,1.1629 -0.01877,0.68165 0.128613,-0.19403 0.520304,-0.31053 0.870423,-0.25887 z m 48.134664,-0.0581 c -0.105766,-0.10575 -0.38029,-0.11705 -0.610055,-0.0251 -0.25391,0.10166 -0.178489,0.17704 0.1923,0.19231 0.33553,0.0138 0.52352,-0.0614 0.417755,-0.16718 z m 11.494907,-1.0838 c 0.531023,-1.19967 0.602076,-5.65105 0.105009,-6.5787 -0.334543,-0.62432 -0.553547,-0.67589 -2.202693,-0.51867 -3.37042,0.3213 -4.101268,1.21032 -2.659514,3.23507 0.329799,0.46316 0.78956,1.65903 1.021692,2.65748 0.361497,1.5549 0.537745,1.83344 1.228344,1.94131 1.863343,0.29104 2.080578,0.22724 2.507162,-0.73649 z m -62.617375,0.2054 c -0.287914,-0.34692 -0.215819,-0.41901 0.358889,-0.35891 1.206315,0.12616 1.241571,0.14449 1.007073,0.52391 -0.150111,0.2429 -0.08618,0.28037 0.188579,0.11056 0.32456,-0.20059 0.287117,-0.35093 -0.170801,-0.68576 -0.662901,-0.48472 -2.562553,-0.57888 -2.833522,-0.14044 -0.09803,0.15863 -0.476672,0.21037 -0.841416,0.115 -0.504244,-0.13185 -0.561375,-0.23795 -0.2384,-0.44267 0.266927,-0.16921 -0.130059,-0.27108 -1.068322,-0.27415 -1.662196,-0.006 -2.332171,0.43305 -0.828258,0.54207 0.527268,0.0383 1.122041,0.18686 1.32172,0.33031 0.581296,0.41763 2.218567,0.50491 1.971472,0.10514 -0.117532,-0.19016 -0.07733,-0.34575 0.08933,-0.34575 0.166662,0 0.385465,0.21484 0.48623,0.47743 0.100762,0.26259 0.348472,0.47744 0.550461,0.47744 0.274073,0 0.275839,-0.11019 0.007,-0.43412 z m 49.935514,-0.79461 c 0.491758,-0.36142 0.833616,-0.96517 0.89492,-1.58052 0.08324,-0.83548 -0.07044,-1.09915 -0.954869,-1.63837 -0.579736,-0.35345 -1.390495,-0.64318 -1.801686,-0.64384 -1.205632,-0.002 -2.863554,0.94861 -3.347849,1.9194 -0.410904,0.82368 -0.391304,0.9537 0.232043,1.53931 1.495512,1.40497 3.404621,1.55994 4.977441,0.40402 z m 15.336251,-1.06827 c -0.228393,-0.2284 -0.376643,-0.24719 -0.376643,-0.0478 0,0.42485 0.376413,0.80126 0.588836,0.58884 0.09045,-0.0905 -0.0051,-0.33394 -0.212193,-0.54109 z m 37.89769,-1.415 c -0.21882,-0.0883 -0.5769,-0.0883 -0.79573,0 -0.21882,0.0883 -0.0398,0.16054 0.39787,0.16054 0.43764,0 0.61668,-0.0723 0.39786,-0.16054 z m -49.17575,-0.96347 c -0.306354,-0.08 -0.80766,-0.08 -1.114014,0 -0.306353,0.0801 -0.0557,0.14556 0.557007,0.14556 0.612708,0 0.86336,-0.0656 0.557007,-0.14556 z m 1.964182,-1.63055 c -0.01565,-0.33449 -0.08597,-0.38632 -0.18633,-0.13738 -0.08866,0.21992 -0.282302,0.32501 -0.430314,0.23354 -0.14801,-0.0915 -0.3407,-0.0505 -0.428198,0.0911 -0.08749,0.14158 0.117447,0.27825 0.455441,0.30371 0.391153,0.0295 0.605395,-0.14899 0.589401,-0.49094 z m -0.929741,-3.56097 c 0,-0.17506 -0.06316,-0.31829 -0.14036,-0.31829 -0.0772,0 -0.228881,0.14323 -0.337074,0.31829 -0.108196,0.17505 -0.04503,0.31828 0.140359,0.31828 0.185392,0 0.337075,-0.14323 0.337075,-0.31828 z m 108.562039,25.81914 c -1.26534,-0.22875 -1.73773,-0.99507 -0.60883,-0.98766 0.59629,0.004 0.64857,0.0657 0.26525,0.31341 -0.36329,0.23478 -0.23461,0.30971 0.53821,0.31341 0.55862,0.002 1.10419,0.1481 1.21238,0.32316 0.10815,0.17506 0.0808,0.29944 -0.0608,0.2764 -0.14162,-0.0231 -0.74742,-0.13048 -1.34622,-0.23872 z m 5.06735,-1.87438 c 0,-0.38908 -0.59904,-0.6523 -2.70547,-1.18877 -0.87941,-0.22397 -1.26355,-0.42107 -0.85855,-0.44052 0.93959,-0.0451 5.16605,0.89988 5.79204,1.29505 0.33592,0.21206 0.20898,0.24421 -0.42831,0.10851 -0.5109,-0.10887 -1.1006,-0.0313 -1.35273,0.17803 -0.27118,0.22505 -0.44698,0.24383 -0.44698,0.0478 z m 0.63657,-1.98209 c -1.81593,-1.28779 -4.98168,-2.54087 -6.8603,-2.71547 -0.59583,-0.0553 -2.00182,-0.46814 -3.12441,-0.91725 -5.17378,-2.06983 -12.95804,-3.83015 -20.57109,-4.65188 -1.83812,-0.19841 -4.6311,-0.56586 -6.20664,-0.81656 -1.57554,-0.25072 -4.15368,-0.467 -5.72921,-0.48064 -2.78077,-0.0241 -2.81951,-0.0344 -1.32363,-0.35423 l 1.54098,-0.32942 -3.76901,-2.12115 c -5.06955,-2.85308 -14.60338,-7.37527 -18.10888,-8.5896 -4.24046,-1.46894 -6.08785,-2.22479 -5.55323,-2.2721 1.79588,-0.15891 -6.15655,-1.76891 -10.98099,-2.22314 -5.85419,-0.5512 -19.097076,-0.11525 -24.508299,0.80671 -1.400474,0.23862 -3.835389,0.59645 -5.410922,0.79517 -3.799575,0.47924 -16.59724,2.91108 -22.71528,4.3164 -2.690086,0.6179 -4.969835,1.0447 -5.066108,0.94844 -0.09627,-0.0962 0.09949,-0.18512 0.435011,-0.19743 0.584187,-0.0214 0.583063,-0.0349 -0.02653,-0.31748 -0.495188,-0.22956 -0.416461,-0.25644 0.354445,-0.12102 0.550383,0.0967 2.098392,-0.11596 3.481557,-0.47824 1.369795,-0.35878 2.785828,-0.65452 3.146741,-0.6572 0.54201,-0.004 0.573121,-0.0593 0.178772,-0.31784 -0.338972,-0.22222 -0.154356,-0.25919 0.63658,-0.12749 0.856337,0.14259 1.00358,0.10466 0.636578,-0.16411 -0.363446,-0.26613 -0.135468,-0.31173 0.954869,-0.19098 1.13602,0.12579 1.267701,0.0961 0.636579,-0.14343 -0.637572,-0.24201 -0.511049,-0.27284 0.636579,-0.15518 0.971806,0.0996 1.227638,0.0587 0.795724,-0.12721 -0.513282,-0.22099 -0.280865,-0.3487 1.199961,-0.65938 1.010097,-0.21193 2.281281,-0.28764 2.824854,-0.16825 0.733867,0.16119 0.926837,0.11765 0.749529,-0.1693 -0.178001,-0.288 0.03467,-0.33226 0.835476,-0.17386 0.793815,0.15702 0.949622,0.12564 0.596827,-0.1203 -0.387984,-0.27039 -0.32835,-0.33418 0.318289,-0.34051 0.437648,-0.005 1.511876,-0.36007 2.387172,-0.79065 0.875296,-0.43057 2.164368,-0.79075 2.864606,-0.8004 0.700236,-0.01 1.846079,-0.15563 2.546315,-0.3244 5.891935,-1.42004 23.093895,-2.18813 31.669825,-1.41412 5.54676,0.50062 10.90828,1.80622 16.0784,3.91529 4.49873,1.83518 12.60032,5.70988 16.30756,7.79931 8.68848,4.89692 7.51134,4.41216 11.37886,4.68592 12.41507,0.87882 31.57509,5.84895 36.31505,9.42016 0.5417,0.40814 1.11598,0.74207 1.27617,0.74207 0.16019,0 0.47015,0.28646 0.68881,0.63658 0.50678,0.8115 0.5474,0.82852 -1.51759,-0.6359 z M 70.363108,131.10725 c 0.639676,-0.20486 0.670886,-0.25667 0.159145,-0.26419 -0.350119,-0.005 -0.92304,0.11368 -1.273159,0.26419 -0.811073,0.34853 0.02573,0.34853 1.114014,0 z m 5.643008,-1.14717 c -0.105766,-0.10574 -0.38029,-0.11705 -0.610055,-0.0251 -0.25391,0.10165 -0.178489,0.17702 0.1923,0.1923 0.33553,0.0138 0.52352,-0.0615 0.417755,-0.16717 z m 110.532694,23.10916 c -1.07398,-0.22605 -1.0797,-0.23464 -0.15914,-0.23873 0.52517,-0.002 1.38456,0.10514 1.90973,0.23873 0.84728,0.2156 0.8652,0.2425 0.15915,0.23873 -0.43765,-0.002 -1.29703,-0.10971 -1.90974,-0.23873 z m -15.13749,-3.01362 c -0.33982,-0.25703 -0.47461,-0.46731 -0.29955,-0.46731 0.17505,0 0.59632,0.21028 0.93612,0.46731 0.33982,0.25702 0.47462,0.46731 0.29956,0.46731 -0.17506,0 -0.59632,-0.21029 -0.93613,-0.46731 z m -28.25301,-0.1245 c -0.31931,-0.12582 -0.56996,-0.3306 -0.55702,-0.45506 0.0843,-0.80963 -0.0108,-0.98456 -0.29473,-0.54458 -0.26368,0.40802 -0.30925,0.39644 -0.31341,-0.0795 -0.007,-0.79722 0.47314,-0.68725 1.08651,0.24886 0.29281,0.44688 0.6855,0.70855 0.88151,0.58741 0.21402,-0.13227 0.26389,-0.0735 0.12637,0.149 -0.1249,0.20211 -0.25445,0.35741 -0.28788,0.3451 -0.0334,-0.0123 -0.32204,-0.12533 -0.64135,-0.25115 z m 23.42388,-0.58364 c 0.3097,-0.0807 0.73938,-0.0754 0.95487,0.012 0.21551,0.0872 -0.0379,0.15322 -0.56305,0.14673 -0.52518,-0.006 -0.7015,-0.0778 -0.39182,-0.15853 z m -1.35878,-0.43478 c 0,-0.18539 0.14323,-0.24856 0.31829,-0.14036 0.17506,0.10815 0.31829,0.25988 0.31829,0.33707 0,0.0772 -0.14323,0.14036 -0.31829,0.14036 -0.17506,0 -0.31829,-0.15169 -0.31829,-0.33707 z m -17.26577,-1.23181 c -1.49602,-0.20864 -2.87386,-0.97743 -1.75178,-0.97743 0.98836,0 3.73367,0.68769 3.91472,0.98062 0.19467,0.31499 0.11753,0.31488 -2.16294,-0.004 z m 3.42243,-0.0189 c -0.11152,-0.18043 0.0162,-0.23379 0.29951,-0.1251 0.55141,0.2116 0.65229,0.43974 0.19445,0.43974 -0.16473,0 -0.38701,-0.14159 -0.49396,-0.31464 z m -8.59607,-0.32195 c -0.55994,-0.24061 -0.52894,-0.27624 0.2575,-0.29591 0.51951,-0.013 0.81167,0.11092 0.69737,0.29591 -0.10815,0.17506 -0.22408,0.30823 -0.25751,0.29593 -0.0334,-0.0123 -0.34724,-0.14547 -0.69736,-0.29593 z m -73.127043,-0.23305 c 0.744001,-0.067 1.961458,-0.067 2.705461,0 0.744001,0.067 0.135273,0.12184 -1.352731,0.12184 -1.488004,0 -2.096733,-0.0549 -1.35273,-0.12184 z m 11.219706,-0.0852 c 0,-0.17506 0.680344,-0.3161 1.511875,-0.31342 1.093475,0.004 1.379749,0.0902 1.034441,0.31342 -0.629279,0.40667 -2.546316,0.40667 -2.546316,0 z m 73.684047,0 c -0.40125,-0.17243 -0.46008,-0.27355 -0.15914,-0.27355 0.26259,0 0.76389,0.1231 1.11401,0.27355 0.40124,0.17242 0.46008,0.27354 0.15914,0.27354 -0.26258,0 -0.76389,-0.12308 -1.11401,-0.27354 z M 42.306898,146.62296 c 0.372074,-0.37207 3.581654,-0.54979 3.356736,-0.18587 -0.0721,0.11669 0.04456,0.27064 0.259213,0.34219 0.21466,0.0716 -0.590427,0.14496 -1.789083,0.16314 -1.593954,0.0242 -2.084684,-0.0616 -1.826866,-0.31946 z m 95.454042,-0.13021 c 0.21882,-0.0883 0.5769,-0.0883 0.79573,0 0.21882,0.0883 0.0398,0.16054 -0.39787,0.16054 -0.43766,0 -0.61668,-0.0722 -0.39786,-0.16054 z m -67.484504,-0.3372 c 0.565038,-0.0703 1.56765,-0.0715 2.228027,-0.002 0.660377,0.0689 0.198072,0.12643 -1.027342,0.12784 -1.225415,0.001 -1.765723,-0.055 -1.200685,-0.12527 z m -31.191941,-0.63913 c -0.660137,-0.0689 -1.117184,-0.25966 -1.015657,-0.42393 0.101532,-0.16428 -0.146127,-0.30776 -0.550342,-0.31885 -0.688805,-0.0189 -0.694978,-0.0361 -0.09836,-0.27442 0.350119,-0.13984 1.281116,-0.14869 2.068883,-0.0196 0.787765,0.12902 1.23794,0.25252 1.000387,0.27442 -0.24709,0.0229 -0.353516,0.24415 -0.248706,0.51727 0.100762,0.26259 0.151896,0.45336 0.113621,0.42394 -0.03827,-0.0295 -0.609695,-0.10984 -1.269832,-0.17876 z m 25.151539,-0.29682 c 0.218824,-0.0883 0.576899,-0.0883 0.795723,0 0.218824,0.0883 0.03978,0.16054 -0.397862,0.16054 -0.437648,0 -0.616685,-0.0723 -0.397861,-0.16054 z m -0.238717,-0.74408 c 0,-0.17506 0.294913,-0.31829 0.655363,-0.31829 0.36045,0 0.566843,0.14323 0.45865,0.31829 -0.108197,0.17506 -0.403106,0.3183 -0.655363,0.3183 -0.252258,0 -0.45865,-0.14324 -0.45865,-0.3183 z m -31.271949,-0.52909 c 0.218824,-0.0883 0.576899,-0.0883 0.795723,0 0.218824,0.0883 0.03978,0.16054 -0.397861,0.16054 -0.437648,0 -0.616686,-0.0722 -0.397862,-0.16054 z m 4.639968,-0.052 c 0.297016,-0.057 0.480007,-0.20024 0.406644,-0.31828 -0.07336,-0.11801 0.641036,-0.16557 1.587551,-0.10562 1.098815,0.0697 1.720937,-0.0167 1.720937,-0.23872 0,-0.20087 0.571378,-0.33714 1.352731,-0.32262 1.284284,0.0238 1.308441,0.0413 0.477434,0.34481 -0.481412,0.17583 -0.875481,0.41518 -0.875706,0.53188 -2.26e-4,0.11669 -1.172484,0.21219 -2.605017,0.21219 -1.432532,0 -2.361591,-0.0467 -2.064574,-0.1037 z m 15.577477,-0.27606 c 0.309684,-0.0807 0.739375,-0.0754 0.954867,0.012 0.215493,0.0872 -0.03788,0.15322 -0.563064,0.14673 -0.525177,-0.006 -0.701489,-0.0778 -0.391803,-0.15853 z M 51.504451,142.355 c 0.218824,-0.0883 0.5769,-0.0883 0.795724,0 0.218824,0.0883 0.03978,0.16054 -0.397862,0.16054 -0.437648,0 -0.616686,-0.0723 -0.397862,-0.16054 z m 1.909738,-0.9687 c 0.393883,-0.0759 1.038419,-0.0759 1.432303,0 0.393883,0.0759 0.07161,0.13793 -0.716152,0.13793 -0.787766,0 -1.110035,-0.0621 -0.716151,-0.13793 z m -5.07274,-0.3111 c 0.229765,-0.0919 0.504289,-0.0806 0.610055,0.0252 0.105766,0.10574 -0.08222,0.18099 -0.417755,0.16716 -0.370789,-0.0153 -0.446211,-0.0907 -0.1923,-0.19229 z m -6.624401,-0.24881 c 0,-0.0813 0.262589,-0.28847 0.58353,-0.46024 0.440797,-0.2359 0.583532,-0.19972 0.583532,0.14795 0,0.25313 -0.26259,0.46025 -0.583532,0.46025 -0.320941,0 -0.58353,-0.0665 -0.58353,-0.14796 z m 4.022662,-0.32948 c 0.100762,-0.26259 0.436807,-0.47743 0.746761,-0.47743 0.309955,0 0.741859,0.21484 0.959789,0.47743 0.339699,0.40931 0.233147,0.47744 -0.746762,0.47744 -0.88523,0 -1.10168,-0.10767 -0.959788,-0.47744 z m 5.446452,0.22284 c -1.006591,-0.0525 -1.830165,-0.21545 -1.830165,-0.36209 0,-0.76523 10.715024,-4.13968 11.535241,-3.63276 0.13281,0.082 0.241473,0.34717 0.241473,0.5891 0,0.24192 0.16536,0.54207 0.367467,0.66697 0.208654,0.12896 0.281747,0.0884 0.169125,-0.0938 -0.109086,-0.1765 0.161982,-0.48509 0.602378,-0.68575 0.986751,-0.4496 1.831094,-0.47468 1.566491,-0.0465 -0.108197,0.17505 -0.416323,0.31828 -0.684733,0.31828 -0.26841,0 -0.84202,0.27846 -1.274688,0.61879 -0.432667,0.34034 -0.981181,0.54416 -1.218917,0.45293 -0.237738,-0.0912 -0.719955,-0.012 -1.071596,0.17631 -0.490401,0.26245 -0.75111,0.23039 -1.119089,-0.13759 -0.427464,-0.42746 -0.669507,-0.40874 -2.221134,0.1718 -1.729162,0.64696 -2.971825,1.58238 -2.102138,1.58238 0.226475,0 0.637896,-0.19456 0.91427,-0.43236 0.480884,-0.41378 2.369546,-1.1591 2.937164,-1.1591 0.620381,0 0.177431,0.51738 -0.930624,1.087 -1.404932,0.72224 -3.364722,1.01765 -5.880525,0.88644 z m 9.324287,-3.13361 c 0.21977,-0.21976 0.01363,-0.27842 -0.640897,-0.18236 -0.530677,0.078 -0.964869,0.26769 -0.964869,0.42178 0,0.36039 1.182234,0.18412 1.605766,-0.23942 z m -24.522613,1.97719 c 0.612707,-0.24774 1.400474,-0.45226 1.750592,-0.45447 l 0.636579,-0.004 -0.636579,0.25682 c -0.350118,0.14126 -1.137885,0.34578 -1.750592,0.45448 l -1.114014,0.19765 z m 11.458424,0.33092 c 0,-0.0688 0.222284,-0.21039 0.493966,-0.31464 0.283253,-0.10875 0.411014,-0.0553 0.299504,0.12508 -0.186918,0.30245 -0.79347,0.44734 -0.79347,0.18956 z m 1.531768,-0.72893 c 0.229765,-0.0919 0.50429,-0.0806 0.610055,0.0252 0.105767,0.10574 -0.08222,0.18098 -0.417755,0.16716 -0.370789,-0.0153 -0.44621,-0.0907 -0.1923,-0.19229 z m -6.475885,-1.5571 c 2.346737,-0.80032 4.389203,-1.32432 4.734631,-1.21468 0.436569,0.13856 0.537665,0.0798 0.359312,-0.20877 -0.162522,-0.26296 -0.119553,-0.32207 0.124476,-0.17124 0.528176,0.32643 0.082,0.90559 -0.519767,0.67468 -0.274651,-0.10538 -0.582431,-0.0668 -0.683957,0.0859 -0.168595,0.25345 -7.398646,2.32258 -7.91798,2.26602 -0.123117,-0.0135 1.633361,-0.65776 3.903285,-1.43187 z m 10.355039,0.19762 c 0.262588,-0.17769 0.751959,-0.32527 1.087489,-0.32795 0.814328,-0.006 0.560273,0.17567 -0.610055,0.43745 -0.697346,0.15599 -0.826107,0.12646 -0.477434,-0.10947 z m 2.387172,-0.65111 c 0.350119,-0.15046 0.851424,-0.27355 1.114013,-0.27355 0.300937,0 0.242103,0.10117 -0.159145,0.27355 -0.350119,0.15044 -0.851424,0.27354 -1.114014,0.27354 -0.300936,0 -0.242103,-0.10117 0.159146,-0.27354 z m 2.512942,-0.5466 c 0.484668,-0.1241 0.515942,-0.20971 0.159145,-0.43564 -0.338173,-0.21413 -0.282834,-0.28234 0.232074,-0.28604 0.371874,-0.002 1.269586,-0.21427 1.994916,-0.47018 1.47179,-0.51928 2.968795,-0.29925 1.597362,0.23478 -0.421976,0.16431 -1.239731,0.33337 -1.817235,0.37569 -0.577505,0.0423 -1.214879,0.24181 -1.416389,0.44331 -0.201509,0.20151 -0.588388,0.34977 -0.859729,0.32946 -0.337559,-0.0253 -0.302868,-0.0857 0.109856,-0.19138 z m 4.011993,-0.084 c 0,-0.17839 0.322269,-0.34263 0.716152,-0.36497 1.493549,-0.0847 2.03656,-0.19539 2.699505,-0.55019 0.44798,-0.23975 0.751437,-0.25581 0.880721,-0.0467 0.108485,0.17552 -0.106116,0.31914 -0.476903,0.31914 -0.370781,0 -0.586641,0.14159 -0.479687,0.31465 0.11551,0.18689 -0.0273,0.22954 -0.351719,0.10502 -0.413013,-0.15849 -0.47975,-0.0994 -0.273723,0.24235 0.223806,0.37125 0.185274,0.38141 -0.215788,0.0569 -0.268535,-0.2173 -0.546683,-0.34487 -0.618106,-0.28349 -0.379178,0.32589 -1.880452,0.49132 -1.880452,0.20722 z M 51.504451,135.3524 c 0.218824,-0.0883 0.5769,-0.0883 0.795724,0 0.218824,0.0883 0.03978,0.16054 -0.397862,0.16054 -0.437648,0 -0.616686,-0.0723 -0.397862,-0.16054 z m 15.297792,-0.007 c 0.229765,-0.0919 0.50429,-0.0806 0.610055,0.0251 0.105766,0.10575 -0.08222,0.18099 -0.417755,0.16717 -0.370789,-0.0153 -0.44621,-0.0907 -0.1923,-0.1923 z m -4.258304,-0.45325 c -0.145218,-0.23496 -0.0013,-0.28369 0.431863,-0.1462 0.357309,0.11345 0.743218,0.0549 0.857577,-0.13023 0.114356,-0.18504 0.356549,-0.24458 0.538202,-0.13231 0.212948,0.13161 0.176866,0.30133 -0.101568,0.47776 -0.605275,0.38351 -1.467707,0.34903 -1.726076,-0.0691 z m -8.174881,-0.17669 c 0.218824,-0.0883 0.576899,-0.0883 0.795723,0 0.218824,0.0883 0.03978,0.16054 -0.397862,0.16054 -0.437648,0 -0.616686,-0.0723 -0.397861,-0.16054 z m 10.698028,-0.49738 c -0.114788,-0.18572 -0.01071,-0.26263 0.238657,-0.1764 0.243191,0.0841 1.328284,-0.0905 2.411319,-0.38781 1.13811,-0.31251 2.145569,-0.42882 2.387172,-0.27561 0.318047,0.20169 0.284807,0.27577 -0.138988,0.30974 -0.624659,0.05 -0.827069,0.0989 -1.511876,0.36424 -0.975282,0.37795 -3.188211,0.48633 -3.386284,0.16584 z m 46.594104,-4.59526 c 0.21883,-0.0883 0.57689,-0.0883 0.79572,0 0.21882,0.0883 0.0398,0.16054 -0.39787,0.16054 -0.43764,0 -0.61668,-0.0723 -0.39785,-0.16054 z m -22.922166,-0.46464 c 0.215907,-0.21753 0.472737,-0.31533 0.570734,-0.21732 0.09799,0.098 -0.07865,0.27596 -0.392556,0.39549 -0.453626,0.17274 -0.490186,0.13618 -0.178178,-0.17817 z"
       id="path1" /></g></svg>
